G04 #@! TF.FileFunction,Copper,L1,Top,Signal*
%FSLAX46Y46*%
G04 Gerber Fmt 4.6, Leading zero omitted, Abs format (unit mm)*
G04 Created by KiCad (PCBNEW 4.0.7) date 06/10/18 23:59:59*
%MOMM*%
%LPD*%
G01*
G04 APERTURE LIST*
%ADD10C,0.100000*%
%ADD11R,0.750000X0.800000*%
%ADD12R,0.899160X1.498600*%
%ADD13R,1.498600X0.899160*%
%ADD14R,4.000000X4.000000*%
%ADD15R,1.350000X1.350000*%
%ADD16C,1.350000*%
%ADD17R,1.700000X1.700000*%
%ADD18O,1.700000X1.700000*%
%ADD19R,1.600000X2.400000*%
%ADD20O,1.600000X2.400000*%
%ADD21R,2.180000X1.600000*%
%ADD22R,0.800000X0.750000*%
%ADD23R,0.600000X0.450000*%
%ADD24R,0.800000X0.900000*%
%ADD25R,0.900000X0.800000*%
%ADD26R,0.900000X0.500000*%
%ADD27R,0.500000X0.900000*%
%ADD28R,0.400000X1.350000*%
%ADD29O,1.250000X0.950000*%
%ADD30O,1.000000X1.550000*%
%ADD31R,0.450000X0.600000*%
%ADD32R,1.200000X1.200000*%
%ADD33R,2.000000X3.800000*%
%ADD34R,2.000000X1.500000*%
%ADD35R,0.406400X1.270000*%
%ADD36R,1.168400X1.600200*%
%ADD37C,0.600000*%
%ADD38C,0.750000*%
%ADD39C,1.000000*%
%ADD40C,0.400000*%
%ADD41C,0.500000*%
%ADD42C,0.250000*%
%ADD43C,0.254000*%
G04 APERTURE END LIST*
D10*
D11*
X131500000Y-83250000D03*
X131500000Y-84750000D03*
D12*
X168698740Y-93500780D03*
X167428740Y-93500780D03*
X166158740Y-93500780D03*
X164888740Y-93500780D03*
X163618740Y-93500780D03*
X162348740Y-93500780D03*
X161078740Y-93500780D03*
X159811280Y-93500780D03*
X158541280Y-93500780D03*
X157271280Y-93500780D03*
X156001280Y-93500780D03*
X154731280Y-93500780D03*
X153461280Y-93500780D03*
X152191280Y-93500780D03*
D13*
X150700300Y-96785000D03*
X150700300Y-98055000D03*
X150700300Y-99325000D03*
X150700300Y-100595000D03*
X150700300Y-101865000D03*
X150700300Y-103135000D03*
X150700300Y-104405000D03*
X150700300Y-105675000D03*
X150700300Y-106945000D03*
X150700300Y-108215000D03*
D12*
X152191280Y-111499220D03*
X153461280Y-111499220D03*
X154731280Y-111499220D03*
X156001280Y-111499220D03*
X157271280Y-111499220D03*
X158541280Y-111499220D03*
X159811280Y-111499220D03*
X161078740Y-111499220D03*
X162348740Y-111499220D03*
X163618740Y-111499220D03*
X164888740Y-111499220D03*
X166158740Y-111499220D03*
X167428740Y-111499220D03*
X168698740Y-111499220D03*
D14*
X161500000Y-101865000D03*
D15*
X135000000Y-116000000D03*
D16*
X135000000Y-118000000D03*
X135000000Y-120000000D03*
X135000000Y-122000000D03*
D15*
X127500000Y-116000000D03*
D16*
X127500000Y-118000000D03*
X127500000Y-120000000D03*
X127500000Y-122000000D03*
D17*
X104064000Y-103791000D03*
D18*
X104064000Y-101251000D03*
D19*
X128400000Y-106200000D03*
D20*
X146180000Y-98580000D03*
X130940000Y-106200000D03*
X143640000Y-98580000D03*
X133480000Y-106200000D03*
X141100000Y-98580000D03*
X136020000Y-106200000D03*
X138560000Y-98580000D03*
X138560000Y-106200000D03*
X136020000Y-98580000D03*
X141100000Y-106200000D03*
X133480000Y-98580000D03*
X143640000Y-106200000D03*
X130940000Y-98580000D03*
X146180000Y-106200000D03*
X128400000Y-98580000D03*
D17*
X152500000Y-117500000D03*
D18*
X152500000Y-120040000D03*
X152500000Y-122580000D03*
D17*
X141500000Y-117500000D03*
D18*
X141500000Y-120040000D03*
X141500000Y-122580000D03*
D21*
X154910000Y-86000000D03*
X164090000Y-86000000D03*
D11*
X111000000Y-115850000D03*
X111000000Y-114350000D03*
D22*
X113150000Y-107400000D03*
X114650000Y-107400000D03*
X116150000Y-104500000D03*
X114650000Y-104500000D03*
D23*
X116950000Y-118100000D03*
X119050000Y-118100000D03*
D24*
X128670800Y-84088200D03*
X126770800Y-84088200D03*
X127720800Y-86088200D03*
D25*
X122987000Y-84824000D03*
X122987000Y-86724000D03*
X124987000Y-85774000D03*
D26*
X127670000Y-89572000D03*
X127670000Y-88072000D03*
D27*
X122983000Y-83361000D03*
X124483000Y-83361000D03*
X122983000Y-88060000D03*
X124483000Y-88060000D03*
D26*
X126019000Y-89572000D03*
X126019000Y-88072000D03*
D21*
X157410000Y-118000000D03*
X166590000Y-118000000D03*
D11*
X112600000Y-115850000D03*
X112600000Y-114350000D03*
D22*
X116150000Y-106000000D03*
X114650000Y-106000000D03*
X167100000Y-90000000D03*
X168600000Y-90000000D03*
X167150000Y-91700000D03*
X168650000Y-91700000D03*
X154950000Y-83150000D03*
X156450000Y-83150000D03*
D11*
X139000000Y-120750000D03*
X139000000Y-122250000D03*
D26*
X124000000Y-117350000D03*
X124000000Y-115850000D03*
X131700000Y-118150000D03*
X131700000Y-116650000D03*
D11*
X150000000Y-120750000D03*
X150000000Y-122250000D03*
D22*
X114650000Y-102900000D03*
X116150000Y-102900000D03*
X114650000Y-101300000D03*
X116150000Y-101300000D03*
D11*
X126000000Y-97250000D03*
X126000000Y-98750000D03*
D26*
X121400000Y-117550000D03*
X121400000Y-119050000D03*
D17*
X104000000Y-95000000D03*
D18*
X104000000Y-91500000D03*
D17*
X104000000Y-113500000D03*
D18*
X104000000Y-110000000D03*
D28*
X109900000Y-120350000D03*
X110550000Y-120350000D03*
X111200000Y-120350000D03*
X111850000Y-120350000D03*
X112500000Y-120350000D03*
D29*
X108700000Y-120350000D03*
X113700000Y-120350000D03*
D30*
X107700000Y-123050000D03*
X114700000Y-123050000D03*
D15*
X150000000Y-89000000D03*
D16*
X150000000Y-87000000D03*
X150000000Y-85000000D03*
X150000000Y-83000000D03*
D15*
X142500000Y-89000000D03*
D16*
X142500000Y-87000000D03*
X142500000Y-85000000D03*
X142500000Y-83000000D03*
D15*
X135000000Y-89000000D03*
D16*
X135000000Y-87000000D03*
X135000000Y-85000000D03*
X135000000Y-83000000D03*
D27*
X119112600Y-98094800D03*
X120612600Y-98094800D03*
X117029800Y-87249000D03*
X118529800Y-87249000D03*
X142250000Y-112150000D03*
X143750000Y-112150000D03*
D26*
X155300000Y-117500000D03*
X155300000Y-119000000D03*
D11*
X108864400Y-97903600D03*
X108864400Y-99403600D03*
D31*
X106800000Y-103250000D03*
X106800000Y-101150000D03*
D32*
X121400000Y-120800000D03*
X121400000Y-123000000D03*
D33*
X121006000Y-113492000D03*
D34*
X114706000Y-113492000D03*
X114706000Y-115792000D03*
X114706000Y-111192000D03*
D22*
X117346160Y-98572320D03*
X115846160Y-98572320D03*
D11*
X110439200Y-97167000D03*
X110439200Y-98667000D03*
D22*
X116293200Y-89408000D03*
X117793200Y-89408000D03*
D32*
X113200000Y-84010500D03*
X115400000Y-84010500D03*
X113250800Y-86537800D03*
X115450800Y-86537800D03*
D27*
X113907000Y-98704400D03*
X112407000Y-98704400D03*
X111875000Y-100330000D03*
X110375000Y-100330000D03*
X118669500Y-84010500D03*
X117169500Y-84010500D03*
D26*
X113258600Y-89599200D03*
X113258600Y-88099200D03*
D35*
X119110760Y-91231720D03*
X118475760Y-91231720D03*
X117815360Y-91231720D03*
X117154960Y-91231720D03*
X116519960Y-91231720D03*
X115859560Y-91231720D03*
X115199160Y-91231720D03*
X114564160Y-91231720D03*
X113903760Y-91231720D03*
X113268760Y-91231720D03*
X113268760Y-96565720D03*
X113903760Y-96565720D03*
X114564160Y-96565720D03*
X115199160Y-96565720D03*
X115859560Y-96565720D03*
X116519960Y-96565720D03*
X117154960Y-96565720D03*
X117815360Y-96565720D03*
X118475760Y-96565720D03*
X119110760Y-96565720D03*
D11*
X139000000Y-83250000D03*
X139000000Y-84750000D03*
X146500000Y-83250000D03*
X146500000Y-84750000D03*
X131500000Y-121750000D03*
X131500000Y-120250000D03*
X124000000Y-121750000D03*
X124000000Y-120250000D03*
X144500000Y-122250000D03*
X144500000Y-120750000D03*
D26*
X149800000Y-118950000D03*
X149800000Y-117450000D03*
D17*
X147000000Y-117500000D03*
D18*
X147000000Y-120040000D03*
X147000000Y-122580000D03*
D36*
X106738000Y-105400000D03*
X108262000Y-105400000D03*
D37*
X112700000Y-113200000D03*
X109600000Y-115900000D03*
X109300000Y-118700000D03*
X115100000Y-89350000D03*
X168400000Y-95350000D03*
X161600000Y-101750000D03*
X168700000Y-109900000D03*
X152400000Y-96800000D03*
X126000000Y-95900000D03*
X112500000Y-118600000D03*
X116600000Y-111200000D03*
X111000000Y-113100000D03*
X108800000Y-96600000D03*
X113600000Y-102000000D03*
X117348000Y-99822000D03*
X115824000Y-93345000D03*
X111785400Y-97205800D03*
X111938000Y-84233000D03*
X129718000Y-84741000D03*
X124300000Y-97400000D03*
X118650000Y-101200000D03*
X156400000Y-119750000D03*
X158250000Y-115850000D03*
X150750000Y-117450000D03*
X153450000Y-112750000D03*
X154750000Y-112750000D03*
X154750000Y-115500000D03*
X148800000Y-104000000D03*
X148800000Y-105300000D03*
X157400000Y-116550000D03*
X152200000Y-112750000D03*
X128700000Y-88100000D03*
X128650000Y-90600000D03*
X159800000Y-112750000D03*
X146400000Y-91900000D03*
X157277000Y-92297500D03*
X154750000Y-92250000D03*
X145000000Y-95850000D03*
X145000000Y-104000000D03*
X145000000Y-112150000D03*
X128900000Y-113250000D03*
X151150000Y-112850000D03*
X158550000Y-112750000D03*
X156000000Y-116150000D03*
X156000000Y-112750000D03*
X153461280Y-92261280D03*
X149450000Y-106950000D03*
X142400000Y-93500000D03*
X142400000Y-95300000D03*
X142350000Y-103200000D03*
X119367500Y-87598500D03*
X119431000Y-94012000D03*
X110200000Y-106400000D03*
X110200000Y-104400000D03*
X111100000Y-104400000D03*
X111100000Y-106400000D03*
X110500000Y-117200000D03*
X110500000Y-118900000D03*
X141500000Y-112150000D03*
X166167000Y-87217500D03*
X166167000Y-92297500D03*
X126150000Y-85850000D03*
X115189000Y-95377000D03*
X117830600Y-88290400D03*
X118719800Y-88271600D03*
X118694200Y-94665800D03*
X144450000Y-119600000D03*
X108200000Y-103200000D03*
X124800000Y-98800000D03*
D38*
X114284778Y-100000000D02*
X112600000Y-101684778D01*
X112600000Y-101684778D02*
X112600000Y-104600000D01*
D39*
X112600000Y-104600000D02*
X111800000Y-105400000D01*
X115400000Y-100000000D02*
X114284778Y-100000000D01*
X114706000Y-115792000D02*
X114706000Y-117606000D01*
X115200000Y-118100000D02*
X116950000Y-118100000D01*
X114706000Y-117606000D02*
X115200000Y-118100000D01*
X113150000Y-107400000D02*
X113150000Y-109250000D01*
X113150000Y-109250000D02*
X112700000Y-109700000D01*
X112700000Y-109700000D02*
X112700000Y-113200000D01*
X111000000Y-115850000D02*
X109650000Y-115850000D01*
X109650000Y-115850000D02*
X109600000Y-115900000D01*
D40*
X109900000Y-119300000D02*
X109900000Y-120350000D01*
X109300000Y-118700000D02*
X109900000Y-119300000D01*
D39*
X112600000Y-115850000D02*
X114648000Y-115850000D01*
D38*
X114648000Y-115850000D02*
X114706000Y-115792000D01*
D39*
X111000000Y-115850000D02*
X112600000Y-115850000D01*
X113150000Y-107400000D02*
X113150000Y-106750000D01*
X113150000Y-106750000D02*
X111800000Y-105400000D01*
X115846160Y-98572320D02*
X115846160Y-99553840D01*
X115846160Y-99553840D02*
X115400000Y-100000000D01*
X111800000Y-105400000D02*
X108262000Y-105400000D01*
D40*
X115859560Y-96565720D02*
X115859560Y-98558920D01*
D41*
X114564000Y-115650000D02*
X114706000Y-115792000D01*
D38*
X114564000Y-115650000D02*
X114706000Y-115792000D01*
X116293200Y-89408000D02*
X115158000Y-89408000D01*
X115158000Y-89408000D02*
X115100000Y-89350000D01*
D39*
X168698740Y-93500780D02*
X168698740Y-95051260D01*
X168698740Y-95051260D02*
X168400000Y-95350000D01*
D38*
X161600000Y-101750000D02*
X161500000Y-101850000D01*
X161500000Y-101850000D02*
X161500000Y-101865000D01*
X168698740Y-111499220D02*
X168698740Y-109901260D01*
X168698740Y-109901260D02*
X168700000Y-109900000D01*
X150700300Y-96785000D02*
X152385000Y-96785000D01*
X152385000Y-96785000D02*
X152400000Y-96800000D01*
X168650000Y-91700000D02*
X168650000Y-90050000D01*
X168650000Y-90050000D02*
X168600000Y-90000000D01*
X168698740Y-93500780D02*
X168698740Y-91748740D01*
X168698740Y-91748740D02*
X168650000Y-91700000D01*
D42*
X168698740Y-111499220D02*
X168698740Y-115891260D01*
X168698740Y-115891260D02*
X166590000Y-118000000D01*
D39*
X114750000Y-123000000D02*
X114700000Y-123050000D01*
D40*
X112500000Y-120350000D02*
X112500000Y-118600000D01*
D39*
X116592000Y-111192000D02*
X116600000Y-111200000D01*
X114706000Y-111192000D02*
X116592000Y-111192000D01*
D38*
X111000000Y-113100000D02*
X111000000Y-114350000D01*
X114706000Y-111192000D02*
X114408000Y-111192000D01*
X112600000Y-114350000D02*
X111000000Y-114350000D01*
X114650000Y-107400000D02*
X114650000Y-111136000D01*
X114650000Y-111136000D02*
X114706000Y-111192000D01*
X114650000Y-106000000D02*
X114650000Y-107400000D01*
D39*
X136020000Y-98580000D02*
X136020000Y-96420000D01*
X135500000Y-95900000D02*
X126000000Y-95900000D01*
X136020000Y-96420000D02*
X135500000Y-95900000D01*
D38*
X126000000Y-97250000D02*
X126000000Y-95900000D01*
D39*
X138560000Y-98580000D02*
X138220000Y-98580000D01*
X138220000Y-98580000D02*
X137700000Y-99100000D01*
X137700000Y-105340000D02*
X138560000Y-106200000D01*
X137700000Y-99100000D02*
X137700000Y-105340000D01*
X136020000Y-98580000D02*
X136180000Y-98580000D01*
X136180000Y-98580000D02*
X136800000Y-99200000D01*
X136800000Y-105420000D02*
X136020000Y-106200000D01*
X136800000Y-99200000D02*
X136800000Y-105420000D01*
X136020000Y-98580000D02*
X138560000Y-98580000D01*
X138560000Y-106200000D02*
X136020000Y-106200000D01*
X138560000Y-98580000D02*
X138560000Y-106200000D01*
X136020000Y-98580000D02*
X136020000Y-106200000D01*
D38*
X108864400Y-97903600D02*
X108864400Y-96664400D01*
X108864400Y-96664400D02*
X108800000Y-96600000D01*
X104064000Y-101251000D02*
X106699000Y-101251000D01*
X106699000Y-101251000D02*
X106800000Y-101150000D01*
X114650000Y-101300000D02*
X114300000Y-101300000D01*
X114300000Y-101300000D02*
X113600000Y-102000000D01*
X114650000Y-104500000D02*
X114650000Y-106000000D01*
X114650000Y-102900000D02*
X114650000Y-104500000D01*
X114650000Y-101300000D02*
X114650000Y-102900000D01*
D39*
X117346160Y-99820160D02*
X117346160Y-98572320D01*
X117348000Y-99822000D02*
X117346160Y-99820160D01*
D40*
X116519960Y-96565720D02*
X116519960Y-94040960D01*
X116519960Y-94040960D02*
X115824000Y-93345000D01*
X115859560Y-91231720D02*
X115859560Y-93309440D01*
X115859560Y-93309440D02*
X115824000Y-93345000D01*
D41*
X168735000Y-93464520D02*
X168698740Y-93500780D01*
D40*
X115859560Y-91231720D02*
X115859560Y-89841640D01*
X115859560Y-89841640D02*
X116293200Y-89408000D01*
X110439200Y-97167000D02*
X111746600Y-97167000D01*
X111746600Y-97167000D02*
X111785400Y-97205800D01*
X108864400Y-97903600D02*
X108864400Y-97637600D01*
X108864400Y-97637600D02*
X109335000Y-97167000D01*
X109335000Y-97167000D02*
X110439200Y-97167000D01*
X116519960Y-96565720D02*
X116519960Y-97368360D01*
X117346160Y-98194560D02*
X117346160Y-98572320D01*
X116519960Y-97368360D02*
X117346160Y-98194560D01*
D39*
X150000000Y-85000000D02*
X150678000Y-85000000D01*
X165397000Y-88297000D02*
X167100000Y-90000000D01*
X153975000Y-88297000D02*
X165397000Y-88297000D01*
X150678000Y-85000000D02*
X153975000Y-88297000D01*
X135000000Y-85000000D02*
X131750000Y-85000000D01*
X131750000Y-85000000D02*
X131500000Y-84750000D01*
X142500000Y-85000000D02*
X139250000Y-85000000D01*
X139250000Y-85000000D02*
X139000000Y-84750000D01*
X150000000Y-85000000D02*
X146750000Y-85000000D01*
X146750000Y-85000000D02*
X146500000Y-84750000D01*
D40*
X131500000Y-84750000D02*
X129727000Y-84750000D01*
X112160500Y-84010500D02*
X113200000Y-84010500D01*
X111938000Y-84233000D02*
X112160500Y-84010500D01*
X129727000Y-84750000D02*
X129718000Y-84741000D01*
D39*
X131500000Y-120250000D02*
X127750000Y-120250000D01*
X127750000Y-120250000D02*
X127500000Y-120000000D01*
D38*
X167150000Y-91700000D02*
X167150000Y-90050000D01*
X167150000Y-90050000D02*
X167100000Y-90000000D01*
X167428740Y-93500780D02*
X167428740Y-91978740D01*
X167428740Y-91978740D02*
X167150000Y-91700000D01*
D39*
X126019000Y-89572000D02*
X126019000Y-94131000D01*
X126019000Y-94131000D02*
X124300000Y-95850000D01*
X124300000Y-95850000D02*
X124300000Y-97400000D01*
X118650000Y-101200000D02*
X118550000Y-101300000D01*
X118550000Y-101300000D02*
X116150000Y-101300000D01*
D40*
X131500000Y-120250000D02*
X131500000Y-118350000D01*
X131500000Y-118350000D02*
X131700000Y-118150000D01*
X124000000Y-120250000D02*
X124000000Y-117350000D01*
X121400000Y-117550000D02*
X122700000Y-117550000D01*
X122500000Y-117500000D02*
X122700000Y-117500000D01*
X122650000Y-117500000D02*
X122500000Y-117500000D01*
X122700000Y-117550000D02*
X122650000Y-117500000D01*
D39*
X139000000Y-120750000D02*
X140790000Y-120750000D01*
X140790000Y-120750000D02*
X141500000Y-120040000D01*
X135000000Y-120000000D02*
X138250000Y-120000000D01*
X138250000Y-120000000D02*
X139000000Y-120750000D01*
X131500000Y-120250000D02*
X134750000Y-120250000D01*
X134750000Y-120250000D02*
X135000000Y-120000000D01*
X124000000Y-120250000D02*
X127250000Y-120250000D01*
X127250000Y-120250000D02*
X127500000Y-120000000D01*
X116150000Y-101300000D02*
X116500000Y-101300000D01*
X116500000Y-101300000D02*
X117300000Y-102100000D01*
X123350000Y-120250000D02*
X124000000Y-120250000D01*
X122700000Y-119600000D02*
X123350000Y-120250000D01*
X122700000Y-110000000D02*
X122700000Y-117500000D01*
X122700000Y-117500000D02*
X122700000Y-119600000D01*
X120500000Y-107800000D02*
X122700000Y-110000000D01*
X118500000Y-107800000D02*
X120500000Y-107800000D01*
X117300000Y-106600000D02*
X118500000Y-107800000D01*
X117300000Y-102100000D02*
X117300000Y-106600000D01*
X119050000Y-118100000D02*
X119050000Y-116150000D01*
X119050000Y-116150000D02*
X121006000Y-114194000D01*
X121006000Y-114194000D02*
X121006000Y-113492000D01*
X142500000Y-85000000D02*
X146250000Y-85000000D01*
X135000000Y-85000000D02*
X138750000Y-85000000D01*
X138750000Y-85000000D02*
X139000000Y-84750000D01*
X127670000Y-89572000D02*
X129328000Y-89572000D01*
X131500000Y-87400000D02*
X131500000Y-84750000D01*
X129328000Y-89572000D02*
X131500000Y-87400000D01*
X116150000Y-102900000D02*
X116150000Y-101300000D01*
X116150000Y-104500000D02*
X116150000Y-102900000D01*
X116150000Y-106000000D02*
X116150000Y-104500000D01*
X121006000Y-113492000D02*
X121006000Y-110006000D01*
X116150000Y-107150000D02*
X116150000Y-106000000D01*
X118000000Y-109000000D02*
X116150000Y-107150000D01*
X120000000Y-109000000D02*
X118000000Y-109000000D01*
X121006000Y-110006000D02*
X120000000Y-109000000D01*
X114706000Y-113492000D02*
X116459000Y-113492000D01*
X113200000Y-84010500D02*
X113200000Y-86487000D01*
X113200000Y-86487000D02*
X113250800Y-86537800D01*
D38*
X114706000Y-113492000D02*
X116078000Y-113492000D01*
X116586000Y-114000000D02*
X120498000Y-114000000D01*
X116078000Y-113492000D02*
X116586000Y-114000000D01*
X120498000Y-114000000D02*
X121006000Y-113492000D01*
X114706000Y-113492000D02*
X115570000Y-113492000D01*
X115570000Y-113492000D02*
X116459000Y-114381000D01*
X116459000Y-114381000D02*
X120117000Y-114381000D01*
X120117000Y-114381000D02*
X121006000Y-113492000D01*
X116967000Y-112984000D02*
X120498000Y-112984000D01*
X116459000Y-113492000D02*
X116967000Y-112984000D01*
X120498000Y-112984000D02*
X121006000Y-113492000D01*
X114706000Y-113492000D02*
X115697000Y-113492000D01*
X115697000Y-113492000D02*
X116586000Y-112603000D01*
X116586000Y-112603000D02*
X120117000Y-112603000D01*
X120117000Y-112603000D02*
X121006000Y-113492000D01*
X127670000Y-89572000D02*
X126019000Y-89572000D01*
D39*
X114706000Y-113492000D02*
X121006000Y-113492000D01*
D42*
X128650000Y-114850000D02*
X165000000Y-114850000D01*
X127500000Y-116000000D02*
X128650000Y-114850000D01*
X166158740Y-113691260D02*
X166158740Y-111499220D01*
X165000000Y-114850000D02*
X166158740Y-113691260D01*
D40*
X124000000Y-115850000D02*
X127350000Y-115850000D01*
X127350000Y-115850000D02*
X127500000Y-116000000D01*
D42*
X167428740Y-111499220D02*
X167428740Y-113771260D01*
X156400000Y-119750000D02*
X155650000Y-119000000D01*
X165350000Y-115850000D02*
X158250000Y-115850000D01*
X167428740Y-113771260D02*
X165350000Y-115850000D01*
X155650000Y-119000000D02*
X155300000Y-119000000D01*
X153461280Y-111499220D02*
X153461280Y-112738720D01*
X150750000Y-117450000D02*
X149800000Y-117450000D01*
X153461280Y-112738720D02*
X153450000Y-112750000D01*
X135700000Y-115300000D02*
X135000000Y-116000000D01*
X154550000Y-115300000D02*
X135700000Y-115300000D01*
X154750000Y-115500000D02*
X154550000Y-115300000D01*
X154731280Y-111499220D02*
X154731280Y-112731280D01*
X128670800Y-84088200D02*
X128670800Y-84829200D01*
X124200000Y-87777000D02*
X124483000Y-88060000D01*
X124200000Y-85100000D02*
X124200000Y-87777000D01*
X124300000Y-85000000D02*
X124200000Y-85100000D01*
X128500000Y-85000000D02*
X124300000Y-85000000D01*
X128670800Y-84829200D02*
X128500000Y-85000000D01*
X124556000Y-88133000D02*
X124483000Y-88060000D01*
X152191280Y-111499220D02*
X149599220Y-111499220D01*
X128650000Y-94200000D02*
X128650000Y-90600000D01*
X129100000Y-94650000D02*
X128650000Y-94200000D01*
X148350000Y-94650000D02*
X129100000Y-94650000D01*
X148800000Y-95100000D02*
X148350000Y-94650000D01*
X148800000Y-104000000D02*
X148800000Y-95100000D01*
X148800000Y-110700000D02*
X148800000Y-105300000D01*
X149599220Y-111499220D02*
X148800000Y-110700000D01*
X157410000Y-116560000D02*
X157400000Y-116550000D01*
X157410000Y-116560000D02*
X157410000Y-118000000D01*
X152191280Y-112741280D02*
X152191280Y-111499220D01*
X127670000Y-88072000D02*
X128672000Y-88072000D01*
X128672000Y-88072000D02*
X128700000Y-88100000D01*
X127720800Y-86088200D02*
X127720800Y-88021200D01*
X127720800Y-88021200D02*
X127670000Y-88072000D01*
X127686000Y-88056000D02*
X127670000Y-88072000D01*
X122983000Y-83361000D02*
X122983000Y-84820000D01*
X122983000Y-84820000D02*
X122987000Y-84824000D01*
X159811280Y-111499220D02*
X159811280Y-112738720D01*
X159811280Y-112738720D02*
X159800000Y-112750000D01*
X143750000Y-89500000D02*
X143750000Y-89819500D01*
X159811280Y-92211280D02*
X157800000Y-90200000D01*
X157800000Y-90200000D02*
X144450000Y-90200000D01*
X143750000Y-89500000D02*
X143750000Y-88250000D01*
X142500000Y-87000000D02*
X143750000Y-88250000D01*
X159811280Y-92211280D02*
X159811280Y-93500780D01*
X144130500Y-90200000D02*
X144450000Y-90200000D01*
X143750000Y-89819500D02*
X144130500Y-90200000D01*
X158541280Y-93500780D02*
X158541280Y-92041280D01*
X142500000Y-90300000D02*
X142500000Y-89000000D01*
X142900000Y-90700000D02*
X142500000Y-90300000D01*
X157200000Y-90700000D02*
X142900000Y-90700000D01*
X158541280Y-92041280D02*
X157200000Y-90700000D01*
X150000000Y-87000000D02*
X151247002Y-87000000D01*
X162348740Y-92225740D02*
X162348740Y-93500780D01*
X159309000Y-89186000D02*
X162348740Y-92225740D01*
X153433002Y-89186000D02*
X159309000Y-89186000D01*
X151247002Y-87000000D02*
X153433002Y-89186000D01*
X161078740Y-93500780D02*
X161078740Y-92378740D01*
X158350000Y-89650000D02*
X150650000Y-89650000D01*
X161078740Y-92378740D02*
X158350000Y-89650000D01*
X150650000Y-89650000D02*
X150000000Y-89000000D01*
X157271280Y-93500780D02*
X157271280Y-92303220D01*
X135550000Y-91900000D02*
X146400000Y-91900000D01*
X135000000Y-91350000D02*
X135550000Y-91900000D01*
X135000000Y-91350000D02*
X135000000Y-89000000D01*
X157271280Y-92303220D02*
X157277000Y-92297500D01*
X136350000Y-89694000D02*
X136350000Y-90547500D01*
X156001280Y-92251280D02*
X154950000Y-91200000D01*
X154950000Y-91200000D02*
X137850000Y-91200000D01*
X156001280Y-92251280D02*
X156001280Y-93500780D01*
X137002500Y-91200000D02*
X137850000Y-91200000D01*
X136350000Y-90547500D02*
X137002500Y-91200000D01*
X135850000Y-87000000D02*
X135000000Y-87000000D01*
X136350000Y-87500000D02*
X135850000Y-87000000D01*
X136350000Y-89700000D02*
X136350000Y-89694000D01*
X136350000Y-89694000D02*
X136350000Y-87500000D01*
X154731280Y-92268720D02*
X154750000Y-92250000D01*
X145000000Y-103900000D02*
X145000000Y-95850000D01*
X154731280Y-92268720D02*
X154731280Y-93500780D01*
X143750000Y-112150000D02*
X145000000Y-112150000D01*
X145000000Y-104000000D02*
X145000000Y-103900000D01*
X145000000Y-103950000D02*
X145000000Y-103900000D01*
X162348740Y-111499220D02*
X162348740Y-113021258D01*
X129119998Y-113469998D02*
X128900000Y-113250000D01*
X161900000Y-113469998D02*
X129119998Y-113469998D01*
X162348740Y-113021258D02*
X161900000Y-113469998D01*
D40*
X131700000Y-116650000D02*
X130350000Y-116650000D01*
X129000000Y-118000000D02*
X127500000Y-118000000D01*
X130350000Y-116650000D02*
X129000000Y-118000000D01*
D42*
X158541280Y-111499220D02*
X158541280Y-112741280D01*
X128400000Y-111600000D02*
X128400000Y-106200000D01*
X129800000Y-113000000D02*
X128400000Y-111600000D01*
X151000000Y-113000000D02*
X129800000Y-113000000D01*
X151150000Y-112850000D02*
X151000000Y-113000000D01*
X158541280Y-112741280D02*
X158550000Y-112750000D01*
X153950000Y-115750000D02*
X137250000Y-115750000D01*
X156000000Y-116150000D02*
X154350000Y-116150000D01*
X154350000Y-116150000D02*
X153950000Y-115750000D01*
X156001280Y-111499220D02*
X156001280Y-112748720D01*
X156001280Y-112748720D02*
X156000000Y-112750000D01*
X137250000Y-115750000D02*
X135000000Y-118000000D01*
X153461280Y-93500780D02*
X153461280Y-92261280D01*
X150700300Y-106945000D02*
X149455000Y-106945000D01*
X149455000Y-106945000D02*
X149450000Y-106950000D01*
X150700300Y-98055000D02*
X149995000Y-98055000D01*
X149995000Y-98055000D02*
X149600000Y-98450000D01*
X145190000Y-104650000D02*
X143640000Y-106200000D01*
X149200000Y-104650000D02*
X145190000Y-104650000D01*
X149600000Y-104250000D02*
X149200000Y-104650000D01*
X149600000Y-98450000D02*
X149600000Y-104250000D01*
X142400780Y-93500780D02*
X152191280Y-93500780D01*
X142400000Y-93500000D02*
X142400780Y-93500780D01*
X142400000Y-103150000D02*
X142400000Y-95300000D01*
X142350000Y-103200000D02*
X142400000Y-103150000D01*
X131100000Y-106040000D02*
X130940000Y-106200000D01*
X118529800Y-87249000D02*
X119018000Y-87249000D01*
X119800000Y-105700000D02*
X119800000Y-94400000D01*
X123650000Y-109550000D02*
X119800000Y-105700000D01*
X123650000Y-113800000D02*
X123650000Y-109550000D01*
X124250000Y-114400000D02*
X123650000Y-113800000D01*
X164050000Y-114400000D02*
X124250000Y-114400000D01*
X164888740Y-113561260D02*
X164050000Y-114400000D01*
X164888740Y-113561260D02*
X164888740Y-111499220D01*
X119800000Y-94381000D02*
X119431000Y-94012000D01*
X119800000Y-94400000D02*
X119800000Y-94381000D01*
X119018000Y-87249000D02*
X119367500Y-87598500D01*
X163618740Y-111499220D02*
X163618740Y-113568740D01*
X120612600Y-105904486D02*
X120612600Y-98094800D01*
X124080002Y-109371888D02*
X120612600Y-105904486D01*
X124080002Y-113400000D02*
X124080002Y-109371888D01*
X124580002Y-113900000D02*
X124080002Y-113400000D01*
X163287480Y-113900000D02*
X124580002Y-113900000D01*
X163618740Y-113568740D02*
X163287480Y-113900000D01*
D40*
X110375000Y-100330000D02*
X110375000Y-104225000D01*
X111200000Y-118600000D02*
X111200000Y-120350000D01*
X110600000Y-118000000D02*
X111200000Y-118600000D01*
X108000000Y-118000000D02*
X110600000Y-118000000D01*
X106800000Y-116800000D02*
X108000000Y-118000000D01*
X106800000Y-108200000D02*
X106800000Y-116800000D01*
X107400000Y-107600000D02*
X106800000Y-108200000D01*
X109000000Y-107600000D02*
X107400000Y-107600000D01*
X110200000Y-106400000D02*
X109000000Y-107600000D01*
X110375000Y-104225000D02*
X110200000Y-104400000D01*
D42*
X108864400Y-99403600D02*
X108864400Y-99974400D01*
X109220000Y-100330000D02*
X110375000Y-100330000D01*
X108864400Y-99974400D02*
X109220000Y-100330000D01*
X108774800Y-99314000D02*
X108864400Y-99403600D01*
D40*
X110439200Y-98667000D02*
X110439200Y-99139200D01*
X110439200Y-99139200D02*
X111100000Y-99800000D01*
X111100000Y-99800000D02*
X111100000Y-104400000D01*
X111100000Y-106400000D02*
X111100000Y-107200000D01*
X111100000Y-107200000D02*
X110100000Y-108200000D01*
X110100000Y-108200000D02*
X107680002Y-108200000D01*
X107680002Y-108200000D02*
X107400000Y-108480002D01*
X107400000Y-108480002D02*
X107400000Y-116400000D01*
X107400000Y-116400000D02*
X108200000Y-117200000D01*
X108200000Y-117200000D02*
X110500000Y-117200000D01*
X110500000Y-118900000D02*
X110550000Y-118950000D01*
X110550000Y-118950000D02*
X110550000Y-120350000D01*
D42*
X110439200Y-98667000D02*
X112369600Y-98667000D01*
X112369600Y-98667000D02*
X112407000Y-98704400D01*
X110436200Y-98664000D02*
X110439200Y-98667000D01*
X141500000Y-112150000D02*
X142250000Y-112150000D01*
D40*
X152500000Y-117500000D02*
X155300000Y-117500000D01*
D39*
X121400000Y-119050000D02*
X121400000Y-120800000D01*
D42*
X156642000Y-87217500D02*
X155424500Y-86000000D01*
X166167000Y-87217500D02*
X156642000Y-87217500D01*
X155424500Y-86000000D02*
X154910000Y-86000000D01*
X166158740Y-92305760D02*
X166167000Y-92297500D01*
X166158740Y-92305760D02*
X166158740Y-93500780D01*
X124987000Y-85774000D02*
X126074000Y-85774000D01*
X126150000Y-85850000D02*
X126074000Y-85774000D01*
X154910000Y-86000000D02*
X154910000Y-83190000D01*
X154910000Y-83190000D02*
X154950000Y-83150000D01*
X124987000Y-85774000D02*
X125341600Y-85774000D01*
X124987000Y-85774000D02*
X124987000Y-86473500D01*
X126019000Y-87505500D02*
X126019000Y-88072000D01*
X124987000Y-86473500D02*
X126019000Y-87505500D01*
X125003000Y-85758000D02*
X124987000Y-85774000D01*
D40*
X115199160Y-96565720D02*
X115199160Y-95387160D01*
X115199160Y-95387160D02*
X115189000Y-95377000D01*
X117793200Y-89408000D02*
X117793200Y-91209560D01*
X117793200Y-91209560D02*
X117815360Y-91231720D01*
X117830600Y-89370600D02*
X117830600Y-88290400D01*
X117830600Y-89370600D02*
X117793200Y-89408000D01*
X114564160Y-96565720D02*
X115199160Y-96565720D01*
D41*
X115400000Y-84010500D02*
X117169500Y-84010500D01*
D40*
X115450800Y-86537800D02*
X115450800Y-87774600D01*
X115126200Y-88099200D02*
X113258600Y-88099200D01*
X115450800Y-87774600D02*
X115126200Y-88099200D01*
D42*
X124483000Y-83361000D02*
X124189000Y-83361000D01*
X119110760Y-89989240D02*
X119110760Y-91231720D01*
X119750000Y-89350000D02*
X119110760Y-89989240D01*
X123050000Y-89350000D02*
X119750000Y-89350000D01*
X123750000Y-88650000D02*
X123050000Y-89350000D01*
X123750000Y-83800000D02*
X123750000Y-88650000D01*
X124189000Y-83361000D02*
X123750000Y-83800000D01*
X124483000Y-83361000D02*
X126043600Y-83361000D01*
X126043600Y-83361000D02*
X126770800Y-84088200D01*
X124483000Y-83361000D02*
X124483000Y-83222000D01*
X124352000Y-83492000D02*
X124483000Y-83361000D01*
X122983000Y-88060000D02*
X122983000Y-88336998D01*
X122983000Y-88336998D02*
X122419998Y-88900000D01*
X118475760Y-89974240D02*
X118475760Y-91231720D01*
X119550000Y-88900000D02*
X118475760Y-89974240D01*
X122419998Y-88900000D02*
X119550000Y-88900000D01*
X122987000Y-86724000D02*
X122854200Y-86724000D01*
X122987000Y-86724000D02*
X122987000Y-88056000D01*
X122987000Y-88056000D02*
X122983000Y-88060000D01*
X122983000Y-88060000D02*
X122983000Y-87667000D01*
X119110760Y-96565720D02*
X119110760Y-98092960D01*
X119110760Y-98092960D02*
X119112600Y-98094800D01*
X117154960Y-91231720D02*
X117154960Y-90230960D01*
X117029800Y-90105800D02*
X117029800Y-87249000D01*
X117154960Y-90230960D02*
X117029800Y-90105800D01*
X117029800Y-91106560D02*
X117154960Y-91231720D01*
X113903760Y-96565720D02*
X113903760Y-98701160D01*
X113903760Y-98701160D02*
X113907000Y-98704400D01*
X111875000Y-100330000D02*
X112776000Y-100330000D01*
X113268760Y-99837240D02*
X113268760Y-96565720D01*
X112776000Y-100330000D02*
X113268760Y-99837240D01*
X118719800Y-88271600D02*
X119583400Y-88271600D01*
X119399000Y-84010500D02*
X118669500Y-84010500D01*
X120066000Y-84677500D02*
X119399000Y-84010500D01*
X120066000Y-87789000D02*
X120066000Y-84677500D01*
X119583400Y-88271600D02*
X120066000Y-87789000D01*
D40*
X117154960Y-95519240D02*
X118008400Y-94665800D01*
X118008400Y-94665800D02*
X118694200Y-94665800D01*
X117154960Y-95519240D02*
X117154960Y-96565720D01*
X113268760Y-91231720D02*
X113268760Y-89609360D01*
X113268760Y-89609360D02*
X113258600Y-89599200D01*
D42*
X149800000Y-118950000D02*
X148450000Y-118950000D01*
X148450000Y-118950000D02*
X147000000Y-117500000D01*
D39*
X150000000Y-120750000D02*
X151790000Y-120750000D01*
X151790000Y-120750000D02*
X152500000Y-120040000D01*
X150000000Y-120750000D02*
X147710000Y-120750000D01*
X147710000Y-120750000D02*
X147000000Y-120040000D01*
X106800000Y-103250000D02*
X106800000Y-105338000D01*
X106800000Y-105338000D02*
X106738000Y-105400000D01*
X144500000Y-119650000D02*
X144500000Y-120750000D01*
X144450000Y-119600000D02*
X144500000Y-119650000D01*
D38*
X144500000Y-120750000D02*
X146290000Y-120750000D01*
X146290000Y-120750000D02*
X147000000Y-120040000D01*
D39*
X126000000Y-98750000D02*
X124850000Y-98750000D01*
X108150000Y-103250000D02*
X106800000Y-103250000D01*
X108200000Y-103200000D02*
X108150000Y-103250000D01*
X124850000Y-98750000D02*
X124800000Y-98800000D01*
X128400000Y-98580000D02*
X126170000Y-98580000D01*
X106750000Y-103250000D02*
X106209000Y-103791000D01*
X106209000Y-103791000D02*
X104064000Y-103791000D01*
D43*
G36*
X165606364Y-81232321D02*
X165265389Y-82053481D01*
X165264613Y-82942619D01*
X165604155Y-83764372D01*
X166232321Y-84393636D01*
X167053481Y-84734611D01*
X167942619Y-84735387D01*
X168764372Y-84395845D01*
X169290000Y-83871134D01*
X169290000Y-89057803D01*
X169126309Y-88990000D01*
X168885750Y-88990000D01*
X168727000Y-89148750D01*
X168727000Y-89873000D01*
X168747000Y-89873000D01*
X168747000Y-90127000D01*
X168727000Y-90127000D01*
X168727000Y-90851250D01*
X168777000Y-90901250D01*
X168777000Y-91573000D01*
X168797000Y-91573000D01*
X168797000Y-91827000D01*
X168777000Y-91827000D01*
X168777000Y-92551250D01*
X168825740Y-92599990D01*
X168825740Y-93373780D01*
X168845740Y-93373780D01*
X168845740Y-93627780D01*
X168825740Y-93627780D01*
X168825740Y-94726330D01*
X168984490Y-94885080D01*
X169274629Y-94885080D01*
X169290000Y-94878713D01*
X169290000Y-110121287D01*
X169274629Y-110114920D01*
X168984490Y-110114920D01*
X168825740Y-110273670D01*
X168825740Y-111372220D01*
X168845740Y-111372220D01*
X168845740Y-111626220D01*
X168825740Y-111626220D01*
X168825740Y-112724770D01*
X168984490Y-112883520D01*
X169274629Y-112883520D01*
X169290000Y-112877153D01*
X169290000Y-121129598D01*
X168767679Y-120606364D01*
X167946519Y-120265389D01*
X167057381Y-120264613D01*
X166235628Y-120604155D01*
X165606364Y-121232321D01*
X165265389Y-122053481D01*
X165264613Y-122942619D01*
X165604155Y-123764372D01*
X166128866Y-124290000D01*
X115264840Y-124290000D01*
X115412763Y-124217368D01*
X115700002Y-123876678D01*
X115835000Y-123452000D01*
X115835000Y-123285750D01*
X120165000Y-123285750D01*
X120165000Y-123726309D01*
X120261673Y-123959698D01*
X120440301Y-124138327D01*
X120673690Y-124235000D01*
X121114250Y-124235000D01*
X121273000Y-124076250D01*
X121273000Y-123127000D01*
X121527000Y-123127000D01*
X121527000Y-124076250D01*
X121685750Y-124235000D01*
X122126310Y-124235000D01*
X122359699Y-124138327D01*
X122538327Y-123959698D01*
X122635000Y-123726309D01*
X122635000Y-123285750D01*
X122476250Y-123127000D01*
X121527000Y-123127000D01*
X121273000Y-123127000D01*
X120323750Y-123127000D01*
X120165000Y-123285750D01*
X115835000Y-123285750D01*
X115835000Y-123177000D01*
X114827000Y-123177000D01*
X114827000Y-123197000D01*
X114573000Y-123197000D01*
X114573000Y-123177000D01*
X113565000Y-123177000D01*
X113565000Y-123452000D01*
X113699998Y-123876678D01*
X113987237Y-124217368D01*
X114135160Y-124290000D01*
X108264840Y-124290000D01*
X108412763Y-124217368D01*
X108700002Y-123876678D01*
X108835000Y-123452000D01*
X108835000Y-123177000D01*
X107827000Y-123177000D01*
X107827000Y-123197000D01*
X107573000Y-123197000D01*
X107573000Y-123177000D01*
X106565000Y-123177000D01*
X106565000Y-123452000D01*
X106699998Y-123876678D01*
X106987237Y-124217368D01*
X107135160Y-124290000D01*
X103870402Y-124290000D01*
X104393636Y-123767679D01*
X104734611Y-122946519D01*
X104734871Y-122648000D01*
X106565000Y-122648000D01*
X106565000Y-122923000D01*
X107573000Y-122923000D01*
X107573000Y-121807046D01*
X107827000Y-121807046D01*
X107827000Y-122923000D01*
X108835000Y-122923000D01*
X108835000Y-122648000D01*
X113565000Y-122648000D01*
X113565000Y-122923000D01*
X114573000Y-122923000D01*
X114573000Y-121807046D01*
X114827000Y-121807046D01*
X114827000Y-122923000D01*
X115835000Y-122923000D01*
X115835000Y-122917147D01*
X126762458Y-122917147D01*
X126821219Y-123150328D01*
X127313100Y-123322522D01*
X127833434Y-123293375D01*
X128178781Y-123150328D01*
X128237542Y-122917147D01*
X134262458Y-122917147D01*
X134321219Y-123150328D01*
X134813100Y-123322522D01*
X135333434Y-123293375D01*
X135678781Y-123150328D01*
X135737542Y-122917147D01*
X135000000Y-122179605D01*
X134262458Y-122917147D01*
X128237542Y-122917147D01*
X127500000Y-122179605D01*
X126762458Y-122917147D01*
X115835000Y-122917147D01*
X115835000Y-122648000D01*
X115700002Y-122223322D01*
X115412763Y-121882632D01*
X115001874Y-121680881D01*
X114827000Y-121807046D01*
X114573000Y-121807046D01*
X114398126Y-121680881D01*
X113987237Y-121882632D01*
X113699998Y-122223322D01*
X113565000Y-122648000D01*
X108835000Y-122648000D01*
X108700002Y-122223322D01*
X108412763Y-121882632D01*
X108001874Y-121680881D01*
X107827000Y-121807046D01*
X107573000Y-121807046D01*
X107398126Y-121680881D01*
X106987237Y-121882632D01*
X106699998Y-122223322D01*
X106565000Y-122648000D01*
X104734871Y-122648000D01*
X104735387Y-122057381D01*
X104395845Y-121235628D01*
X103809181Y-120647938D01*
X107480732Y-120647938D01*
X107664448Y-121021821D01*
X107988951Y-121309568D01*
X108398869Y-121451229D01*
X108573000Y-121302563D01*
X108573000Y-120477000D01*
X107607266Y-120477000D01*
X107480732Y-120647938D01*
X103809181Y-120647938D01*
X103767679Y-120606364D01*
X102946519Y-120265389D01*
X102057381Y-120264613D01*
X101235628Y-120604155D01*
X100710000Y-121128866D01*
X100710000Y-112650000D01*
X102502560Y-112650000D01*
X102502560Y-114350000D01*
X102546838Y-114585317D01*
X102685910Y-114801441D01*
X102898110Y-114946431D01*
X103150000Y-114997440D01*
X104850000Y-114997440D01*
X105085317Y-114953162D01*
X105301441Y-114814090D01*
X105446431Y-114601890D01*
X105497440Y-114350000D01*
X105497440Y-112650000D01*
X105453162Y-112414683D01*
X105314090Y-112198559D01*
X105101890Y-112053569D01*
X104850000Y-112002560D01*
X103150000Y-112002560D01*
X102914683Y-112046838D01*
X102698559Y-112185910D01*
X102553569Y-112398110D01*
X102502560Y-112650000D01*
X100710000Y-112650000D01*
X100710000Y-110000000D01*
X102485907Y-110000000D01*
X102598946Y-110568285D01*
X102920853Y-111050054D01*
X103402622Y-111371961D01*
X103970907Y-111485000D01*
X104029093Y-111485000D01*
X104597378Y-111371961D01*
X105079147Y-111050054D01*
X105401054Y-110568285D01*
X105514093Y-110000000D01*
X105401054Y-109431715D01*
X105079147Y-108949946D01*
X104597378Y-108628039D01*
X104029093Y-108515000D01*
X103970907Y-108515000D01*
X103402622Y-108628039D01*
X102920853Y-108949946D01*
X102598946Y-109431715D01*
X102485907Y-110000000D01*
X100710000Y-110000000D01*
X100710000Y-102941000D01*
X102566560Y-102941000D01*
X102566560Y-104641000D01*
X102610838Y-104876317D01*
X102749910Y-105092441D01*
X102962110Y-105237431D01*
X103214000Y-105288440D01*
X104914000Y-105288440D01*
X105149317Y-105244162D01*
X105365441Y-105105090D01*
X105487808Y-104926000D01*
X105506360Y-104926000D01*
X105506360Y-106200100D01*
X105550638Y-106435417D01*
X105689710Y-106651541D01*
X105901910Y-106796531D01*
X106153800Y-106847540D01*
X107052055Y-106847540D01*
X106838199Y-106990434D01*
X106809566Y-107009566D01*
X106209566Y-107609566D01*
X106028561Y-107880459D01*
X105965000Y-108200000D01*
X105965000Y-116800000D01*
X106028561Y-117119541D01*
X106201632Y-117378560D01*
X106209566Y-117390434D01*
X107409566Y-118590434D01*
X107680459Y-118771439D01*
X108000000Y-118835000D01*
X108364882Y-118835000D01*
X108364838Y-118885167D01*
X108506883Y-119228943D01*
X108572998Y-119295173D01*
X108572998Y-119397435D01*
X108398869Y-119248771D01*
X107988951Y-119390432D01*
X107664448Y-119678179D01*
X107480732Y-120052062D01*
X107607266Y-120223000D01*
X108573000Y-120223000D01*
X108573000Y-120203000D01*
X108827000Y-120203000D01*
X108827000Y-120223000D01*
X108847000Y-120223000D01*
X108847000Y-120477000D01*
X108827000Y-120477000D01*
X108827000Y-121302563D01*
X109001131Y-121451229D01*
X109179926Y-121389440D01*
X109235910Y-121476441D01*
X109448110Y-121621431D01*
X109700000Y-121672440D01*
X110100000Y-121672440D01*
X110229589Y-121648056D01*
X110350000Y-121672440D01*
X110750000Y-121672440D01*
X110879589Y-121648056D01*
X111000000Y-121672440D01*
X111400000Y-121672440D01*
X111529589Y-121648056D01*
X111650000Y-121672440D01*
X112050000Y-121672440D01*
X112155705Y-121652550D01*
X112173690Y-121660000D01*
X112241250Y-121660000D01*
X112270254Y-121630996D01*
X112285317Y-121628162D01*
X112501441Y-121489090D01*
X112600000Y-121344844D01*
X112600000Y-121501250D01*
X112758750Y-121660000D01*
X112826310Y-121660000D01*
X113059699Y-121563327D01*
X113230115Y-121392910D01*
X113398869Y-121451229D01*
X113573000Y-121302563D01*
X113573000Y-120477000D01*
X113827000Y-120477000D01*
X113827000Y-121302563D01*
X114001131Y-121451229D01*
X114411049Y-121309568D01*
X114735552Y-121021821D01*
X114919268Y-120647938D01*
X114792734Y-120477000D01*
X113827000Y-120477000D01*
X113573000Y-120477000D01*
X113553000Y-120477000D01*
X113553000Y-120223000D01*
X113573000Y-120223000D01*
X113573000Y-119397437D01*
X113827000Y-119397437D01*
X113827000Y-120223000D01*
X114792734Y-120223000D01*
X114919268Y-120052062D01*
X114735552Y-119678179D01*
X114411049Y-119390432D01*
X114001131Y-119248771D01*
X113827000Y-119397437D01*
X113573000Y-119397437D01*
X113398869Y-119248771D01*
X113230115Y-119307090D01*
X113059699Y-119136673D01*
X112826310Y-119040000D01*
X112758750Y-119040000D01*
X112600000Y-119198750D01*
X112600000Y-119357067D01*
X112514090Y-119223559D01*
X112301890Y-119078569D01*
X112274215Y-119072965D01*
X112241250Y-119040000D01*
X112173690Y-119040000D01*
X112153247Y-119048468D01*
X112050000Y-119027560D01*
X112035000Y-119027560D01*
X112035000Y-118600000D01*
X111971439Y-118280459D01*
X111790434Y-118009566D01*
X111356449Y-117575581D01*
X111434838Y-117386799D01*
X111435162Y-117014833D01*
X111422835Y-116985000D01*
X113236478Y-116985000D01*
X113241910Y-116993441D01*
X113454110Y-117138431D01*
X113571000Y-117162102D01*
X113571000Y-117606000D01*
X113657397Y-118040346D01*
X113866414Y-118353162D01*
X113903434Y-118408566D01*
X114397433Y-118902566D01*
X114765654Y-119148603D01*
X115200000Y-119235000D01*
X116950000Y-119235000D01*
X117384346Y-119148603D01*
X117752566Y-118902566D01*
X117998603Y-118534346D01*
X118000000Y-118527323D01*
X118001397Y-118534346D01*
X118247434Y-118902566D01*
X118615654Y-119148603D01*
X119050000Y-119235000D01*
X119484346Y-119148603D01*
X119852566Y-118902566D01*
X120098603Y-118534346D01*
X120185000Y-118100000D01*
X120185000Y-116620132D01*
X120765692Y-116039440D01*
X121565000Y-116039440D01*
X121565000Y-116652560D01*
X120950000Y-116652560D01*
X120714683Y-116696838D01*
X120498559Y-116835910D01*
X120353569Y-117048110D01*
X120302560Y-117300000D01*
X120302560Y-117800000D01*
X120346838Y-118035317D01*
X120485910Y-118251441D01*
X120555711Y-118299134D01*
X120498559Y-118335910D01*
X120353569Y-118548110D01*
X120302560Y-118800000D01*
X120302560Y-118861174D01*
X120265000Y-119050000D01*
X120265000Y-119858203D01*
X120203569Y-119948110D01*
X120152560Y-120200000D01*
X120152560Y-121400000D01*
X120196838Y-121635317D01*
X120335910Y-121851441D01*
X120404006Y-121897969D01*
X120261673Y-122040302D01*
X120165000Y-122273691D01*
X120165000Y-122714250D01*
X120323750Y-122873000D01*
X121273000Y-122873000D01*
X121273000Y-122853000D01*
X121527000Y-122853000D01*
X121527000Y-122873000D01*
X122476250Y-122873000D01*
X122635000Y-122714250D01*
X122635000Y-122273691D01*
X122538327Y-122040302D01*
X122533776Y-122035750D01*
X122990000Y-122035750D01*
X122990000Y-122276309D01*
X123086673Y-122509698D01*
X123265301Y-122688327D01*
X123498690Y-122785000D01*
X123714250Y-122785000D01*
X123873000Y-122626250D01*
X123873000Y-121877000D01*
X124127000Y-121877000D01*
X124127000Y-122626250D01*
X124285750Y-122785000D01*
X124501310Y-122785000D01*
X124734699Y-122688327D01*
X124913327Y-122509698D01*
X125010000Y-122276309D01*
X125010000Y-122035750D01*
X124851250Y-121877000D01*
X124127000Y-121877000D01*
X123873000Y-121877000D01*
X123148750Y-121877000D01*
X122990000Y-122035750D01*
X122533776Y-122035750D01*
X122397090Y-121899064D01*
X122451441Y-121864090D01*
X122596431Y-121651890D01*
X122647440Y-121400000D01*
X122647440Y-121119388D01*
X122915654Y-121298603D01*
X122990000Y-121313391D01*
X122990000Y-121464250D01*
X123148750Y-121623000D01*
X123873000Y-121623000D01*
X123873000Y-121603000D01*
X124127000Y-121603000D01*
X124127000Y-121623000D01*
X124851250Y-121623000D01*
X125010000Y-121464250D01*
X125010000Y-121385000D01*
X126327344Y-121385000D01*
X126177478Y-121813100D01*
X126206625Y-122333434D01*
X126349672Y-122678781D01*
X126582853Y-122737542D01*
X127320395Y-122000000D01*
X127306253Y-121985858D01*
X127485858Y-121806253D01*
X127500000Y-121820395D01*
X127514143Y-121806253D01*
X127693748Y-121985858D01*
X127679605Y-122000000D01*
X128417147Y-122737542D01*
X128650328Y-122678781D01*
X128822522Y-122186900D01*
X128814056Y-122035750D01*
X130490000Y-122035750D01*
X130490000Y-122276309D01*
X130586673Y-122509698D01*
X130765301Y-122688327D01*
X130998690Y-122785000D01*
X131214250Y-122785000D01*
X131373000Y-122626250D01*
X131373000Y-121877000D01*
X131627000Y-121877000D01*
X131627000Y-122626250D01*
X131785750Y-122785000D01*
X132001310Y-122785000D01*
X132234699Y-122688327D01*
X132413327Y-122509698D01*
X132510000Y-122276309D01*
X132510000Y-122035750D01*
X132351250Y-121877000D01*
X131627000Y-121877000D01*
X131373000Y-121877000D01*
X130648750Y-121877000D01*
X130490000Y-122035750D01*
X128814056Y-122035750D01*
X128793375Y-121666566D01*
X128676747Y-121385000D01*
X130490000Y-121385000D01*
X130490000Y-121464250D01*
X130648750Y-121623000D01*
X131373000Y-121623000D01*
X131373000Y-121603000D01*
X131627000Y-121603000D01*
X131627000Y-121623000D01*
X132351250Y-121623000D01*
X132510000Y-121464250D01*
X132510000Y-121385000D01*
X133827344Y-121385000D01*
X133677478Y-121813100D01*
X133706625Y-122333434D01*
X133849672Y-122678781D01*
X134082853Y-122737542D01*
X134820395Y-122000000D01*
X134806253Y-121985858D01*
X134985858Y-121806253D01*
X135000000Y-121820395D01*
X135014143Y-121806253D01*
X135193748Y-121985858D01*
X135179605Y-122000000D01*
X135917147Y-122737542D01*
X136150328Y-122678781D01*
X136200399Y-122535750D01*
X137990000Y-122535750D01*
X137990000Y-122776309D01*
X138086673Y-123009698D01*
X138265301Y-123188327D01*
X138498690Y-123285000D01*
X138714250Y-123285000D01*
X138873000Y-123126250D01*
X138873000Y-122377000D01*
X139127000Y-122377000D01*
X139127000Y-123126250D01*
X139285750Y-123285000D01*
X139501310Y-123285000D01*
X139734699Y-123188327D01*
X139913327Y-123009698D01*
X139943485Y-122936890D01*
X140058524Y-122936890D01*
X140228355Y-123346924D01*
X140618642Y-123775183D01*
X141143108Y-124021486D01*
X141373000Y-123900819D01*
X141373000Y-122707000D01*
X141627000Y-122707000D01*
X141627000Y-123900819D01*
X141856892Y-124021486D01*
X142381358Y-123775183D01*
X142771645Y-123346924D01*
X142941476Y-122936890D01*
X142820155Y-122707000D01*
X141627000Y-122707000D01*
X141373000Y-122707000D01*
X140179845Y-122707000D01*
X140058524Y-122936890D01*
X139943485Y-122936890D01*
X140010000Y-122776309D01*
X140010000Y-122535750D01*
X143490000Y-122535750D01*
X143490000Y-122776309D01*
X143586673Y-123009698D01*
X143765301Y-123188327D01*
X143998690Y-123285000D01*
X144214250Y-123285000D01*
X144373000Y-123126250D01*
X144373000Y-122377000D01*
X144627000Y-122377000D01*
X144627000Y-123126250D01*
X144785750Y-123285000D01*
X145001310Y-123285000D01*
X145234699Y-123188327D01*
X145413327Y-123009698D01*
X145443485Y-122936890D01*
X145558524Y-122936890D01*
X145728355Y-123346924D01*
X146118642Y-123775183D01*
X146643108Y-124021486D01*
X146873000Y-123900819D01*
X146873000Y-122707000D01*
X147127000Y-122707000D01*
X147127000Y-123900819D01*
X147356892Y-124021486D01*
X147881358Y-123775183D01*
X148271645Y-123346924D01*
X148441476Y-122936890D01*
X148320155Y-122707000D01*
X147127000Y-122707000D01*
X146873000Y-122707000D01*
X145679845Y-122707000D01*
X145558524Y-122936890D01*
X145443485Y-122936890D01*
X145510000Y-122776309D01*
X145510000Y-122535750D01*
X148990000Y-122535750D01*
X148990000Y-122776309D01*
X149086673Y-123009698D01*
X149265301Y-123188327D01*
X149498690Y-123285000D01*
X149714250Y-123285000D01*
X149873000Y-123126250D01*
X149873000Y-122377000D01*
X150127000Y-122377000D01*
X150127000Y-123126250D01*
X150285750Y-123285000D01*
X150501310Y-123285000D01*
X150734699Y-123188327D01*
X150913327Y-123009698D01*
X150943485Y-122936890D01*
X151058524Y-122936890D01*
X151228355Y-123346924D01*
X151618642Y-123775183D01*
X152143108Y-124021486D01*
X152373000Y-123900819D01*
X152373000Y-122707000D01*
X152627000Y-122707000D01*
X152627000Y-123900819D01*
X152856892Y-124021486D01*
X153381358Y-123775183D01*
X153771645Y-123346924D01*
X153941476Y-122936890D01*
X153820155Y-122707000D01*
X152627000Y-122707000D01*
X152373000Y-122707000D01*
X151179845Y-122707000D01*
X151058524Y-122936890D01*
X150943485Y-122936890D01*
X151010000Y-122776309D01*
X151010000Y-122535750D01*
X150851250Y-122377000D01*
X150127000Y-122377000D01*
X149873000Y-122377000D01*
X149148750Y-122377000D01*
X148990000Y-122535750D01*
X145510000Y-122535750D01*
X145351250Y-122377000D01*
X144627000Y-122377000D01*
X144373000Y-122377000D01*
X143648750Y-122377000D01*
X143490000Y-122535750D01*
X140010000Y-122535750D01*
X139851250Y-122377000D01*
X139127000Y-122377000D01*
X138873000Y-122377000D01*
X138148750Y-122377000D01*
X137990000Y-122535750D01*
X136200399Y-122535750D01*
X136322522Y-122186900D01*
X136293375Y-121666566D01*
X136150328Y-121321219D01*
X135917149Y-121262459D01*
X136032502Y-121147106D01*
X136020396Y-121135000D01*
X137779868Y-121135000D01*
X138019903Y-121375035D01*
X138021838Y-121385317D01*
X138088329Y-121488646D01*
X138086673Y-121490302D01*
X137990000Y-121723691D01*
X137990000Y-121964250D01*
X138148750Y-122123000D01*
X138873000Y-122123000D01*
X138873000Y-122103000D01*
X139127000Y-122103000D01*
X139127000Y-122123000D01*
X139851250Y-122123000D01*
X140010000Y-121964250D01*
X140010000Y-121885000D01*
X140198565Y-121885000D01*
X140058524Y-122223110D01*
X140179845Y-122453000D01*
X141373000Y-122453000D01*
X141373000Y-122433000D01*
X141627000Y-122433000D01*
X141627000Y-122453000D01*
X142820155Y-122453000D01*
X142941476Y-122223110D01*
X142771645Y-121813076D01*
X142381358Y-121384817D01*
X142238447Y-121317702D01*
X142579147Y-121090054D01*
X142901054Y-120608285D01*
X143014093Y-120040000D01*
X142901054Y-119471715D01*
X142579147Y-118989946D01*
X142537548Y-118962150D01*
X142585317Y-118953162D01*
X142801441Y-118814090D01*
X142946431Y-118601890D01*
X142997440Y-118350000D01*
X142997440Y-116650000D01*
X142971097Y-116510000D01*
X145530911Y-116510000D01*
X145502560Y-116650000D01*
X145502560Y-118350000D01*
X145546838Y-118585317D01*
X145685910Y-118801441D01*
X145898110Y-118946431D01*
X145965541Y-118960086D01*
X145920853Y-118989946D01*
X145599402Y-119471033D01*
X145548604Y-119215655D01*
X145302566Y-118847434D01*
X145252566Y-118797434D01*
X144884345Y-118551397D01*
X144450000Y-118465000D01*
X144015655Y-118551397D01*
X143647434Y-118797434D01*
X143401397Y-119165655D01*
X143315000Y-119600000D01*
X143365000Y-119851366D01*
X143365000Y-120750000D01*
X143451397Y-121184346D01*
X143496812Y-121252314D01*
X143521838Y-121385317D01*
X143588329Y-121488646D01*
X143586673Y-121490302D01*
X143490000Y-121723691D01*
X143490000Y-121964250D01*
X143648750Y-122123000D01*
X144373000Y-122123000D01*
X144373000Y-122103000D01*
X144627000Y-122103000D01*
X144627000Y-122123000D01*
X145351250Y-122123000D01*
X145510000Y-121964250D01*
X145510000Y-121760000D01*
X145776725Y-121760000D01*
X145728355Y-121813076D01*
X145558524Y-122223110D01*
X145679845Y-122453000D01*
X146873000Y-122453000D01*
X146873000Y-122433000D01*
X147127000Y-122433000D01*
X147127000Y-122453000D01*
X148320155Y-122453000D01*
X148441476Y-122223110D01*
X148301435Y-121885000D01*
X148990000Y-121885000D01*
X148990000Y-121964250D01*
X149148750Y-122123000D01*
X149873000Y-122123000D01*
X149873000Y-122103000D01*
X150127000Y-122103000D01*
X150127000Y-122123000D01*
X150851250Y-122123000D01*
X151010000Y-121964250D01*
X151010000Y-121885000D01*
X151198565Y-121885000D01*
X151058524Y-122223110D01*
X151179845Y-122453000D01*
X152373000Y-122453000D01*
X152373000Y-122433000D01*
X152627000Y-122433000D01*
X152627000Y-122453000D01*
X153820155Y-122453000D01*
X153941476Y-122223110D01*
X153771645Y-121813076D01*
X153381358Y-121384817D01*
X153238447Y-121317702D01*
X153579147Y-121090054D01*
X153901054Y-120608285D01*
X154014093Y-120040000D01*
X153901054Y-119471715D01*
X153579147Y-118989946D01*
X153537548Y-118962150D01*
X153585317Y-118953162D01*
X153801441Y-118814090D01*
X153946431Y-118601890D01*
X153997440Y-118350000D01*
X153997440Y-118335000D01*
X154365017Y-118335000D01*
X154253569Y-118498110D01*
X154202560Y-118750000D01*
X154202560Y-119250000D01*
X154246838Y-119485317D01*
X154385910Y-119701441D01*
X154598110Y-119846431D01*
X154850000Y-119897440D01*
X155464871Y-119897440D01*
X155464838Y-119935167D01*
X155606883Y-120278943D01*
X155869673Y-120542192D01*
X156213201Y-120684838D01*
X156585167Y-120685162D01*
X156928943Y-120543117D01*
X157192192Y-120280327D01*
X157334838Y-119936799D01*
X157335162Y-119564833D01*
X157286656Y-119447440D01*
X158500000Y-119447440D01*
X158735317Y-119403162D01*
X158951441Y-119264090D01*
X159096431Y-119051890D01*
X159147440Y-118800000D01*
X159147440Y-118285750D01*
X164865000Y-118285750D01*
X164865000Y-118926310D01*
X164961673Y-119159699D01*
X165140302Y-119338327D01*
X165373691Y-119435000D01*
X166304250Y-119435000D01*
X166463000Y-119276250D01*
X166463000Y-118127000D01*
X166717000Y-118127000D01*
X166717000Y-119276250D01*
X166875750Y-119435000D01*
X167806309Y-119435000D01*
X168039698Y-119338327D01*
X168218327Y-119159699D01*
X168315000Y-118926310D01*
X168315000Y-118285750D01*
X168156250Y-118127000D01*
X166717000Y-118127000D01*
X166463000Y-118127000D01*
X165023750Y-118127000D01*
X164865000Y-118285750D01*
X159147440Y-118285750D01*
X159147440Y-117200000D01*
X159103162Y-116964683D01*
X158964090Y-116748559D01*
X158791469Y-116630612D01*
X158812118Y-116610000D01*
X165265052Y-116610000D01*
X165140302Y-116661673D01*
X164961673Y-116840301D01*
X164865000Y-117073690D01*
X164865000Y-117714250D01*
X165023750Y-117873000D01*
X166463000Y-117873000D01*
X166463000Y-116723750D01*
X166717000Y-116723750D01*
X166717000Y-117873000D01*
X168156250Y-117873000D01*
X168315000Y-117714250D01*
X168315000Y-117073690D01*
X168218327Y-116840301D01*
X168039698Y-116661673D01*
X167806309Y-116565000D01*
X166875750Y-116565000D01*
X166717000Y-116723750D01*
X166463000Y-116723750D01*
X166304250Y-116565000D01*
X165576228Y-116565000D01*
X165640839Y-116552148D01*
X165887401Y-116387401D01*
X167966141Y-114308661D01*
X168130888Y-114062100D01*
X168188740Y-113771260D01*
X168188740Y-112883520D01*
X168412990Y-112883520D01*
X168571740Y-112724770D01*
X168571740Y-111626220D01*
X168551740Y-111626220D01*
X168551740Y-111372220D01*
X168571740Y-111372220D01*
X168571740Y-110273670D01*
X168412990Y-110114920D01*
X168122851Y-110114920D01*
X168062728Y-110139824D01*
X167878320Y-110102480D01*
X166979160Y-110102480D01*
X166786933Y-110138650D01*
X166608320Y-110102480D01*
X165709160Y-110102480D01*
X165516933Y-110138650D01*
X165338320Y-110102480D01*
X164439160Y-110102480D01*
X164246933Y-110138650D01*
X164068320Y-110102480D01*
X163169160Y-110102480D01*
X162976933Y-110138650D01*
X162798320Y-110102480D01*
X161899160Y-110102480D01*
X161706933Y-110138650D01*
X161528320Y-110102480D01*
X160629160Y-110102480D01*
X160438250Y-110138402D01*
X160260860Y-110102480D01*
X159361700Y-110102480D01*
X159169473Y-110138650D01*
X158990860Y-110102480D01*
X158091700Y-110102480D01*
X157899473Y-110138650D01*
X157720860Y-110102480D01*
X156821700Y-110102480D01*
X156629473Y-110138650D01*
X156450860Y-110102480D01*
X155551700Y-110102480D01*
X155359473Y-110138650D01*
X155180860Y-110102480D01*
X154281700Y-110102480D01*
X154089473Y-110138650D01*
X153910860Y-110102480D01*
X153011700Y-110102480D01*
X152819473Y-110138650D01*
X152640860Y-110102480D01*
X151741700Y-110102480D01*
X151506383Y-110146758D01*
X151290259Y-110285830D01*
X151145269Y-110498030D01*
X151096427Y-110739220D01*
X149914022Y-110739220D01*
X149560000Y-110385198D01*
X149560000Y-109165961D01*
X149699110Y-109261011D01*
X149951000Y-109312020D01*
X151449600Y-109312020D01*
X151684917Y-109267742D01*
X151901041Y-109128670D01*
X152046031Y-108916470D01*
X152097040Y-108664580D01*
X152097040Y-107765420D01*
X152060870Y-107573193D01*
X152097040Y-107394580D01*
X152097040Y-106495420D01*
X152060870Y-106303193D01*
X152097040Y-106124580D01*
X152097040Y-105225420D01*
X152060870Y-105033193D01*
X152097040Y-104854580D01*
X152097040Y-103955420D01*
X152060870Y-103763193D01*
X152097040Y-103584580D01*
X152097040Y-102685420D01*
X152060870Y-102493193D01*
X152097040Y-102314580D01*
X152097040Y-102150750D01*
X158865000Y-102150750D01*
X158865000Y-103991310D01*
X158961673Y-104224699D01*
X159140302Y-104403327D01*
X159373691Y-104500000D01*
X161214250Y-104500000D01*
X161373000Y-104341250D01*
X161373000Y-101992000D01*
X161627000Y-101992000D01*
X161627000Y-104341250D01*
X161785750Y-104500000D01*
X163626309Y-104500000D01*
X163859698Y-104403327D01*
X164038327Y-104224699D01*
X164135000Y-103991310D01*
X164135000Y-102150750D01*
X163976250Y-101992000D01*
X161627000Y-101992000D01*
X161373000Y-101992000D01*
X159023750Y-101992000D01*
X158865000Y-102150750D01*
X152097040Y-102150750D01*
X152097040Y-101415420D01*
X152060870Y-101223193D01*
X152097040Y-101044580D01*
X152097040Y-100145420D01*
X152060870Y-99953193D01*
X152097040Y-99774580D01*
X152097040Y-99738690D01*
X158865000Y-99738690D01*
X158865000Y-101579250D01*
X159023750Y-101738000D01*
X161373000Y-101738000D01*
X161373000Y-99388750D01*
X161627000Y-99388750D01*
X161627000Y-101738000D01*
X163976250Y-101738000D01*
X164135000Y-101579250D01*
X164135000Y-99738690D01*
X164038327Y-99505301D01*
X163859698Y-99326673D01*
X163626309Y-99230000D01*
X161785750Y-99230000D01*
X161627000Y-99388750D01*
X161373000Y-99388750D01*
X161214250Y-99230000D01*
X159373691Y-99230000D01*
X159140302Y-99326673D01*
X158961673Y-99505301D01*
X158865000Y-99738690D01*
X152097040Y-99738690D01*
X152097040Y-98875420D01*
X152060870Y-98683193D01*
X152097040Y-98504580D01*
X152097040Y-97605420D01*
X152061515Y-97416621D01*
X152084600Y-97360889D01*
X152084600Y-97070750D01*
X151925850Y-96912000D01*
X150827300Y-96912000D01*
X150827300Y-96932000D01*
X150573300Y-96932000D01*
X150573300Y-96912000D01*
X150553300Y-96912000D01*
X150553300Y-96658000D01*
X150573300Y-96658000D01*
X150573300Y-95859170D01*
X150827300Y-95859170D01*
X150827300Y-96658000D01*
X151925850Y-96658000D01*
X152084600Y-96499250D01*
X152084600Y-96209111D01*
X151987927Y-95975722D01*
X151809299Y-95797093D01*
X151575910Y-95700420D01*
X150986050Y-95700420D01*
X150827300Y-95859170D01*
X150573300Y-95859170D01*
X150414550Y-95700420D01*
X149824690Y-95700420D01*
X149591301Y-95797093D01*
X149560000Y-95828394D01*
X149560000Y-95100000D01*
X149502148Y-94809161D01*
X149337401Y-94562599D01*
X149035582Y-94260780D01*
X151096273Y-94260780D01*
X151138538Y-94485397D01*
X151277610Y-94701521D01*
X151489810Y-94846511D01*
X151741700Y-94897520D01*
X152640860Y-94897520D01*
X152833087Y-94861350D01*
X153011700Y-94897520D01*
X153910860Y-94897520D01*
X154103087Y-94861350D01*
X154281700Y-94897520D01*
X155180860Y-94897520D01*
X155373087Y-94861350D01*
X155551700Y-94897520D01*
X156450860Y-94897520D01*
X156643087Y-94861350D01*
X156821700Y-94897520D01*
X157720860Y-94897520D01*
X157913087Y-94861350D01*
X158091700Y-94897520D01*
X158990860Y-94897520D01*
X159183087Y-94861350D01*
X159361700Y-94897520D01*
X160260860Y-94897520D01*
X160451770Y-94861598D01*
X160629160Y-94897520D01*
X161528320Y-94897520D01*
X161720547Y-94861350D01*
X161899160Y-94897520D01*
X162798320Y-94897520D01*
X162990547Y-94861350D01*
X163169160Y-94897520D01*
X164068320Y-94897520D01*
X164260547Y-94861350D01*
X164439160Y-94897520D01*
X165338320Y-94897520D01*
X165530547Y-94861350D01*
X165709160Y-94897520D01*
X166608320Y-94897520D01*
X166800547Y-94861350D01*
X166979160Y-94897520D01*
X167878320Y-94897520D01*
X168067119Y-94861995D01*
X168122851Y-94885080D01*
X168412990Y-94885080D01*
X168571740Y-94726330D01*
X168571740Y-93627780D01*
X168551740Y-93627780D01*
X168551740Y-93373780D01*
X168571740Y-93373780D01*
X168571740Y-92275230D01*
X168523000Y-92226490D01*
X168523000Y-91827000D01*
X168503000Y-91827000D01*
X168503000Y-91573000D01*
X168523000Y-91573000D01*
X168523000Y-90848750D01*
X168473000Y-90798750D01*
X168473000Y-90127000D01*
X168453000Y-90127000D01*
X168453000Y-89873000D01*
X168473000Y-89873000D01*
X168473000Y-89148750D01*
X168314250Y-88990000D01*
X168073691Y-88990000D01*
X167840302Y-89086673D01*
X167838932Y-89088043D01*
X167751890Y-89028569D01*
X167729082Y-89023950D01*
X166705855Y-88000723D01*
X166959192Y-87747827D01*
X167101838Y-87404299D01*
X167102162Y-87032333D01*
X166960117Y-86688557D01*
X166697327Y-86425308D01*
X166353799Y-86282662D01*
X165981833Y-86282338D01*
X165815000Y-86351272D01*
X165815000Y-86285750D01*
X165656250Y-86127000D01*
X164217000Y-86127000D01*
X164217000Y-86147000D01*
X163963000Y-86147000D01*
X163963000Y-86127000D01*
X162523750Y-86127000D01*
X162365000Y-86285750D01*
X162365000Y-86457500D01*
X156956802Y-86457500D01*
X156647440Y-86148138D01*
X156647440Y-85200000D01*
X156623674Y-85073690D01*
X162365000Y-85073690D01*
X162365000Y-85714250D01*
X162523750Y-85873000D01*
X163963000Y-85873000D01*
X163963000Y-84723750D01*
X164217000Y-84723750D01*
X164217000Y-85873000D01*
X165656250Y-85873000D01*
X165815000Y-85714250D01*
X165815000Y-85073690D01*
X165718327Y-84840301D01*
X165539698Y-84661673D01*
X165306309Y-84565000D01*
X164375750Y-84565000D01*
X164217000Y-84723750D01*
X163963000Y-84723750D01*
X163804250Y-84565000D01*
X162873691Y-84565000D01*
X162640302Y-84661673D01*
X162461673Y-84840301D01*
X162365000Y-85073690D01*
X156623674Y-85073690D01*
X156603162Y-84964683D01*
X156464090Y-84748559D01*
X156251890Y-84603569D01*
X156000000Y-84552560D01*
X155670000Y-84552560D01*
X155670000Y-84073670D01*
X155688646Y-84061671D01*
X155690302Y-84063327D01*
X155923691Y-84160000D01*
X156164250Y-84160000D01*
X156323000Y-84001250D01*
X156323000Y-83277000D01*
X156577000Y-83277000D01*
X156577000Y-84001250D01*
X156735750Y-84160000D01*
X156976309Y-84160000D01*
X157209698Y-84063327D01*
X157388327Y-83884699D01*
X157485000Y-83651310D01*
X157485000Y-83435750D01*
X157326250Y-83277000D01*
X156577000Y-83277000D01*
X156323000Y-83277000D01*
X156303000Y-83277000D01*
X156303000Y-83023000D01*
X156323000Y-83023000D01*
X156323000Y-82298750D01*
X156577000Y-82298750D01*
X156577000Y-83023000D01*
X157326250Y-83023000D01*
X157485000Y-82864250D01*
X157485000Y-82648690D01*
X157388327Y-82415301D01*
X157209698Y-82236673D01*
X156976309Y-82140000D01*
X156735750Y-82140000D01*
X156577000Y-82298750D01*
X156323000Y-82298750D01*
X156164250Y-82140000D01*
X155923691Y-82140000D01*
X155690302Y-82236673D01*
X155688932Y-82238043D01*
X155601890Y-82178569D01*
X155350000Y-82127560D01*
X154550000Y-82127560D01*
X154314683Y-82171838D01*
X154098559Y-82310910D01*
X153953569Y-82523110D01*
X153902560Y-82775000D01*
X153902560Y-83525000D01*
X153946838Y-83760317D01*
X154085910Y-83976441D01*
X154150000Y-84020232D01*
X154150000Y-84552560D01*
X153820000Y-84552560D01*
X153584683Y-84596838D01*
X153368559Y-84735910D01*
X153223569Y-84948110D01*
X153172560Y-85200000D01*
X153172560Y-85889428D01*
X151480566Y-84197434D01*
X151424542Y-84160000D01*
X151112346Y-83951397D01*
X150963589Y-83921807D01*
X151032502Y-83852894D01*
X150917149Y-83737541D01*
X151150328Y-83678781D01*
X151322522Y-83186900D01*
X151293375Y-82666566D01*
X151150328Y-82321219D01*
X150917147Y-82262458D01*
X150179605Y-83000000D01*
X150193748Y-83014143D01*
X150014143Y-83193748D01*
X150000000Y-83179605D01*
X149985858Y-83193748D01*
X149806253Y-83014143D01*
X149820395Y-83000000D01*
X149082853Y-82262458D01*
X148849672Y-82321219D01*
X148677478Y-82813100D01*
X148706625Y-83333434D01*
X148849672Y-83678781D01*
X149082851Y-83737541D01*
X148967498Y-83852894D01*
X148979604Y-83865000D01*
X147473263Y-83865000D01*
X147510000Y-83776309D01*
X147510000Y-83535750D01*
X147351250Y-83377000D01*
X146627000Y-83377000D01*
X146627000Y-83397000D01*
X146373000Y-83397000D01*
X146373000Y-83377000D01*
X145648750Y-83377000D01*
X145490000Y-83535750D01*
X145490000Y-83776309D01*
X145526737Y-83865000D01*
X143520396Y-83865000D01*
X143532502Y-83852894D01*
X143417149Y-83737541D01*
X143650328Y-83678781D01*
X143822522Y-83186900D01*
X143796575Y-82723691D01*
X145490000Y-82723691D01*
X145490000Y-82964250D01*
X145648750Y-83123000D01*
X146373000Y-83123000D01*
X146373000Y-82373750D01*
X146627000Y-82373750D01*
X146627000Y-83123000D01*
X147351250Y-83123000D01*
X147510000Y-82964250D01*
X147510000Y-82723691D01*
X147413327Y-82490302D01*
X147234699Y-82311673D01*
X147001310Y-82215000D01*
X146785750Y-82215000D01*
X146627000Y-82373750D01*
X146373000Y-82373750D01*
X146214250Y-82215000D01*
X145998690Y-82215000D01*
X145765301Y-82311673D01*
X145586673Y-82490302D01*
X145490000Y-82723691D01*
X143796575Y-82723691D01*
X143793375Y-82666566D01*
X143650328Y-82321219D01*
X143417147Y-82262458D01*
X142679605Y-83000000D01*
X142693748Y-83014143D01*
X142514143Y-83193748D01*
X142500000Y-83179605D01*
X142485858Y-83193748D01*
X142306253Y-83014143D01*
X142320395Y-83000000D01*
X141582853Y-82262458D01*
X141349672Y-82321219D01*
X141177478Y-82813100D01*
X141206625Y-83333434D01*
X141349672Y-83678781D01*
X141582851Y-83737541D01*
X141467498Y-83852894D01*
X141479604Y-83865000D01*
X139973263Y-83865000D01*
X140010000Y-83776309D01*
X140010000Y-83535750D01*
X139851250Y-83377000D01*
X139127000Y-83377000D01*
X139127000Y-83397000D01*
X138873000Y-83397000D01*
X138873000Y-83377000D01*
X138148750Y-83377000D01*
X137990000Y-83535750D01*
X137990000Y-83776309D01*
X138026737Y-83865000D01*
X136020396Y-83865000D01*
X136032502Y-83852894D01*
X135917149Y-83737541D01*
X136150328Y-83678781D01*
X136322522Y-83186900D01*
X136296575Y-82723691D01*
X137990000Y-82723691D01*
X137990000Y-82964250D01*
X138148750Y-83123000D01*
X138873000Y-83123000D01*
X138873000Y-82373750D01*
X139127000Y-82373750D01*
X139127000Y-83123000D01*
X139851250Y-83123000D01*
X140010000Y-82964250D01*
X140010000Y-82723691D01*
X139913327Y-82490302D01*
X139734699Y-82311673D01*
X139501310Y-82215000D01*
X139285750Y-82215000D01*
X139127000Y-82373750D01*
X138873000Y-82373750D01*
X138714250Y-82215000D01*
X138498690Y-82215000D01*
X138265301Y-82311673D01*
X138086673Y-82490302D01*
X137990000Y-82723691D01*
X136296575Y-82723691D01*
X136293375Y-82666566D01*
X136150328Y-82321219D01*
X135917147Y-82262458D01*
X135179605Y-83000000D01*
X135193748Y-83014143D01*
X135014143Y-83193748D01*
X135000000Y-83179605D01*
X134985858Y-83193748D01*
X134806253Y-83014143D01*
X134820395Y-83000000D01*
X134082853Y-82262458D01*
X133849672Y-82321219D01*
X133677478Y-82813100D01*
X133706625Y-83333434D01*
X133849672Y-83678781D01*
X134082851Y-83737541D01*
X133967498Y-83852894D01*
X133979604Y-83865000D01*
X132473263Y-83865000D01*
X132510000Y-83776309D01*
X132510000Y-83535750D01*
X132351250Y-83377000D01*
X131627000Y-83377000D01*
X131627000Y-83397000D01*
X131373000Y-83397000D01*
X131373000Y-83377000D01*
X130648750Y-83377000D01*
X130490000Y-83535750D01*
X130490000Y-83776309D01*
X130547448Y-83915000D01*
X130166909Y-83915000D01*
X129904799Y-83806162D01*
X129718240Y-83805999D01*
X129718240Y-83638200D01*
X129673962Y-83402883D01*
X129534890Y-83186759D01*
X129322690Y-83041769D01*
X129070800Y-82990760D01*
X128270800Y-82990760D01*
X128035483Y-83035038D01*
X127819359Y-83174110D01*
X127720167Y-83319283D01*
X127634890Y-83186759D01*
X127422690Y-83041769D01*
X127170800Y-82990760D01*
X126748162Y-82990760D01*
X126581001Y-82823599D01*
X126431478Y-82723691D01*
X130490000Y-82723691D01*
X130490000Y-82964250D01*
X130648750Y-83123000D01*
X131373000Y-83123000D01*
X131373000Y-82373750D01*
X131627000Y-82373750D01*
X131627000Y-83123000D01*
X132351250Y-83123000D01*
X132510000Y-82964250D01*
X132510000Y-82723691D01*
X132413327Y-82490302D01*
X132234699Y-82311673D01*
X132001310Y-82215000D01*
X131785750Y-82215000D01*
X131627000Y-82373750D01*
X131373000Y-82373750D01*
X131214250Y-82215000D01*
X130998690Y-82215000D01*
X130765301Y-82311673D01*
X130586673Y-82490302D01*
X130490000Y-82723691D01*
X126431478Y-82723691D01*
X126334439Y-82658852D01*
X126043600Y-82601000D01*
X125288105Y-82601000D01*
X125197090Y-82459559D01*
X124984890Y-82314569D01*
X124733000Y-82263560D01*
X124233000Y-82263560D01*
X123997683Y-82307838D01*
X123781559Y-82446910D01*
X123733866Y-82516711D01*
X123697090Y-82459559D01*
X123484890Y-82314569D01*
X123233000Y-82263560D01*
X122733000Y-82263560D01*
X122497683Y-82307838D01*
X122281559Y-82446910D01*
X122136569Y-82659110D01*
X122085560Y-82911000D01*
X122085560Y-83811000D01*
X122110553Y-83943827D01*
X122085559Y-83959910D01*
X121940569Y-84172110D01*
X121889560Y-84424000D01*
X121889560Y-85224000D01*
X121933838Y-85459317D01*
X122072910Y-85675441D01*
X122218083Y-85774633D01*
X122085559Y-85859910D01*
X121940569Y-86072110D01*
X121889560Y-86324000D01*
X121889560Y-87124000D01*
X121933838Y-87359317D01*
X122072910Y-87575441D01*
X122090170Y-87587234D01*
X122085560Y-87610000D01*
X122085560Y-88140000D01*
X120727950Y-88140000D01*
X120768148Y-88079840D01*
X120787856Y-87980761D01*
X120826000Y-87789000D01*
X120826000Y-84677500D01*
X120773618Y-84414162D01*
X120768148Y-84386660D01*
X120603401Y-84140099D01*
X119936401Y-83473099D01*
X119689839Y-83308352D01*
X119485703Y-83267746D01*
X119383590Y-83109059D01*
X119171390Y-82964069D01*
X118919500Y-82913060D01*
X118419500Y-82913060D01*
X118184183Y-82957338D01*
X117968059Y-83096410D01*
X117920366Y-83166211D01*
X117883590Y-83109059D01*
X117671390Y-82964069D01*
X117419500Y-82913060D01*
X116919500Y-82913060D01*
X116684183Y-82957338D01*
X116527755Y-83057997D01*
X116464090Y-82959059D01*
X116251890Y-82814069D01*
X116000000Y-82763060D01*
X114800000Y-82763060D01*
X114564683Y-82807338D01*
X114348559Y-82946410D01*
X114300866Y-83016211D01*
X114264090Y-82959059D01*
X114051890Y-82814069D01*
X113800000Y-82763060D01*
X112600000Y-82763060D01*
X112364683Y-82807338D01*
X112148559Y-82946410D01*
X112003569Y-83158610D01*
X111993419Y-83208734D01*
X111840960Y-83239060D01*
X111752992Y-83297838D01*
X111409057Y-83439883D01*
X111145808Y-83702673D01*
X111003162Y-84046201D01*
X111002838Y-84418167D01*
X111144883Y-84761943D01*
X111407673Y-85025192D01*
X111751201Y-85167838D01*
X112065000Y-85168111D01*
X112065000Y-85670351D01*
X112054369Y-85685910D01*
X112003360Y-85937800D01*
X112003360Y-87137800D01*
X112047638Y-87373117D01*
X112186710Y-87589241D01*
X112210510Y-87605503D01*
X112161160Y-87849200D01*
X112161160Y-88349200D01*
X112205438Y-88584517D01*
X112344510Y-88800641D01*
X112414311Y-88848334D01*
X112357159Y-88885110D01*
X112212169Y-89097310D01*
X112161160Y-89349200D01*
X112161160Y-89849200D01*
X112205438Y-90084517D01*
X112344510Y-90300641D01*
X112433760Y-90361623D01*
X112433760Y-90519487D01*
X112418120Y-90596720D01*
X112418120Y-91866720D01*
X112462398Y-92102037D01*
X112601470Y-92318161D01*
X112813670Y-92463151D01*
X113065560Y-92514160D01*
X113471960Y-92514160D01*
X113590456Y-92491863D01*
X113700560Y-92514160D01*
X114106960Y-92514160D01*
X114238622Y-92489386D01*
X114360960Y-92514160D01*
X114767360Y-92514160D01*
X114885856Y-92491863D01*
X114995960Y-92514160D01*
X115402360Y-92514160D01*
X115510816Y-92493753D01*
X115530051Y-92501720D01*
X115599210Y-92501720D01*
X115629512Y-92471418D01*
X115637677Y-92469882D01*
X115853801Y-92330810D01*
X115859333Y-92322714D01*
X116064870Y-92463151D01*
X116085523Y-92467333D01*
X116119910Y-92501720D01*
X116189069Y-92501720D01*
X116210826Y-92492708D01*
X116316760Y-92514160D01*
X116723160Y-92514160D01*
X116841656Y-92491863D01*
X116951760Y-92514160D01*
X117358160Y-92514160D01*
X117489822Y-92489386D01*
X117612160Y-92514160D01*
X118018560Y-92514160D01*
X118150222Y-92489386D01*
X118272560Y-92514160D01*
X118678960Y-92514160D01*
X118797456Y-92491863D01*
X118907560Y-92514160D01*
X119313960Y-92514160D01*
X119549277Y-92469882D01*
X119765401Y-92330810D01*
X119910391Y-92118610D01*
X119961400Y-91866720D01*
X119961400Y-90596720D01*
X119917122Y-90361403D01*
X119876511Y-90298291D01*
X120064802Y-90110000D01*
X123050000Y-90110000D01*
X123340839Y-90052148D01*
X123587401Y-89887401D01*
X124287401Y-89187402D01*
X124307421Y-89157440D01*
X124733000Y-89157440D01*
X124963674Y-89114036D01*
X124921560Y-89322000D01*
X124921560Y-89383174D01*
X124884000Y-89572000D01*
X124884000Y-93660868D01*
X123497434Y-95047434D01*
X123251397Y-95415654D01*
X123165000Y-95850000D01*
X123165000Y-97400000D01*
X123251397Y-97834346D01*
X123497434Y-98202566D01*
X123750238Y-98371484D01*
X123665000Y-98800000D01*
X123751397Y-99234345D01*
X123997434Y-99602566D01*
X124365655Y-99848603D01*
X124800000Y-99935000D01*
X125051366Y-99885000D01*
X126000000Y-99885000D01*
X126434346Y-99798603D01*
X126460032Y-99781440D01*
X126610317Y-99753162D01*
X126669622Y-99715000D01*
X127174392Y-99715000D01*
X127385302Y-100030648D01*
X127850849Y-100341717D01*
X128400000Y-100450950D01*
X128949151Y-100341717D01*
X129414698Y-100030648D01*
X129670000Y-99648562D01*
X129925302Y-100030648D01*
X130390849Y-100341717D01*
X130940000Y-100450950D01*
X131489151Y-100341717D01*
X131954698Y-100030648D01*
X132210000Y-99648562D01*
X132465302Y-100030648D01*
X132930849Y-100341717D01*
X133480000Y-100450950D01*
X134029151Y-100341717D01*
X134494698Y-100030648D01*
X134747507Y-99652293D01*
X135095104Y-100084500D01*
X135588181Y-100354367D01*
X135670961Y-100371904D01*
X135893000Y-100249915D01*
X135893000Y-98707000D01*
X136147000Y-98707000D01*
X136147000Y-100249915D01*
X136369039Y-100371904D01*
X136451819Y-100354367D01*
X136944896Y-100084500D01*
X137290000Y-99655393D01*
X137635104Y-100084500D01*
X138128181Y-100354367D01*
X138210961Y-100371904D01*
X138433000Y-100249915D01*
X138433000Y-98707000D01*
X136147000Y-98707000D01*
X135893000Y-98707000D01*
X135873000Y-98707000D01*
X135873000Y-98453000D01*
X135893000Y-98453000D01*
X135893000Y-96910085D01*
X136147000Y-96910085D01*
X136147000Y-98453000D01*
X138433000Y-98453000D01*
X138433000Y-96910085D01*
X138210961Y-96788096D01*
X138128181Y-96805633D01*
X137635104Y-97075500D01*
X137290000Y-97504607D01*
X136944896Y-97075500D01*
X136451819Y-96805633D01*
X136369039Y-96788096D01*
X136147000Y-96910085D01*
X135893000Y-96910085D01*
X135670961Y-96788096D01*
X135588181Y-96805633D01*
X135095104Y-97075500D01*
X134747507Y-97507707D01*
X134494698Y-97129352D01*
X134029151Y-96818283D01*
X133480000Y-96709050D01*
X132930849Y-96818283D01*
X132465302Y-97129352D01*
X132210000Y-97511438D01*
X131954698Y-97129352D01*
X131489151Y-96818283D01*
X130940000Y-96709050D01*
X130390849Y-96818283D01*
X129925302Y-97129352D01*
X129670000Y-97511438D01*
X129414698Y-97129352D01*
X128949151Y-96818283D01*
X128400000Y-96709050D01*
X127850849Y-96818283D01*
X127385302Y-97129352D01*
X127174392Y-97445000D01*
X126919250Y-97445000D01*
X126851250Y-97377000D01*
X126127000Y-97377000D01*
X126127000Y-97397000D01*
X125873000Y-97397000D01*
X125873000Y-97377000D01*
X125853000Y-97377000D01*
X125853000Y-97123000D01*
X125873000Y-97123000D01*
X125873000Y-96373750D01*
X126127000Y-96373750D01*
X126127000Y-97123000D01*
X126851250Y-97123000D01*
X127010000Y-96964250D01*
X127010000Y-96723691D01*
X126913327Y-96490302D01*
X126734699Y-96311673D01*
X126501310Y-96215000D01*
X126285750Y-96215000D01*
X126127000Y-96373750D01*
X125873000Y-96373750D01*
X125714250Y-96215000D01*
X125540132Y-96215000D01*
X126821566Y-94933566D01*
X126908011Y-94804192D01*
X127067603Y-94565346D01*
X127154000Y-94131000D01*
X127154000Y-90582000D01*
X127177881Y-90582000D01*
X127235654Y-90620603D01*
X127670000Y-90707000D01*
X127714906Y-90707000D01*
X127714838Y-90785167D01*
X127856883Y-91128943D01*
X127890000Y-91162118D01*
X127890000Y-94200000D01*
X127947852Y-94490839D01*
X128112599Y-94737401D01*
X128562599Y-95187401D01*
X128809161Y-95352148D01*
X129100000Y-95410000D01*
X141464903Y-95410000D01*
X141464838Y-95485167D01*
X141606883Y-95828943D01*
X141640000Y-95862118D01*
X141640000Y-96816463D01*
X141100000Y-96709050D01*
X140550849Y-96818283D01*
X140085302Y-97129352D01*
X139832493Y-97507707D01*
X139484896Y-97075500D01*
X138991819Y-96805633D01*
X138909039Y-96788096D01*
X138687000Y-96910085D01*
X138687000Y-98453000D01*
X138707000Y-98453000D01*
X138707000Y-98707000D01*
X138687000Y-98707000D01*
X138687000Y-100249915D01*
X138909039Y-100371904D01*
X138991819Y-100354367D01*
X139484896Y-100084500D01*
X139832493Y-99652293D01*
X140085302Y-100030648D01*
X140550849Y-100341717D01*
X141100000Y-100450950D01*
X141640000Y-100343537D01*
X141640000Y-102587624D01*
X141557808Y-102669673D01*
X141415162Y-103013201D01*
X141414838Y-103385167D01*
X141556883Y-103728943D01*
X141819673Y-103992192D01*
X142163201Y-104134838D01*
X142535167Y-104135162D01*
X142878943Y-103993117D01*
X143142192Y-103730327D01*
X143284838Y-103386799D01*
X143285162Y-103014833D01*
X143160000Y-102711917D01*
X143160000Y-100355472D01*
X143640000Y-100450950D01*
X144189151Y-100341717D01*
X144240000Y-100307741D01*
X144240000Y-103437537D01*
X144207808Y-103469673D01*
X144065162Y-103813201D01*
X144064838Y-104185167D01*
X144167657Y-104434007D01*
X143640000Y-104329050D01*
X143090849Y-104438283D01*
X142625302Y-104749352D01*
X142370000Y-105131438D01*
X142114698Y-104749352D01*
X141649151Y-104438283D01*
X141100000Y-104329050D01*
X140550849Y-104438283D01*
X140085302Y-104749352D01*
X139832493Y-105127707D01*
X139484896Y-104695500D01*
X138991819Y-104425633D01*
X138909039Y-104408096D01*
X138687000Y-104530085D01*
X138687000Y-106073000D01*
X138707000Y-106073000D01*
X138707000Y-106327000D01*
X138687000Y-106327000D01*
X138687000Y-107869915D01*
X138909039Y-107991904D01*
X138991819Y-107974367D01*
X139484896Y-107704500D01*
X139832493Y-107272293D01*
X140085302Y-107650648D01*
X140550849Y-107961717D01*
X141100000Y-108070950D01*
X141649151Y-107961717D01*
X142114698Y-107650648D01*
X142370000Y-107268562D01*
X142625302Y-107650648D01*
X143090849Y-107961717D01*
X143640000Y-108070950D01*
X144189151Y-107961717D01*
X144654698Y-107650648D01*
X144910000Y-107268562D01*
X145165302Y-107650648D01*
X145630849Y-107961717D01*
X146180000Y-108070950D01*
X146729151Y-107961717D01*
X147194698Y-107650648D01*
X147505767Y-107185101D01*
X147615000Y-106635950D01*
X147615000Y-105764050D01*
X147544575Y-105410000D01*
X147864903Y-105410000D01*
X147864838Y-105485167D01*
X148006883Y-105828943D01*
X148040000Y-105862118D01*
X148040000Y-110700000D01*
X148097852Y-110990839D01*
X148262599Y-111237401D01*
X149061819Y-112036621D01*
X149308381Y-112201368D01*
X149502595Y-112240000D01*
X145934922Y-112240000D01*
X145935162Y-111964833D01*
X145793117Y-111621057D01*
X145530327Y-111357808D01*
X145186799Y-111215162D01*
X144814833Y-111214838D01*
X144520617Y-111336405D01*
X144464090Y-111248559D01*
X144251890Y-111103569D01*
X144000000Y-111052560D01*
X143500000Y-111052560D01*
X143264683Y-111096838D01*
X143048559Y-111235910D01*
X143000866Y-111305711D01*
X142964090Y-111248559D01*
X142751890Y-111103569D01*
X142500000Y-111052560D01*
X142000000Y-111052560D01*
X141764683Y-111096838D01*
X141580946Y-111215070D01*
X141314833Y-111214838D01*
X140971057Y-111356883D01*
X140707808Y-111619673D01*
X140565162Y-111963201D01*
X140564921Y-112240000D01*
X130114802Y-112240000D01*
X129160000Y-111285198D01*
X129160000Y-108047440D01*
X129200000Y-108047440D01*
X129435317Y-108003162D01*
X129651441Y-107864090D01*
X129796431Y-107651890D01*
X129826597Y-107502926D01*
X129925302Y-107650648D01*
X130390849Y-107961717D01*
X130940000Y-108070950D01*
X131489151Y-107961717D01*
X131954698Y-107650648D01*
X132210000Y-107268562D01*
X132465302Y-107650648D01*
X132930849Y-107961717D01*
X133480000Y-108070950D01*
X134029151Y-107961717D01*
X134494698Y-107650648D01*
X134747507Y-107272293D01*
X135095104Y-107704500D01*
X135588181Y-107974367D01*
X135670961Y-107991904D01*
X135893000Y-107869915D01*
X135893000Y-106327000D01*
X136147000Y-106327000D01*
X136147000Y-107869915D01*
X136369039Y-107991904D01*
X136451819Y-107974367D01*
X136944896Y-107704500D01*
X137290000Y-107275393D01*
X137635104Y-107704500D01*
X138128181Y-107974367D01*
X138210961Y-107991904D01*
X138433000Y-107869915D01*
X138433000Y-106327000D01*
X136147000Y-106327000D01*
X135893000Y-106327000D01*
X135873000Y-106327000D01*
X135873000Y-106073000D01*
X135893000Y-106073000D01*
X135893000Y-104530085D01*
X136147000Y-104530085D01*
X136147000Y-106073000D01*
X138433000Y-106073000D01*
X138433000Y-104530085D01*
X138210961Y-104408096D01*
X138128181Y-104425633D01*
X137635104Y-104695500D01*
X137290000Y-105124607D01*
X136944896Y-104695500D01*
X136451819Y-104425633D01*
X136369039Y-104408096D01*
X136147000Y-104530085D01*
X135893000Y-104530085D01*
X135670961Y-104408096D01*
X135588181Y-104425633D01*
X135095104Y-104695500D01*
X134747507Y-105127707D01*
X134494698Y-104749352D01*
X134029151Y-104438283D01*
X133480000Y-104329050D01*
X132930849Y-104438283D01*
X132465302Y-104749352D01*
X132210000Y-105131438D01*
X131954698Y-104749352D01*
X131489151Y-104438283D01*
X130940000Y-104329050D01*
X130390849Y-104438283D01*
X129925302Y-104749352D01*
X129827749Y-104895350D01*
X129803162Y-104764683D01*
X129664090Y-104548559D01*
X129451890Y-104403569D01*
X129200000Y-104352560D01*
X127600000Y-104352560D01*
X127364683Y-104396838D01*
X127148559Y-104535910D01*
X127003569Y-104748110D01*
X126952560Y-105000000D01*
X126952560Y-107400000D01*
X126996838Y-107635317D01*
X127135910Y-107851441D01*
X127348110Y-107996431D01*
X127600000Y-108047440D01*
X127640000Y-108047440D01*
X127640000Y-111600000D01*
X127697852Y-111890839D01*
X127862599Y-112137401D01*
X128276487Y-112551289D01*
X128107808Y-112719673D01*
X127965162Y-113063201D01*
X127965095Y-113140000D01*
X124894804Y-113140000D01*
X124840002Y-113085198D01*
X124840002Y-109371888D01*
X124782150Y-109081049D01*
X124617403Y-108834487D01*
X121372600Y-105589684D01*
X121372600Y-98923186D01*
X121459031Y-98796690D01*
X121510040Y-98544800D01*
X121510040Y-97644800D01*
X121465762Y-97409483D01*
X121326690Y-97193359D01*
X121114490Y-97048369D01*
X120862600Y-96997360D01*
X120560000Y-96997360D01*
X120560000Y-94381000D01*
X120502148Y-94090161D01*
X120366110Y-93886565D01*
X120366162Y-93826833D01*
X120224117Y-93483057D01*
X119961327Y-93219808D01*
X119617799Y-93077162D01*
X119245833Y-93076838D01*
X118902057Y-93218883D01*
X118638808Y-93481673D01*
X118535419Y-93730661D01*
X118509033Y-93730638D01*
X118266622Y-93830800D01*
X118008400Y-93830800D01*
X117688859Y-93894361D01*
X117512800Y-94012000D01*
X117417966Y-94075366D01*
X116564526Y-94928806D01*
X116383521Y-95199699D01*
X116351712Y-95359612D01*
X116314650Y-95334289D01*
X116293997Y-95330107D01*
X116259610Y-95295720D01*
X116190451Y-95295720D01*
X116168694Y-95304732D01*
X116124072Y-95295696D01*
X116124162Y-95191833D01*
X115982117Y-94848057D01*
X115719327Y-94584808D01*
X115375799Y-94442162D01*
X115003833Y-94441838D01*
X114660057Y-94583883D01*
X114396808Y-94846673D01*
X114254162Y-95190201D01*
X114254063Y-95303394D01*
X114229298Y-95308054D01*
X114106960Y-95283280D01*
X113700560Y-95283280D01*
X113582064Y-95305577D01*
X113471960Y-95283280D01*
X113065560Y-95283280D01*
X112830243Y-95327558D01*
X112614119Y-95466630D01*
X112469129Y-95678830D01*
X112418120Y-95930720D01*
X112418120Y-97200720D01*
X112462398Y-97436037D01*
X112508760Y-97508086D01*
X112508760Y-97606960D01*
X112157000Y-97606960D01*
X111921683Y-97651238D01*
X111705559Y-97790310D01*
X111625828Y-97907000D01*
X111360686Y-97907000D01*
X111449200Y-97693309D01*
X111449200Y-97452750D01*
X111290450Y-97294000D01*
X110566200Y-97294000D01*
X110566200Y-97314000D01*
X110312200Y-97314000D01*
X110312200Y-97294000D01*
X110292200Y-97294000D01*
X110292200Y-97040000D01*
X110312200Y-97040000D01*
X110312200Y-96290750D01*
X110566200Y-96290750D01*
X110566200Y-97040000D01*
X111290450Y-97040000D01*
X111449200Y-96881250D01*
X111449200Y-96640691D01*
X111352527Y-96407302D01*
X111173899Y-96228673D01*
X110940510Y-96132000D01*
X110724950Y-96132000D01*
X110566200Y-96290750D01*
X110312200Y-96290750D01*
X110153450Y-96132000D01*
X109937890Y-96132000D01*
X109704501Y-96228673D01*
X109525873Y-96407302D01*
X109429200Y-96640691D01*
X109429200Y-96881250D01*
X109452499Y-96904549D01*
X109365710Y-96868600D01*
X109150150Y-96868600D01*
X108991400Y-97027350D01*
X108991400Y-97776600D01*
X109011400Y-97776600D01*
X109011400Y-98030600D01*
X108991400Y-98030600D01*
X108991400Y-98050600D01*
X108737400Y-98050600D01*
X108737400Y-98030600D01*
X108013150Y-98030600D01*
X107854400Y-98189350D01*
X107854400Y-98429909D01*
X107951073Y-98663298D01*
X107952443Y-98664668D01*
X107892969Y-98751710D01*
X107841960Y-99003600D01*
X107841960Y-99803600D01*
X107886238Y-100038917D01*
X108025310Y-100255041D01*
X108237510Y-100400031D01*
X108254634Y-100403499D01*
X108326999Y-100511801D01*
X108682599Y-100867401D01*
X108929160Y-101032148D01*
X109220000Y-101090000D01*
X109540000Y-101090000D01*
X109540000Y-103737711D01*
X109407808Y-103869673D01*
X109296078Y-104138748D01*
X109098090Y-104003469D01*
X109013419Y-103986323D01*
X109248604Y-103634345D01*
X109335000Y-103200000D01*
X109248604Y-102765654D01*
X109002566Y-102397434D01*
X108634346Y-102151396D01*
X108200000Y-102065000D01*
X107948631Y-102115000D01*
X106800000Y-102115000D01*
X106775000Y-102119973D01*
X106750000Y-102115000D01*
X106315655Y-102201396D01*
X105947434Y-102447433D01*
X105738867Y-102656000D01*
X105485192Y-102656000D01*
X105378090Y-102489559D01*
X105165890Y-102344569D01*
X105057893Y-102322699D01*
X105335645Y-102017924D01*
X105505476Y-101607890D01*
X105414632Y-101435750D01*
X105940000Y-101435750D01*
X105940000Y-101576309D01*
X106036673Y-101809698D01*
X106215301Y-101988327D01*
X106448690Y-102085000D01*
X106528750Y-102085000D01*
X106687500Y-101926250D01*
X106687500Y-101277000D01*
X106912500Y-101277000D01*
X106912500Y-101926250D01*
X107071250Y-102085000D01*
X107151310Y-102085000D01*
X107384699Y-101988327D01*
X107563327Y-101809698D01*
X107660000Y-101576309D01*
X107660000Y-101435750D01*
X107501250Y-101277000D01*
X106912500Y-101277000D01*
X106687500Y-101277000D01*
X106098750Y-101277000D01*
X105940000Y-101435750D01*
X105414632Y-101435750D01*
X105384155Y-101378000D01*
X104191000Y-101378000D01*
X104191000Y-101398000D01*
X103937000Y-101398000D01*
X103937000Y-101378000D01*
X102743845Y-101378000D01*
X102622524Y-101607890D01*
X102792355Y-102017924D01*
X103068501Y-102320937D01*
X102978683Y-102337838D01*
X102762559Y-102476910D01*
X102617569Y-102689110D01*
X102566560Y-102941000D01*
X100710000Y-102941000D01*
X100710000Y-100894110D01*
X102622524Y-100894110D01*
X102743845Y-101124000D01*
X103937000Y-101124000D01*
X103937000Y-99930181D01*
X104191000Y-99930181D01*
X104191000Y-101124000D01*
X105384155Y-101124000D01*
X105505476Y-100894110D01*
X105434891Y-100723691D01*
X105940000Y-100723691D01*
X105940000Y-100864250D01*
X106098750Y-101023000D01*
X106687500Y-101023000D01*
X106687500Y-100373750D01*
X106912500Y-100373750D01*
X106912500Y-101023000D01*
X107501250Y-101023000D01*
X107660000Y-100864250D01*
X107660000Y-100723691D01*
X107563327Y-100490302D01*
X107384699Y-100311673D01*
X107151310Y-100215000D01*
X107071250Y-100215000D01*
X106912500Y-100373750D01*
X106687500Y-100373750D01*
X106528750Y-100215000D01*
X106448690Y-100215000D01*
X106215301Y-100311673D01*
X106036673Y-100490302D01*
X105940000Y-100723691D01*
X105434891Y-100723691D01*
X105335645Y-100484076D01*
X104945358Y-100055817D01*
X104420892Y-99809514D01*
X104191000Y-99930181D01*
X103937000Y-99930181D01*
X103707108Y-99809514D01*
X103182642Y-100055817D01*
X102792355Y-100484076D01*
X102622524Y-100894110D01*
X100710000Y-100894110D01*
X100710000Y-97377291D01*
X107854400Y-97377291D01*
X107854400Y-97617850D01*
X108013150Y-97776600D01*
X108737400Y-97776600D01*
X108737400Y-97027350D01*
X108578650Y-96868600D01*
X108363090Y-96868600D01*
X108129701Y-96965273D01*
X107951073Y-97143902D01*
X107854400Y-97377291D01*
X100710000Y-97377291D01*
X100710000Y-94150000D01*
X102502560Y-94150000D01*
X102502560Y-95850000D01*
X102546838Y-96085317D01*
X102685910Y-96301441D01*
X102898110Y-96446431D01*
X103150000Y-96497440D01*
X104850000Y-96497440D01*
X105085317Y-96453162D01*
X105301441Y-96314090D01*
X105446431Y-96101890D01*
X105497440Y-95850000D01*
X105497440Y-94150000D01*
X105453162Y-93914683D01*
X105314090Y-93698559D01*
X105101890Y-93553569D01*
X104850000Y-93502560D01*
X103150000Y-93502560D01*
X102914683Y-93546838D01*
X102698559Y-93685910D01*
X102553569Y-93898110D01*
X102502560Y-94150000D01*
X100710000Y-94150000D01*
X100710000Y-91500000D01*
X102485907Y-91500000D01*
X102598946Y-92068285D01*
X102920853Y-92550054D01*
X103402622Y-92871961D01*
X103970907Y-92985000D01*
X104029093Y-92985000D01*
X104597378Y-92871961D01*
X105079147Y-92550054D01*
X105401054Y-92068285D01*
X105514093Y-91500000D01*
X105401054Y-90931715D01*
X105079147Y-90449946D01*
X104597378Y-90128039D01*
X104029093Y-90015000D01*
X103970907Y-90015000D01*
X103402622Y-90128039D01*
X102920853Y-90449946D01*
X102598946Y-90931715D01*
X102485907Y-91500000D01*
X100710000Y-91500000D01*
X100710000Y-83870402D01*
X101232321Y-84393636D01*
X102053481Y-84734611D01*
X102942619Y-84735387D01*
X103764372Y-84395845D01*
X104393636Y-83767679D01*
X104734611Y-82946519D01*
X104735364Y-82082853D01*
X134262458Y-82082853D01*
X135000000Y-82820395D01*
X135737542Y-82082853D01*
X141762458Y-82082853D01*
X142500000Y-82820395D01*
X143237542Y-82082853D01*
X149262458Y-82082853D01*
X150000000Y-82820395D01*
X150737542Y-82082853D01*
X150678781Y-81849672D01*
X150186900Y-81677478D01*
X149666566Y-81706625D01*
X149321219Y-81849672D01*
X149262458Y-82082853D01*
X143237542Y-82082853D01*
X143178781Y-81849672D01*
X142686900Y-81677478D01*
X142166566Y-81706625D01*
X141821219Y-81849672D01*
X141762458Y-82082853D01*
X135737542Y-82082853D01*
X135678781Y-81849672D01*
X135186900Y-81677478D01*
X134666566Y-81706625D01*
X134321219Y-81849672D01*
X134262458Y-82082853D01*
X104735364Y-82082853D01*
X104735387Y-82057381D01*
X104395845Y-81235628D01*
X103871134Y-80710000D01*
X166129598Y-80710000D01*
X165606364Y-81232321D01*
X165606364Y-81232321D01*
G37*
X165606364Y-81232321D02*
X165265389Y-82053481D01*
X165264613Y-82942619D01*
X165604155Y-83764372D01*
X166232321Y-84393636D01*
X167053481Y-84734611D01*
X167942619Y-84735387D01*
X168764372Y-84395845D01*
X169290000Y-83871134D01*
X169290000Y-89057803D01*
X169126309Y-88990000D01*
X168885750Y-88990000D01*
X168727000Y-89148750D01*
X168727000Y-89873000D01*
X168747000Y-89873000D01*
X168747000Y-90127000D01*
X168727000Y-90127000D01*
X168727000Y-90851250D01*
X168777000Y-90901250D01*
X168777000Y-91573000D01*
X168797000Y-91573000D01*
X168797000Y-91827000D01*
X168777000Y-91827000D01*
X168777000Y-92551250D01*
X168825740Y-92599990D01*
X168825740Y-93373780D01*
X168845740Y-93373780D01*
X168845740Y-93627780D01*
X168825740Y-93627780D01*
X168825740Y-94726330D01*
X168984490Y-94885080D01*
X169274629Y-94885080D01*
X169290000Y-94878713D01*
X169290000Y-110121287D01*
X169274629Y-110114920D01*
X168984490Y-110114920D01*
X168825740Y-110273670D01*
X168825740Y-111372220D01*
X168845740Y-111372220D01*
X168845740Y-111626220D01*
X168825740Y-111626220D01*
X168825740Y-112724770D01*
X168984490Y-112883520D01*
X169274629Y-112883520D01*
X169290000Y-112877153D01*
X169290000Y-121129598D01*
X168767679Y-120606364D01*
X167946519Y-120265389D01*
X167057381Y-120264613D01*
X166235628Y-120604155D01*
X165606364Y-121232321D01*
X165265389Y-122053481D01*
X165264613Y-122942619D01*
X165604155Y-123764372D01*
X166128866Y-124290000D01*
X115264840Y-124290000D01*
X115412763Y-124217368D01*
X115700002Y-123876678D01*
X115835000Y-123452000D01*
X115835000Y-123285750D01*
X120165000Y-123285750D01*
X120165000Y-123726309D01*
X120261673Y-123959698D01*
X120440301Y-124138327D01*
X120673690Y-124235000D01*
X121114250Y-124235000D01*
X121273000Y-124076250D01*
X121273000Y-123127000D01*
X121527000Y-123127000D01*
X121527000Y-124076250D01*
X121685750Y-124235000D01*
X122126310Y-124235000D01*
X122359699Y-124138327D01*
X122538327Y-123959698D01*
X122635000Y-123726309D01*
X122635000Y-123285750D01*
X122476250Y-123127000D01*
X121527000Y-123127000D01*
X121273000Y-123127000D01*
X120323750Y-123127000D01*
X120165000Y-123285750D01*
X115835000Y-123285750D01*
X115835000Y-123177000D01*
X114827000Y-123177000D01*
X114827000Y-123197000D01*
X114573000Y-123197000D01*
X114573000Y-123177000D01*
X113565000Y-123177000D01*
X113565000Y-123452000D01*
X113699998Y-123876678D01*
X113987237Y-124217368D01*
X114135160Y-124290000D01*
X108264840Y-124290000D01*
X108412763Y-124217368D01*
X108700002Y-123876678D01*
X108835000Y-123452000D01*
X108835000Y-123177000D01*
X107827000Y-123177000D01*
X107827000Y-123197000D01*
X107573000Y-123197000D01*
X107573000Y-123177000D01*
X106565000Y-123177000D01*
X106565000Y-123452000D01*
X106699998Y-123876678D01*
X106987237Y-124217368D01*
X107135160Y-124290000D01*
X103870402Y-124290000D01*
X104393636Y-123767679D01*
X104734611Y-122946519D01*
X104734871Y-122648000D01*
X106565000Y-122648000D01*
X106565000Y-122923000D01*
X107573000Y-122923000D01*
X107573000Y-121807046D01*
X107827000Y-121807046D01*
X107827000Y-122923000D01*
X108835000Y-122923000D01*
X108835000Y-122648000D01*
X113565000Y-122648000D01*
X113565000Y-122923000D01*
X114573000Y-122923000D01*
X114573000Y-121807046D01*
X114827000Y-121807046D01*
X114827000Y-122923000D01*
X115835000Y-122923000D01*
X115835000Y-122917147D01*
X126762458Y-122917147D01*
X126821219Y-123150328D01*
X127313100Y-123322522D01*
X127833434Y-123293375D01*
X128178781Y-123150328D01*
X128237542Y-122917147D01*
X134262458Y-122917147D01*
X134321219Y-123150328D01*
X134813100Y-123322522D01*
X135333434Y-123293375D01*
X135678781Y-123150328D01*
X135737542Y-122917147D01*
X135000000Y-122179605D01*
X134262458Y-122917147D01*
X128237542Y-122917147D01*
X127500000Y-122179605D01*
X126762458Y-122917147D01*
X115835000Y-122917147D01*
X115835000Y-122648000D01*
X115700002Y-122223322D01*
X115412763Y-121882632D01*
X115001874Y-121680881D01*
X114827000Y-121807046D01*
X114573000Y-121807046D01*
X114398126Y-121680881D01*
X113987237Y-121882632D01*
X113699998Y-122223322D01*
X113565000Y-122648000D01*
X108835000Y-122648000D01*
X108700002Y-122223322D01*
X108412763Y-121882632D01*
X108001874Y-121680881D01*
X107827000Y-121807046D01*
X107573000Y-121807046D01*
X107398126Y-121680881D01*
X106987237Y-121882632D01*
X106699998Y-122223322D01*
X106565000Y-122648000D01*
X104734871Y-122648000D01*
X104735387Y-122057381D01*
X104395845Y-121235628D01*
X103809181Y-120647938D01*
X107480732Y-120647938D01*
X107664448Y-121021821D01*
X107988951Y-121309568D01*
X108398869Y-121451229D01*
X108573000Y-121302563D01*
X108573000Y-120477000D01*
X107607266Y-120477000D01*
X107480732Y-120647938D01*
X103809181Y-120647938D01*
X103767679Y-120606364D01*
X102946519Y-120265389D01*
X102057381Y-120264613D01*
X101235628Y-120604155D01*
X100710000Y-121128866D01*
X100710000Y-112650000D01*
X102502560Y-112650000D01*
X102502560Y-114350000D01*
X102546838Y-114585317D01*
X102685910Y-114801441D01*
X102898110Y-114946431D01*
X103150000Y-114997440D01*
X104850000Y-114997440D01*
X105085317Y-114953162D01*
X105301441Y-114814090D01*
X105446431Y-114601890D01*
X105497440Y-114350000D01*
X105497440Y-112650000D01*
X105453162Y-112414683D01*
X105314090Y-112198559D01*
X105101890Y-112053569D01*
X104850000Y-112002560D01*
X103150000Y-112002560D01*
X102914683Y-112046838D01*
X102698559Y-112185910D01*
X102553569Y-112398110D01*
X102502560Y-112650000D01*
X100710000Y-112650000D01*
X100710000Y-110000000D01*
X102485907Y-110000000D01*
X102598946Y-110568285D01*
X102920853Y-111050054D01*
X103402622Y-111371961D01*
X103970907Y-111485000D01*
X104029093Y-111485000D01*
X104597378Y-111371961D01*
X105079147Y-111050054D01*
X105401054Y-110568285D01*
X105514093Y-110000000D01*
X105401054Y-109431715D01*
X105079147Y-108949946D01*
X104597378Y-108628039D01*
X104029093Y-108515000D01*
X103970907Y-108515000D01*
X103402622Y-108628039D01*
X102920853Y-108949946D01*
X102598946Y-109431715D01*
X102485907Y-110000000D01*
X100710000Y-110000000D01*
X100710000Y-102941000D01*
X102566560Y-102941000D01*
X102566560Y-104641000D01*
X102610838Y-104876317D01*
X102749910Y-105092441D01*
X102962110Y-105237431D01*
X103214000Y-105288440D01*
X104914000Y-105288440D01*
X105149317Y-105244162D01*
X105365441Y-105105090D01*
X105487808Y-104926000D01*
X105506360Y-104926000D01*
X105506360Y-106200100D01*
X105550638Y-106435417D01*
X105689710Y-106651541D01*
X105901910Y-106796531D01*
X106153800Y-106847540D01*
X107052055Y-106847540D01*
X106838199Y-106990434D01*
X106809566Y-107009566D01*
X106209566Y-107609566D01*
X106028561Y-107880459D01*
X105965000Y-108200000D01*
X105965000Y-116800000D01*
X106028561Y-117119541D01*
X106201632Y-117378560D01*
X106209566Y-117390434D01*
X107409566Y-118590434D01*
X107680459Y-118771439D01*
X108000000Y-118835000D01*
X108364882Y-118835000D01*
X108364838Y-118885167D01*
X108506883Y-119228943D01*
X108572998Y-119295173D01*
X108572998Y-119397435D01*
X108398869Y-119248771D01*
X107988951Y-119390432D01*
X107664448Y-119678179D01*
X107480732Y-120052062D01*
X107607266Y-120223000D01*
X108573000Y-120223000D01*
X108573000Y-120203000D01*
X108827000Y-120203000D01*
X108827000Y-120223000D01*
X108847000Y-120223000D01*
X108847000Y-120477000D01*
X108827000Y-120477000D01*
X108827000Y-121302563D01*
X109001131Y-121451229D01*
X109179926Y-121389440D01*
X109235910Y-121476441D01*
X109448110Y-121621431D01*
X109700000Y-121672440D01*
X110100000Y-121672440D01*
X110229589Y-121648056D01*
X110350000Y-121672440D01*
X110750000Y-121672440D01*
X110879589Y-121648056D01*
X111000000Y-121672440D01*
X111400000Y-121672440D01*
X111529589Y-121648056D01*
X111650000Y-121672440D01*
X112050000Y-121672440D01*
X112155705Y-121652550D01*
X112173690Y-121660000D01*
X112241250Y-121660000D01*
X112270254Y-121630996D01*
X112285317Y-121628162D01*
X112501441Y-121489090D01*
X112600000Y-121344844D01*
X112600000Y-121501250D01*
X112758750Y-121660000D01*
X112826310Y-121660000D01*
X113059699Y-121563327D01*
X113230115Y-121392910D01*
X113398869Y-121451229D01*
X113573000Y-121302563D01*
X113573000Y-120477000D01*
X113827000Y-120477000D01*
X113827000Y-121302563D01*
X114001131Y-121451229D01*
X114411049Y-121309568D01*
X114735552Y-121021821D01*
X114919268Y-120647938D01*
X114792734Y-120477000D01*
X113827000Y-120477000D01*
X113573000Y-120477000D01*
X113553000Y-120477000D01*
X113553000Y-120223000D01*
X113573000Y-120223000D01*
X113573000Y-119397437D01*
X113827000Y-119397437D01*
X113827000Y-120223000D01*
X114792734Y-120223000D01*
X114919268Y-120052062D01*
X114735552Y-119678179D01*
X114411049Y-119390432D01*
X114001131Y-119248771D01*
X113827000Y-119397437D01*
X113573000Y-119397437D01*
X113398869Y-119248771D01*
X113230115Y-119307090D01*
X113059699Y-119136673D01*
X112826310Y-119040000D01*
X112758750Y-119040000D01*
X112600000Y-119198750D01*
X112600000Y-119357067D01*
X112514090Y-119223559D01*
X112301890Y-119078569D01*
X112274215Y-119072965D01*
X112241250Y-119040000D01*
X112173690Y-119040000D01*
X112153247Y-119048468D01*
X112050000Y-119027560D01*
X112035000Y-119027560D01*
X112035000Y-118600000D01*
X111971439Y-118280459D01*
X111790434Y-118009566D01*
X111356449Y-117575581D01*
X111434838Y-117386799D01*
X111435162Y-117014833D01*
X111422835Y-116985000D01*
X113236478Y-116985000D01*
X113241910Y-116993441D01*
X113454110Y-117138431D01*
X113571000Y-117162102D01*
X113571000Y-117606000D01*
X113657397Y-118040346D01*
X113866414Y-118353162D01*
X113903434Y-118408566D01*
X114397433Y-118902566D01*
X114765654Y-119148603D01*
X115200000Y-119235000D01*
X116950000Y-119235000D01*
X117384346Y-119148603D01*
X117752566Y-118902566D01*
X117998603Y-118534346D01*
X118000000Y-118527323D01*
X118001397Y-118534346D01*
X118247434Y-118902566D01*
X118615654Y-119148603D01*
X119050000Y-119235000D01*
X119484346Y-119148603D01*
X119852566Y-118902566D01*
X120098603Y-118534346D01*
X120185000Y-118100000D01*
X120185000Y-116620132D01*
X120765692Y-116039440D01*
X121565000Y-116039440D01*
X121565000Y-116652560D01*
X120950000Y-116652560D01*
X120714683Y-116696838D01*
X120498559Y-116835910D01*
X120353569Y-117048110D01*
X120302560Y-117300000D01*
X120302560Y-117800000D01*
X120346838Y-118035317D01*
X120485910Y-118251441D01*
X120555711Y-118299134D01*
X120498559Y-118335910D01*
X120353569Y-118548110D01*
X120302560Y-118800000D01*
X120302560Y-118861174D01*
X120265000Y-119050000D01*
X120265000Y-119858203D01*
X120203569Y-119948110D01*
X120152560Y-120200000D01*
X120152560Y-121400000D01*
X120196838Y-121635317D01*
X120335910Y-121851441D01*
X120404006Y-121897969D01*
X120261673Y-122040302D01*
X120165000Y-122273691D01*
X120165000Y-122714250D01*
X120323750Y-122873000D01*
X121273000Y-122873000D01*
X121273000Y-122853000D01*
X121527000Y-122853000D01*
X121527000Y-122873000D01*
X122476250Y-122873000D01*
X122635000Y-122714250D01*
X122635000Y-122273691D01*
X122538327Y-122040302D01*
X122533776Y-122035750D01*
X122990000Y-122035750D01*
X122990000Y-122276309D01*
X123086673Y-122509698D01*
X123265301Y-122688327D01*
X123498690Y-122785000D01*
X123714250Y-122785000D01*
X123873000Y-122626250D01*
X123873000Y-121877000D01*
X124127000Y-121877000D01*
X124127000Y-122626250D01*
X124285750Y-122785000D01*
X124501310Y-122785000D01*
X124734699Y-122688327D01*
X124913327Y-122509698D01*
X125010000Y-122276309D01*
X125010000Y-122035750D01*
X124851250Y-121877000D01*
X124127000Y-121877000D01*
X123873000Y-121877000D01*
X123148750Y-121877000D01*
X122990000Y-122035750D01*
X122533776Y-122035750D01*
X122397090Y-121899064D01*
X122451441Y-121864090D01*
X122596431Y-121651890D01*
X122647440Y-121400000D01*
X122647440Y-121119388D01*
X122915654Y-121298603D01*
X122990000Y-121313391D01*
X122990000Y-121464250D01*
X123148750Y-121623000D01*
X123873000Y-121623000D01*
X123873000Y-121603000D01*
X124127000Y-121603000D01*
X124127000Y-121623000D01*
X124851250Y-121623000D01*
X125010000Y-121464250D01*
X125010000Y-121385000D01*
X126327344Y-121385000D01*
X126177478Y-121813100D01*
X126206625Y-122333434D01*
X126349672Y-122678781D01*
X126582853Y-122737542D01*
X127320395Y-122000000D01*
X127306253Y-121985858D01*
X127485858Y-121806253D01*
X127500000Y-121820395D01*
X127514143Y-121806253D01*
X127693748Y-121985858D01*
X127679605Y-122000000D01*
X128417147Y-122737542D01*
X128650328Y-122678781D01*
X128822522Y-122186900D01*
X128814056Y-122035750D01*
X130490000Y-122035750D01*
X130490000Y-122276309D01*
X130586673Y-122509698D01*
X130765301Y-122688327D01*
X130998690Y-122785000D01*
X131214250Y-122785000D01*
X131373000Y-122626250D01*
X131373000Y-121877000D01*
X131627000Y-121877000D01*
X131627000Y-122626250D01*
X131785750Y-122785000D01*
X132001310Y-122785000D01*
X132234699Y-122688327D01*
X132413327Y-122509698D01*
X132510000Y-122276309D01*
X132510000Y-122035750D01*
X132351250Y-121877000D01*
X131627000Y-121877000D01*
X131373000Y-121877000D01*
X130648750Y-121877000D01*
X130490000Y-122035750D01*
X128814056Y-122035750D01*
X128793375Y-121666566D01*
X128676747Y-121385000D01*
X130490000Y-121385000D01*
X130490000Y-121464250D01*
X130648750Y-121623000D01*
X131373000Y-121623000D01*
X131373000Y-121603000D01*
X131627000Y-121603000D01*
X131627000Y-121623000D01*
X132351250Y-121623000D01*
X132510000Y-121464250D01*
X132510000Y-121385000D01*
X133827344Y-121385000D01*
X133677478Y-121813100D01*
X133706625Y-122333434D01*
X133849672Y-122678781D01*
X134082853Y-122737542D01*
X134820395Y-122000000D01*
X134806253Y-121985858D01*
X134985858Y-121806253D01*
X135000000Y-121820395D01*
X135014143Y-121806253D01*
X135193748Y-121985858D01*
X135179605Y-122000000D01*
X135917147Y-122737542D01*
X136150328Y-122678781D01*
X136200399Y-122535750D01*
X137990000Y-122535750D01*
X137990000Y-122776309D01*
X138086673Y-123009698D01*
X138265301Y-123188327D01*
X138498690Y-123285000D01*
X138714250Y-123285000D01*
X138873000Y-123126250D01*
X138873000Y-122377000D01*
X139127000Y-122377000D01*
X139127000Y-123126250D01*
X139285750Y-123285000D01*
X139501310Y-123285000D01*
X139734699Y-123188327D01*
X139913327Y-123009698D01*
X139943485Y-122936890D01*
X140058524Y-122936890D01*
X140228355Y-123346924D01*
X140618642Y-123775183D01*
X141143108Y-124021486D01*
X141373000Y-123900819D01*
X141373000Y-122707000D01*
X141627000Y-122707000D01*
X141627000Y-123900819D01*
X141856892Y-124021486D01*
X142381358Y-123775183D01*
X142771645Y-123346924D01*
X142941476Y-122936890D01*
X142820155Y-122707000D01*
X141627000Y-122707000D01*
X141373000Y-122707000D01*
X140179845Y-122707000D01*
X140058524Y-122936890D01*
X139943485Y-122936890D01*
X140010000Y-122776309D01*
X140010000Y-122535750D01*
X143490000Y-122535750D01*
X143490000Y-122776309D01*
X143586673Y-123009698D01*
X143765301Y-123188327D01*
X143998690Y-123285000D01*
X144214250Y-123285000D01*
X144373000Y-123126250D01*
X144373000Y-122377000D01*
X144627000Y-122377000D01*
X144627000Y-123126250D01*
X144785750Y-123285000D01*
X145001310Y-123285000D01*
X145234699Y-123188327D01*
X145413327Y-123009698D01*
X145443485Y-122936890D01*
X145558524Y-122936890D01*
X145728355Y-123346924D01*
X146118642Y-123775183D01*
X146643108Y-124021486D01*
X146873000Y-123900819D01*
X146873000Y-122707000D01*
X147127000Y-122707000D01*
X147127000Y-123900819D01*
X147356892Y-124021486D01*
X147881358Y-123775183D01*
X148271645Y-123346924D01*
X148441476Y-122936890D01*
X148320155Y-122707000D01*
X147127000Y-122707000D01*
X146873000Y-122707000D01*
X145679845Y-122707000D01*
X145558524Y-122936890D01*
X145443485Y-122936890D01*
X145510000Y-122776309D01*
X145510000Y-122535750D01*
X148990000Y-122535750D01*
X148990000Y-122776309D01*
X149086673Y-123009698D01*
X149265301Y-123188327D01*
X149498690Y-123285000D01*
X149714250Y-123285000D01*
X149873000Y-123126250D01*
X149873000Y-122377000D01*
X150127000Y-122377000D01*
X150127000Y-123126250D01*
X150285750Y-123285000D01*
X150501310Y-123285000D01*
X150734699Y-123188327D01*
X150913327Y-123009698D01*
X150943485Y-122936890D01*
X151058524Y-122936890D01*
X151228355Y-123346924D01*
X151618642Y-123775183D01*
X152143108Y-124021486D01*
X152373000Y-123900819D01*
X152373000Y-122707000D01*
X152627000Y-122707000D01*
X152627000Y-123900819D01*
X152856892Y-124021486D01*
X153381358Y-123775183D01*
X153771645Y-123346924D01*
X153941476Y-122936890D01*
X153820155Y-122707000D01*
X152627000Y-122707000D01*
X152373000Y-122707000D01*
X151179845Y-122707000D01*
X151058524Y-122936890D01*
X150943485Y-122936890D01*
X151010000Y-122776309D01*
X151010000Y-122535750D01*
X150851250Y-122377000D01*
X150127000Y-122377000D01*
X149873000Y-122377000D01*
X149148750Y-122377000D01*
X148990000Y-122535750D01*
X145510000Y-122535750D01*
X145351250Y-122377000D01*
X144627000Y-122377000D01*
X144373000Y-122377000D01*
X143648750Y-122377000D01*
X143490000Y-122535750D01*
X140010000Y-122535750D01*
X139851250Y-122377000D01*
X139127000Y-122377000D01*
X138873000Y-122377000D01*
X138148750Y-122377000D01*
X137990000Y-122535750D01*
X136200399Y-122535750D01*
X136322522Y-122186900D01*
X136293375Y-121666566D01*
X136150328Y-121321219D01*
X135917149Y-121262459D01*
X136032502Y-121147106D01*
X136020396Y-121135000D01*
X137779868Y-121135000D01*
X138019903Y-121375035D01*
X138021838Y-121385317D01*
X138088329Y-121488646D01*
X138086673Y-121490302D01*
X137990000Y-121723691D01*
X137990000Y-121964250D01*
X138148750Y-122123000D01*
X138873000Y-122123000D01*
X138873000Y-122103000D01*
X139127000Y-122103000D01*
X139127000Y-122123000D01*
X139851250Y-122123000D01*
X140010000Y-121964250D01*
X140010000Y-121885000D01*
X140198565Y-121885000D01*
X140058524Y-122223110D01*
X140179845Y-122453000D01*
X141373000Y-122453000D01*
X141373000Y-122433000D01*
X141627000Y-122433000D01*
X141627000Y-122453000D01*
X142820155Y-122453000D01*
X142941476Y-122223110D01*
X142771645Y-121813076D01*
X142381358Y-121384817D01*
X142238447Y-121317702D01*
X142579147Y-121090054D01*
X142901054Y-120608285D01*
X143014093Y-120040000D01*
X142901054Y-119471715D01*
X142579147Y-118989946D01*
X142537548Y-118962150D01*
X142585317Y-118953162D01*
X142801441Y-118814090D01*
X142946431Y-118601890D01*
X142997440Y-118350000D01*
X142997440Y-116650000D01*
X142971097Y-116510000D01*
X145530911Y-116510000D01*
X145502560Y-116650000D01*
X145502560Y-118350000D01*
X145546838Y-118585317D01*
X145685910Y-118801441D01*
X145898110Y-118946431D01*
X145965541Y-118960086D01*
X145920853Y-118989946D01*
X145599402Y-119471033D01*
X145548604Y-119215655D01*
X145302566Y-118847434D01*
X145252566Y-118797434D01*
X144884345Y-118551397D01*
X144450000Y-118465000D01*
X144015655Y-118551397D01*
X143647434Y-118797434D01*
X143401397Y-119165655D01*
X143315000Y-119600000D01*
X143365000Y-119851366D01*
X143365000Y-120750000D01*
X143451397Y-121184346D01*
X143496812Y-121252314D01*
X143521838Y-121385317D01*
X143588329Y-121488646D01*
X143586673Y-121490302D01*
X143490000Y-121723691D01*
X143490000Y-121964250D01*
X143648750Y-122123000D01*
X144373000Y-122123000D01*
X144373000Y-122103000D01*
X144627000Y-122103000D01*
X144627000Y-122123000D01*
X145351250Y-122123000D01*
X145510000Y-121964250D01*
X145510000Y-121760000D01*
X145776725Y-121760000D01*
X145728355Y-121813076D01*
X145558524Y-122223110D01*
X145679845Y-122453000D01*
X146873000Y-122453000D01*
X146873000Y-122433000D01*
X147127000Y-122433000D01*
X147127000Y-122453000D01*
X148320155Y-122453000D01*
X148441476Y-122223110D01*
X148301435Y-121885000D01*
X148990000Y-121885000D01*
X148990000Y-121964250D01*
X149148750Y-122123000D01*
X149873000Y-122123000D01*
X149873000Y-122103000D01*
X150127000Y-122103000D01*
X150127000Y-122123000D01*
X150851250Y-122123000D01*
X151010000Y-121964250D01*
X151010000Y-121885000D01*
X151198565Y-121885000D01*
X151058524Y-122223110D01*
X151179845Y-122453000D01*
X152373000Y-122453000D01*
X152373000Y-122433000D01*
X152627000Y-122433000D01*
X152627000Y-122453000D01*
X153820155Y-122453000D01*
X153941476Y-122223110D01*
X153771645Y-121813076D01*
X153381358Y-121384817D01*
X153238447Y-121317702D01*
X153579147Y-121090054D01*
X153901054Y-120608285D01*
X154014093Y-120040000D01*
X153901054Y-119471715D01*
X153579147Y-118989946D01*
X153537548Y-118962150D01*
X153585317Y-118953162D01*
X153801441Y-118814090D01*
X153946431Y-118601890D01*
X153997440Y-118350000D01*
X153997440Y-118335000D01*
X154365017Y-118335000D01*
X154253569Y-118498110D01*
X154202560Y-118750000D01*
X154202560Y-119250000D01*
X154246838Y-119485317D01*
X154385910Y-119701441D01*
X154598110Y-119846431D01*
X154850000Y-119897440D01*
X155464871Y-119897440D01*
X155464838Y-119935167D01*
X155606883Y-120278943D01*
X155869673Y-120542192D01*
X156213201Y-120684838D01*
X156585167Y-120685162D01*
X156928943Y-120543117D01*
X157192192Y-120280327D01*
X157334838Y-119936799D01*
X157335162Y-119564833D01*
X157286656Y-119447440D01*
X158500000Y-119447440D01*
X158735317Y-119403162D01*
X158951441Y-119264090D01*
X159096431Y-119051890D01*
X159147440Y-118800000D01*
X159147440Y-118285750D01*
X164865000Y-118285750D01*
X164865000Y-118926310D01*
X164961673Y-119159699D01*
X165140302Y-119338327D01*
X165373691Y-119435000D01*
X166304250Y-119435000D01*
X166463000Y-119276250D01*
X166463000Y-118127000D01*
X166717000Y-118127000D01*
X166717000Y-119276250D01*
X166875750Y-119435000D01*
X167806309Y-119435000D01*
X168039698Y-119338327D01*
X168218327Y-119159699D01*
X168315000Y-118926310D01*
X168315000Y-118285750D01*
X168156250Y-118127000D01*
X166717000Y-118127000D01*
X166463000Y-118127000D01*
X165023750Y-118127000D01*
X164865000Y-118285750D01*
X159147440Y-118285750D01*
X159147440Y-117200000D01*
X159103162Y-116964683D01*
X158964090Y-116748559D01*
X158791469Y-116630612D01*
X158812118Y-116610000D01*
X165265052Y-116610000D01*
X165140302Y-116661673D01*
X164961673Y-116840301D01*
X164865000Y-117073690D01*
X164865000Y-117714250D01*
X165023750Y-117873000D01*
X166463000Y-117873000D01*
X166463000Y-116723750D01*
X166717000Y-116723750D01*
X166717000Y-117873000D01*
X168156250Y-117873000D01*
X168315000Y-117714250D01*
X168315000Y-117073690D01*
X168218327Y-116840301D01*
X168039698Y-116661673D01*
X167806309Y-116565000D01*
X166875750Y-116565000D01*
X166717000Y-116723750D01*
X166463000Y-116723750D01*
X166304250Y-116565000D01*
X165576228Y-116565000D01*
X165640839Y-116552148D01*
X165887401Y-116387401D01*
X167966141Y-114308661D01*
X168130888Y-114062100D01*
X168188740Y-113771260D01*
X168188740Y-112883520D01*
X168412990Y-112883520D01*
X168571740Y-112724770D01*
X168571740Y-111626220D01*
X168551740Y-111626220D01*
X168551740Y-111372220D01*
X168571740Y-111372220D01*
X168571740Y-110273670D01*
X168412990Y-110114920D01*
X168122851Y-110114920D01*
X168062728Y-110139824D01*
X167878320Y-110102480D01*
X166979160Y-110102480D01*
X166786933Y-110138650D01*
X166608320Y-110102480D01*
X165709160Y-110102480D01*
X165516933Y-110138650D01*
X165338320Y-110102480D01*
X164439160Y-110102480D01*
X164246933Y-110138650D01*
X164068320Y-110102480D01*
X163169160Y-110102480D01*
X162976933Y-110138650D01*
X162798320Y-110102480D01*
X161899160Y-110102480D01*
X161706933Y-110138650D01*
X161528320Y-110102480D01*
X160629160Y-110102480D01*
X160438250Y-110138402D01*
X160260860Y-110102480D01*
X159361700Y-110102480D01*
X159169473Y-110138650D01*
X158990860Y-110102480D01*
X158091700Y-110102480D01*
X157899473Y-110138650D01*
X157720860Y-110102480D01*
X156821700Y-110102480D01*
X156629473Y-110138650D01*
X156450860Y-110102480D01*
X155551700Y-110102480D01*
X155359473Y-110138650D01*
X155180860Y-110102480D01*
X154281700Y-110102480D01*
X154089473Y-110138650D01*
X153910860Y-110102480D01*
X153011700Y-110102480D01*
X152819473Y-110138650D01*
X152640860Y-110102480D01*
X151741700Y-110102480D01*
X151506383Y-110146758D01*
X151290259Y-110285830D01*
X151145269Y-110498030D01*
X151096427Y-110739220D01*
X149914022Y-110739220D01*
X149560000Y-110385198D01*
X149560000Y-109165961D01*
X149699110Y-109261011D01*
X149951000Y-109312020D01*
X151449600Y-109312020D01*
X151684917Y-109267742D01*
X151901041Y-109128670D01*
X152046031Y-108916470D01*
X152097040Y-108664580D01*
X152097040Y-107765420D01*
X152060870Y-107573193D01*
X152097040Y-107394580D01*
X152097040Y-106495420D01*
X152060870Y-106303193D01*
X152097040Y-106124580D01*
X152097040Y-105225420D01*
X152060870Y-105033193D01*
X152097040Y-104854580D01*
X152097040Y-103955420D01*
X152060870Y-103763193D01*
X152097040Y-103584580D01*
X152097040Y-102685420D01*
X152060870Y-102493193D01*
X152097040Y-102314580D01*
X152097040Y-102150750D01*
X158865000Y-102150750D01*
X158865000Y-103991310D01*
X158961673Y-104224699D01*
X159140302Y-104403327D01*
X159373691Y-104500000D01*
X161214250Y-104500000D01*
X161373000Y-104341250D01*
X161373000Y-101992000D01*
X161627000Y-101992000D01*
X161627000Y-104341250D01*
X161785750Y-104500000D01*
X163626309Y-104500000D01*
X163859698Y-104403327D01*
X164038327Y-104224699D01*
X164135000Y-103991310D01*
X164135000Y-102150750D01*
X163976250Y-101992000D01*
X161627000Y-101992000D01*
X161373000Y-101992000D01*
X159023750Y-101992000D01*
X158865000Y-102150750D01*
X152097040Y-102150750D01*
X152097040Y-101415420D01*
X152060870Y-101223193D01*
X152097040Y-101044580D01*
X152097040Y-100145420D01*
X152060870Y-99953193D01*
X152097040Y-99774580D01*
X152097040Y-99738690D01*
X158865000Y-99738690D01*
X158865000Y-101579250D01*
X159023750Y-101738000D01*
X161373000Y-101738000D01*
X161373000Y-99388750D01*
X161627000Y-99388750D01*
X161627000Y-101738000D01*
X163976250Y-101738000D01*
X164135000Y-101579250D01*
X164135000Y-99738690D01*
X164038327Y-99505301D01*
X163859698Y-99326673D01*
X163626309Y-99230000D01*
X161785750Y-99230000D01*
X161627000Y-99388750D01*
X161373000Y-99388750D01*
X161214250Y-99230000D01*
X159373691Y-99230000D01*
X159140302Y-99326673D01*
X158961673Y-99505301D01*
X158865000Y-99738690D01*
X152097040Y-99738690D01*
X152097040Y-98875420D01*
X152060870Y-98683193D01*
X152097040Y-98504580D01*
X152097040Y-97605420D01*
X152061515Y-97416621D01*
X152084600Y-97360889D01*
X152084600Y-97070750D01*
X151925850Y-96912000D01*
X150827300Y-96912000D01*
X150827300Y-96932000D01*
X150573300Y-96932000D01*
X150573300Y-96912000D01*
X150553300Y-96912000D01*
X150553300Y-96658000D01*
X150573300Y-96658000D01*
X150573300Y-95859170D01*
X150827300Y-95859170D01*
X150827300Y-96658000D01*
X151925850Y-96658000D01*
X152084600Y-96499250D01*
X152084600Y-96209111D01*
X151987927Y-95975722D01*
X151809299Y-95797093D01*
X151575910Y-95700420D01*
X150986050Y-95700420D01*
X150827300Y-95859170D01*
X150573300Y-95859170D01*
X150414550Y-95700420D01*
X149824690Y-95700420D01*
X149591301Y-95797093D01*
X149560000Y-95828394D01*
X149560000Y-95100000D01*
X149502148Y-94809161D01*
X149337401Y-94562599D01*
X149035582Y-94260780D01*
X151096273Y-94260780D01*
X151138538Y-94485397D01*
X151277610Y-94701521D01*
X151489810Y-94846511D01*
X151741700Y-94897520D01*
X152640860Y-94897520D01*
X152833087Y-94861350D01*
X153011700Y-94897520D01*
X153910860Y-94897520D01*
X154103087Y-94861350D01*
X154281700Y-94897520D01*
X155180860Y-94897520D01*
X155373087Y-94861350D01*
X155551700Y-94897520D01*
X156450860Y-94897520D01*
X156643087Y-94861350D01*
X156821700Y-94897520D01*
X157720860Y-94897520D01*
X157913087Y-94861350D01*
X158091700Y-94897520D01*
X158990860Y-94897520D01*
X159183087Y-94861350D01*
X159361700Y-94897520D01*
X160260860Y-94897520D01*
X160451770Y-94861598D01*
X160629160Y-94897520D01*
X161528320Y-94897520D01*
X161720547Y-94861350D01*
X161899160Y-94897520D01*
X162798320Y-94897520D01*
X162990547Y-94861350D01*
X163169160Y-94897520D01*
X164068320Y-94897520D01*
X164260547Y-94861350D01*
X164439160Y-94897520D01*
X165338320Y-94897520D01*
X165530547Y-94861350D01*
X165709160Y-94897520D01*
X166608320Y-94897520D01*
X166800547Y-94861350D01*
X166979160Y-94897520D01*
X167878320Y-94897520D01*
X168067119Y-94861995D01*
X168122851Y-94885080D01*
X168412990Y-94885080D01*
X168571740Y-94726330D01*
X168571740Y-93627780D01*
X168551740Y-93627780D01*
X168551740Y-93373780D01*
X168571740Y-93373780D01*
X168571740Y-92275230D01*
X168523000Y-92226490D01*
X168523000Y-91827000D01*
X168503000Y-91827000D01*
X168503000Y-91573000D01*
X168523000Y-91573000D01*
X168523000Y-90848750D01*
X168473000Y-90798750D01*
X168473000Y-90127000D01*
X168453000Y-90127000D01*
X168453000Y-89873000D01*
X168473000Y-89873000D01*
X168473000Y-89148750D01*
X168314250Y-88990000D01*
X168073691Y-88990000D01*
X167840302Y-89086673D01*
X167838932Y-89088043D01*
X167751890Y-89028569D01*
X167729082Y-89023950D01*
X166705855Y-88000723D01*
X166959192Y-87747827D01*
X167101838Y-87404299D01*
X167102162Y-87032333D01*
X166960117Y-86688557D01*
X166697327Y-86425308D01*
X166353799Y-86282662D01*
X165981833Y-86282338D01*
X165815000Y-86351272D01*
X165815000Y-86285750D01*
X165656250Y-86127000D01*
X164217000Y-86127000D01*
X164217000Y-86147000D01*
X163963000Y-86147000D01*
X163963000Y-86127000D01*
X162523750Y-86127000D01*
X162365000Y-86285750D01*
X162365000Y-86457500D01*
X156956802Y-86457500D01*
X156647440Y-86148138D01*
X156647440Y-85200000D01*
X156623674Y-85073690D01*
X162365000Y-85073690D01*
X162365000Y-85714250D01*
X162523750Y-85873000D01*
X163963000Y-85873000D01*
X163963000Y-84723750D01*
X164217000Y-84723750D01*
X164217000Y-85873000D01*
X165656250Y-85873000D01*
X165815000Y-85714250D01*
X165815000Y-85073690D01*
X165718327Y-84840301D01*
X165539698Y-84661673D01*
X165306309Y-84565000D01*
X164375750Y-84565000D01*
X164217000Y-84723750D01*
X163963000Y-84723750D01*
X163804250Y-84565000D01*
X162873691Y-84565000D01*
X162640302Y-84661673D01*
X162461673Y-84840301D01*
X162365000Y-85073690D01*
X156623674Y-85073690D01*
X156603162Y-84964683D01*
X156464090Y-84748559D01*
X156251890Y-84603569D01*
X156000000Y-84552560D01*
X155670000Y-84552560D01*
X155670000Y-84073670D01*
X155688646Y-84061671D01*
X155690302Y-84063327D01*
X155923691Y-84160000D01*
X156164250Y-84160000D01*
X156323000Y-84001250D01*
X156323000Y-83277000D01*
X156577000Y-83277000D01*
X156577000Y-84001250D01*
X156735750Y-84160000D01*
X156976309Y-84160000D01*
X157209698Y-84063327D01*
X157388327Y-83884699D01*
X157485000Y-83651310D01*
X157485000Y-83435750D01*
X157326250Y-83277000D01*
X156577000Y-83277000D01*
X156323000Y-83277000D01*
X156303000Y-83277000D01*
X156303000Y-83023000D01*
X156323000Y-83023000D01*
X156323000Y-82298750D01*
X156577000Y-82298750D01*
X156577000Y-83023000D01*
X157326250Y-83023000D01*
X157485000Y-82864250D01*
X157485000Y-82648690D01*
X157388327Y-82415301D01*
X157209698Y-82236673D01*
X156976309Y-82140000D01*
X156735750Y-82140000D01*
X156577000Y-82298750D01*
X156323000Y-82298750D01*
X156164250Y-82140000D01*
X155923691Y-82140000D01*
X155690302Y-82236673D01*
X155688932Y-82238043D01*
X155601890Y-82178569D01*
X155350000Y-82127560D01*
X154550000Y-82127560D01*
X154314683Y-82171838D01*
X154098559Y-82310910D01*
X153953569Y-82523110D01*
X153902560Y-82775000D01*
X153902560Y-83525000D01*
X153946838Y-83760317D01*
X154085910Y-83976441D01*
X154150000Y-84020232D01*
X154150000Y-84552560D01*
X153820000Y-84552560D01*
X153584683Y-84596838D01*
X153368559Y-84735910D01*
X153223569Y-84948110D01*
X153172560Y-85200000D01*
X153172560Y-85889428D01*
X151480566Y-84197434D01*
X151424542Y-84160000D01*
X151112346Y-83951397D01*
X150963589Y-83921807D01*
X151032502Y-83852894D01*
X150917149Y-83737541D01*
X151150328Y-83678781D01*
X151322522Y-83186900D01*
X151293375Y-82666566D01*
X151150328Y-82321219D01*
X150917147Y-82262458D01*
X150179605Y-83000000D01*
X150193748Y-83014143D01*
X150014143Y-83193748D01*
X150000000Y-83179605D01*
X149985858Y-83193748D01*
X149806253Y-83014143D01*
X149820395Y-83000000D01*
X149082853Y-82262458D01*
X148849672Y-82321219D01*
X148677478Y-82813100D01*
X148706625Y-83333434D01*
X148849672Y-83678781D01*
X149082851Y-83737541D01*
X148967498Y-83852894D01*
X148979604Y-83865000D01*
X147473263Y-83865000D01*
X147510000Y-83776309D01*
X147510000Y-83535750D01*
X147351250Y-83377000D01*
X146627000Y-83377000D01*
X146627000Y-83397000D01*
X146373000Y-83397000D01*
X146373000Y-83377000D01*
X145648750Y-83377000D01*
X145490000Y-83535750D01*
X145490000Y-83776309D01*
X145526737Y-83865000D01*
X143520396Y-83865000D01*
X143532502Y-83852894D01*
X143417149Y-83737541D01*
X143650328Y-83678781D01*
X143822522Y-83186900D01*
X143796575Y-82723691D01*
X145490000Y-82723691D01*
X145490000Y-82964250D01*
X145648750Y-83123000D01*
X146373000Y-83123000D01*
X146373000Y-82373750D01*
X146627000Y-82373750D01*
X146627000Y-83123000D01*
X147351250Y-83123000D01*
X147510000Y-82964250D01*
X147510000Y-82723691D01*
X147413327Y-82490302D01*
X147234699Y-82311673D01*
X147001310Y-82215000D01*
X146785750Y-82215000D01*
X146627000Y-82373750D01*
X146373000Y-82373750D01*
X146214250Y-82215000D01*
X145998690Y-82215000D01*
X145765301Y-82311673D01*
X145586673Y-82490302D01*
X145490000Y-82723691D01*
X143796575Y-82723691D01*
X143793375Y-82666566D01*
X143650328Y-82321219D01*
X143417147Y-82262458D01*
X142679605Y-83000000D01*
X142693748Y-83014143D01*
X142514143Y-83193748D01*
X142500000Y-83179605D01*
X142485858Y-83193748D01*
X142306253Y-83014143D01*
X142320395Y-83000000D01*
X141582853Y-82262458D01*
X141349672Y-82321219D01*
X141177478Y-82813100D01*
X141206625Y-83333434D01*
X141349672Y-83678781D01*
X141582851Y-83737541D01*
X141467498Y-83852894D01*
X141479604Y-83865000D01*
X139973263Y-83865000D01*
X140010000Y-83776309D01*
X140010000Y-83535750D01*
X139851250Y-83377000D01*
X139127000Y-83377000D01*
X139127000Y-83397000D01*
X138873000Y-83397000D01*
X138873000Y-83377000D01*
X138148750Y-83377000D01*
X137990000Y-83535750D01*
X137990000Y-83776309D01*
X138026737Y-83865000D01*
X136020396Y-83865000D01*
X136032502Y-83852894D01*
X135917149Y-83737541D01*
X136150328Y-83678781D01*
X136322522Y-83186900D01*
X136296575Y-82723691D01*
X137990000Y-82723691D01*
X137990000Y-82964250D01*
X138148750Y-83123000D01*
X138873000Y-83123000D01*
X138873000Y-82373750D01*
X139127000Y-82373750D01*
X139127000Y-83123000D01*
X139851250Y-83123000D01*
X140010000Y-82964250D01*
X140010000Y-82723691D01*
X139913327Y-82490302D01*
X139734699Y-82311673D01*
X139501310Y-82215000D01*
X139285750Y-82215000D01*
X139127000Y-82373750D01*
X138873000Y-82373750D01*
X138714250Y-82215000D01*
X138498690Y-82215000D01*
X138265301Y-82311673D01*
X138086673Y-82490302D01*
X137990000Y-82723691D01*
X136296575Y-82723691D01*
X136293375Y-82666566D01*
X136150328Y-82321219D01*
X135917147Y-82262458D01*
X135179605Y-83000000D01*
X135193748Y-83014143D01*
X135014143Y-83193748D01*
X135000000Y-83179605D01*
X134985858Y-83193748D01*
X134806253Y-83014143D01*
X134820395Y-83000000D01*
X134082853Y-82262458D01*
X133849672Y-82321219D01*
X133677478Y-82813100D01*
X133706625Y-83333434D01*
X133849672Y-83678781D01*
X134082851Y-83737541D01*
X133967498Y-83852894D01*
X133979604Y-83865000D01*
X132473263Y-83865000D01*
X132510000Y-83776309D01*
X132510000Y-83535750D01*
X132351250Y-83377000D01*
X131627000Y-83377000D01*
X131627000Y-83397000D01*
X131373000Y-83397000D01*
X131373000Y-83377000D01*
X130648750Y-83377000D01*
X130490000Y-83535750D01*
X130490000Y-83776309D01*
X130547448Y-83915000D01*
X130166909Y-83915000D01*
X129904799Y-83806162D01*
X129718240Y-83805999D01*
X129718240Y-83638200D01*
X129673962Y-83402883D01*
X129534890Y-83186759D01*
X129322690Y-83041769D01*
X129070800Y-82990760D01*
X128270800Y-82990760D01*
X128035483Y-83035038D01*
X127819359Y-83174110D01*
X127720167Y-83319283D01*
X127634890Y-83186759D01*
X127422690Y-83041769D01*
X127170800Y-82990760D01*
X126748162Y-82990760D01*
X126581001Y-82823599D01*
X126431478Y-82723691D01*
X130490000Y-82723691D01*
X130490000Y-82964250D01*
X130648750Y-83123000D01*
X131373000Y-83123000D01*
X131373000Y-82373750D01*
X131627000Y-82373750D01*
X131627000Y-83123000D01*
X132351250Y-83123000D01*
X132510000Y-82964250D01*
X132510000Y-82723691D01*
X132413327Y-82490302D01*
X132234699Y-82311673D01*
X132001310Y-82215000D01*
X131785750Y-82215000D01*
X131627000Y-82373750D01*
X131373000Y-82373750D01*
X131214250Y-82215000D01*
X130998690Y-82215000D01*
X130765301Y-82311673D01*
X130586673Y-82490302D01*
X130490000Y-82723691D01*
X126431478Y-82723691D01*
X126334439Y-82658852D01*
X126043600Y-82601000D01*
X125288105Y-82601000D01*
X125197090Y-82459559D01*
X124984890Y-82314569D01*
X124733000Y-82263560D01*
X124233000Y-82263560D01*
X123997683Y-82307838D01*
X123781559Y-82446910D01*
X123733866Y-82516711D01*
X123697090Y-82459559D01*
X123484890Y-82314569D01*
X123233000Y-82263560D01*
X122733000Y-82263560D01*
X122497683Y-82307838D01*
X122281559Y-82446910D01*
X122136569Y-82659110D01*
X122085560Y-82911000D01*
X122085560Y-83811000D01*
X122110553Y-83943827D01*
X122085559Y-83959910D01*
X121940569Y-84172110D01*
X121889560Y-84424000D01*
X121889560Y-85224000D01*
X121933838Y-85459317D01*
X122072910Y-85675441D01*
X122218083Y-85774633D01*
X122085559Y-85859910D01*
X121940569Y-86072110D01*
X121889560Y-86324000D01*
X121889560Y-87124000D01*
X121933838Y-87359317D01*
X122072910Y-87575441D01*
X122090170Y-87587234D01*
X122085560Y-87610000D01*
X122085560Y-88140000D01*
X120727950Y-88140000D01*
X120768148Y-88079840D01*
X120787856Y-87980761D01*
X120826000Y-87789000D01*
X120826000Y-84677500D01*
X120773618Y-84414162D01*
X120768148Y-84386660D01*
X120603401Y-84140099D01*
X119936401Y-83473099D01*
X119689839Y-83308352D01*
X119485703Y-83267746D01*
X119383590Y-83109059D01*
X119171390Y-82964069D01*
X118919500Y-82913060D01*
X118419500Y-82913060D01*
X118184183Y-82957338D01*
X117968059Y-83096410D01*
X117920366Y-83166211D01*
X117883590Y-83109059D01*
X117671390Y-82964069D01*
X117419500Y-82913060D01*
X116919500Y-82913060D01*
X116684183Y-82957338D01*
X116527755Y-83057997D01*
X116464090Y-82959059D01*
X116251890Y-82814069D01*
X116000000Y-82763060D01*
X114800000Y-82763060D01*
X114564683Y-82807338D01*
X114348559Y-82946410D01*
X114300866Y-83016211D01*
X114264090Y-82959059D01*
X114051890Y-82814069D01*
X113800000Y-82763060D01*
X112600000Y-82763060D01*
X112364683Y-82807338D01*
X112148559Y-82946410D01*
X112003569Y-83158610D01*
X111993419Y-83208734D01*
X111840960Y-83239060D01*
X111752992Y-83297838D01*
X111409057Y-83439883D01*
X111145808Y-83702673D01*
X111003162Y-84046201D01*
X111002838Y-84418167D01*
X111144883Y-84761943D01*
X111407673Y-85025192D01*
X111751201Y-85167838D01*
X112065000Y-85168111D01*
X112065000Y-85670351D01*
X112054369Y-85685910D01*
X112003360Y-85937800D01*
X112003360Y-87137800D01*
X112047638Y-87373117D01*
X112186710Y-87589241D01*
X112210510Y-87605503D01*
X112161160Y-87849200D01*
X112161160Y-88349200D01*
X112205438Y-88584517D01*
X112344510Y-88800641D01*
X112414311Y-88848334D01*
X112357159Y-88885110D01*
X112212169Y-89097310D01*
X112161160Y-89349200D01*
X112161160Y-89849200D01*
X112205438Y-90084517D01*
X112344510Y-90300641D01*
X112433760Y-90361623D01*
X112433760Y-90519487D01*
X112418120Y-90596720D01*
X112418120Y-91866720D01*
X112462398Y-92102037D01*
X112601470Y-92318161D01*
X112813670Y-92463151D01*
X113065560Y-92514160D01*
X113471960Y-92514160D01*
X113590456Y-92491863D01*
X113700560Y-92514160D01*
X114106960Y-92514160D01*
X114238622Y-92489386D01*
X114360960Y-92514160D01*
X114767360Y-92514160D01*
X114885856Y-92491863D01*
X114995960Y-92514160D01*
X115402360Y-92514160D01*
X115510816Y-92493753D01*
X115530051Y-92501720D01*
X115599210Y-92501720D01*
X115629512Y-92471418D01*
X115637677Y-92469882D01*
X115853801Y-92330810D01*
X115859333Y-92322714D01*
X116064870Y-92463151D01*
X116085523Y-92467333D01*
X116119910Y-92501720D01*
X116189069Y-92501720D01*
X116210826Y-92492708D01*
X116316760Y-92514160D01*
X116723160Y-92514160D01*
X116841656Y-92491863D01*
X116951760Y-92514160D01*
X117358160Y-92514160D01*
X117489822Y-92489386D01*
X117612160Y-92514160D01*
X118018560Y-92514160D01*
X118150222Y-92489386D01*
X118272560Y-92514160D01*
X118678960Y-92514160D01*
X118797456Y-92491863D01*
X118907560Y-92514160D01*
X119313960Y-92514160D01*
X119549277Y-92469882D01*
X119765401Y-92330810D01*
X119910391Y-92118610D01*
X119961400Y-91866720D01*
X119961400Y-90596720D01*
X119917122Y-90361403D01*
X119876511Y-90298291D01*
X120064802Y-90110000D01*
X123050000Y-90110000D01*
X123340839Y-90052148D01*
X123587401Y-89887401D01*
X124287401Y-89187402D01*
X124307421Y-89157440D01*
X124733000Y-89157440D01*
X124963674Y-89114036D01*
X124921560Y-89322000D01*
X124921560Y-89383174D01*
X124884000Y-89572000D01*
X124884000Y-93660868D01*
X123497434Y-95047434D01*
X123251397Y-95415654D01*
X123165000Y-95850000D01*
X123165000Y-97400000D01*
X123251397Y-97834346D01*
X123497434Y-98202566D01*
X123750238Y-98371484D01*
X123665000Y-98800000D01*
X123751397Y-99234345D01*
X123997434Y-99602566D01*
X124365655Y-99848603D01*
X124800000Y-99935000D01*
X125051366Y-99885000D01*
X126000000Y-99885000D01*
X126434346Y-99798603D01*
X126460032Y-99781440D01*
X126610317Y-99753162D01*
X126669622Y-99715000D01*
X127174392Y-99715000D01*
X127385302Y-100030648D01*
X127850849Y-100341717D01*
X128400000Y-100450950D01*
X128949151Y-100341717D01*
X129414698Y-100030648D01*
X129670000Y-99648562D01*
X129925302Y-100030648D01*
X130390849Y-100341717D01*
X130940000Y-100450950D01*
X131489151Y-100341717D01*
X131954698Y-100030648D01*
X132210000Y-99648562D01*
X132465302Y-100030648D01*
X132930849Y-100341717D01*
X133480000Y-100450950D01*
X134029151Y-100341717D01*
X134494698Y-100030648D01*
X134747507Y-99652293D01*
X135095104Y-100084500D01*
X135588181Y-100354367D01*
X135670961Y-100371904D01*
X135893000Y-100249915D01*
X135893000Y-98707000D01*
X136147000Y-98707000D01*
X136147000Y-100249915D01*
X136369039Y-100371904D01*
X136451819Y-100354367D01*
X136944896Y-100084500D01*
X137290000Y-99655393D01*
X137635104Y-100084500D01*
X138128181Y-100354367D01*
X138210961Y-100371904D01*
X138433000Y-100249915D01*
X138433000Y-98707000D01*
X136147000Y-98707000D01*
X135893000Y-98707000D01*
X135873000Y-98707000D01*
X135873000Y-98453000D01*
X135893000Y-98453000D01*
X135893000Y-96910085D01*
X136147000Y-96910085D01*
X136147000Y-98453000D01*
X138433000Y-98453000D01*
X138433000Y-96910085D01*
X138210961Y-96788096D01*
X138128181Y-96805633D01*
X137635104Y-97075500D01*
X137290000Y-97504607D01*
X136944896Y-97075500D01*
X136451819Y-96805633D01*
X136369039Y-96788096D01*
X136147000Y-96910085D01*
X135893000Y-96910085D01*
X135670961Y-96788096D01*
X135588181Y-96805633D01*
X135095104Y-97075500D01*
X134747507Y-97507707D01*
X134494698Y-97129352D01*
X134029151Y-96818283D01*
X133480000Y-96709050D01*
X132930849Y-96818283D01*
X132465302Y-97129352D01*
X132210000Y-97511438D01*
X131954698Y-97129352D01*
X131489151Y-96818283D01*
X130940000Y-96709050D01*
X130390849Y-96818283D01*
X129925302Y-97129352D01*
X129670000Y-97511438D01*
X129414698Y-97129352D01*
X128949151Y-96818283D01*
X128400000Y-96709050D01*
X127850849Y-96818283D01*
X127385302Y-97129352D01*
X127174392Y-97445000D01*
X126919250Y-97445000D01*
X126851250Y-97377000D01*
X126127000Y-97377000D01*
X126127000Y-97397000D01*
X125873000Y-97397000D01*
X125873000Y-97377000D01*
X125853000Y-97377000D01*
X125853000Y-97123000D01*
X125873000Y-97123000D01*
X125873000Y-96373750D01*
X126127000Y-96373750D01*
X126127000Y-97123000D01*
X126851250Y-97123000D01*
X127010000Y-96964250D01*
X127010000Y-96723691D01*
X126913327Y-96490302D01*
X126734699Y-96311673D01*
X126501310Y-96215000D01*
X126285750Y-96215000D01*
X126127000Y-96373750D01*
X125873000Y-96373750D01*
X125714250Y-96215000D01*
X125540132Y-96215000D01*
X126821566Y-94933566D01*
X126908011Y-94804192D01*
X127067603Y-94565346D01*
X127154000Y-94131000D01*
X127154000Y-90582000D01*
X127177881Y-90582000D01*
X127235654Y-90620603D01*
X127670000Y-90707000D01*
X127714906Y-90707000D01*
X127714838Y-90785167D01*
X127856883Y-91128943D01*
X127890000Y-91162118D01*
X127890000Y-94200000D01*
X127947852Y-94490839D01*
X128112599Y-94737401D01*
X128562599Y-95187401D01*
X128809161Y-95352148D01*
X129100000Y-95410000D01*
X141464903Y-95410000D01*
X141464838Y-95485167D01*
X141606883Y-95828943D01*
X141640000Y-95862118D01*
X141640000Y-96816463D01*
X141100000Y-96709050D01*
X140550849Y-96818283D01*
X140085302Y-97129352D01*
X139832493Y-97507707D01*
X139484896Y-97075500D01*
X138991819Y-96805633D01*
X138909039Y-96788096D01*
X138687000Y-96910085D01*
X138687000Y-98453000D01*
X138707000Y-98453000D01*
X138707000Y-98707000D01*
X138687000Y-98707000D01*
X138687000Y-100249915D01*
X138909039Y-100371904D01*
X138991819Y-100354367D01*
X139484896Y-100084500D01*
X139832493Y-99652293D01*
X140085302Y-100030648D01*
X140550849Y-100341717D01*
X141100000Y-100450950D01*
X141640000Y-100343537D01*
X141640000Y-102587624D01*
X141557808Y-102669673D01*
X141415162Y-103013201D01*
X141414838Y-103385167D01*
X141556883Y-103728943D01*
X141819673Y-103992192D01*
X142163201Y-104134838D01*
X142535167Y-104135162D01*
X142878943Y-103993117D01*
X143142192Y-103730327D01*
X143284838Y-103386799D01*
X143285162Y-103014833D01*
X143160000Y-102711917D01*
X143160000Y-100355472D01*
X143640000Y-100450950D01*
X144189151Y-100341717D01*
X144240000Y-100307741D01*
X144240000Y-103437537D01*
X144207808Y-103469673D01*
X144065162Y-103813201D01*
X144064838Y-104185167D01*
X144167657Y-104434007D01*
X143640000Y-104329050D01*
X143090849Y-104438283D01*
X142625302Y-104749352D01*
X142370000Y-105131438D01*
X142114698Y-104749352D01*
X141649151Y-104438283D01*
X141100000Y-104329050D01*
X140550849Y-104438283D01*
X140085302Y-104749352D01*
X139832493Y-105127707D01*
X139484896Y-104695500D01*
X138991819Y-104425633D01*
X138909039Y-104408096D01*
X138687000Y-104530085D01*
X138687000Y-106073000D01*
X138707000Y-106073000D01*
X138707000Y-106327000D01*
X138687000Y-106327000D01*
X138687000Y-107869915D01*
X138909039Y-107991904D01*
X138991819Y-107974367D01*
X139484896Y-107704500D01*
X139832493Y-107272293D01*
X140085302Y-107650648D01*
X140550849Y-107961717D01*
X141100000Y-108070950D01*
X141649151Y-107961717D01*
X142114698Y-107650648D01*
X142370000Y-107268562D01*
X142625302Y-107650648D01*
X143090849Y-107961717D01*
X143640000Y-108070950D01*
X144189151Y-107961717D01*
X144654698Y-107650648D01*
X144910000Y-107268562D01*
X145165302Y-107650648D01*
X145630849Y-107961717D01*
X146180000Y-108070950D01*
X146729151Y-107961717D01*
X147194698Y-107650648D01*
X147505767Y-107185101D01*
X147615000Y-106635950D01*
X147615000Y-105764050D01*
X147544575Y-105410000D01*
X147864903Y-105410000D01*
X147864838Y-105485167D01*
X148006883Y-105828943D01*
X148040000Y-105862118D01*
X148040000Y-110700000D01*
X148097852Y-110990839D01*
X148262599Y-111237401D01*
X149061819Y-112036621D01*
X149308381Y-112201368D01*
X149502595Y-112240000D01*
X145934922Y-112240000D01*
X145935162Y-111964833D01*
X145793117Y-111621057D01*
X145530327Y-111357808D01*
X145186799Y-111215162D01*
X144814833Y-111214838D01*
X144520617Y-111336405D01*
X144464090Y-111248559D01*
X144251890Y-111103569D01*
X144000000Y-111052560D01*
X143500000Y-111052560D01*
X143264683Y-111096838D01*
X143048559Y-111235910D01*
X143000866Y-111305711D01*
X142964090Y-111248559D01*
X142751890Y-111103569D01*
X142500000Y-111052560D01*
X142000000Y-111052560D01*
X141764683Y-111096838D01*
X141580946Y-111215070D01*
X141314833Y-111214838D01*
X140971057Y-111356883D01*
X140707808Y-111619673D01*
X140565162Y-111963201D01*
X140564921Y-112240000D01*
X130114802Y-112240000D01*
X129160000Y-111285198D01*
X129160000Y-108047440D01*
X129200000Y-108047440D01*
X129435317Y-108003162D01*
X129651441Y-107864090D01*
X129796431Y-107651890D01*
X129826597Y-107502926D01*
X129925302Y-107650648D01*
X130390849Y-107961717D01*
X130940000Y-108070950D01*
X131489151Y-107961717D01*
X131954698Y-107650648D01*
X132210000Y-107268562D01*
X132465302Y-107650648D01*
X132930849Y-107961717D01*
X133480000Y-108070950D01*
X134029151Y-107961717D01*
X134494698Y-107650648D01*
X134747507Y-107272293D01*
X135095104Y-107704500D01*
X135588181Y-107974367D01*
X135670961Y-107991904D01*
X135893000Y-107869915D01*
X135893000Y-106327000D01*
X136147000Y-106327000D01*
X136147000Y-107869915D01*
X136369039Y-107991904D01*
X136451819Y-107974367D01*
X136944896Y-107704500D01*
X137290000Y-107275393D01*
X137635104Y-107704500D01*
X138128181Y-107974367D01*
X138210961Y-107991904D01*
X138433000Y-107869915D01*
X138433000Y-106327000D01*
X136147000Y-106327000D01*
X135893000Y-106327000D01*
X135873000Y-106327000D01*
X135873000Y-106073000D01*
X135893000Y-106073000D01*
X135893000Y-104530085D01*
X136147000Y-104530085D01*
X136147000Y-106073000D01*
X138433000Y-106073000D01*
X138433000Y-104530085D01*
X138210961Y-104408096D01*
X138128181Y-104425633D01*
X137635104Y-104695500D01*
X137290000Y-105124607D01*
X136944896Y-104695500D01*
X136451819Y-104425633D01*
X136369039Y-104408096D01*
X136147000Y-104530085D01*
X135893000Y-104530085D01*
X135670961Y-104408096D01*
X135588181Y-104425633D01*
X135095104Y-104695500D01*
X134747507Y-105127707D01*
X134494698Y-104749352D01*
X134029151Y-104438283D01*
X133480000Y-104329050D01*
X132930849Y-104438283D01*
X132465302Y-104749352D01*
X132210000Y-105131438D01*
X131954698Y-104749352D01*
X131489151Y-104438283D01*
X130940000Y-104329050D01*
X130390849Y-104438283D01*
X129925302Y-104749352D01*
X129827749Y-104895350D01*
X129803162Y-104764683D01*
X129664090Y-104548559D01*
X129451890Y-104403569D01*
X129200000Y-104352560D01*
X127600000Y-104352560D01*
X127364683Y-104396838D01*
X127148559Y-104535910D01*
X127003569Y-104748110D01*
X126952560Y-105000000D01*
X126952560Y-107400000D01*
X126996838Y-107635317D01*
X127135910Y-107851441D01*
X127348110Y-107996431D01*
X127600000Y-108047440D01*
X127640000Y-108047440D01*
X127640000Y-111600000D01*
X127697852Y-111890839D01*
X127862599Y-112137401D01*
X128276487Y-112551289D01*
X128107808Y-112719673D01*
X127965162Y-113063201D01*
X127965095Y-113140000D01*
X124894804Y-113140000D01*
X124840002Y-113085198D01*
X124840002Y-109371888D01*
X124782150Y-109081049D01*
X124617403Y-108834487D01*
X121372600Y-105589684D01*
X121372600Y-98923186D01*
X121459031Y-98796690D01*
X121510040Y-98544800D01*
X121510040Y-97644800D01*
X121465762Y-97409483D01*
X121326690Y-97193359D01*
X121114490Y-97048369D01*
X120862600Y-96997360D01*
X120560000Y-96997360D01*
X120560000Y-94381000D01*
X120502148Y-94090161D01*
X120366110Y-93886565D01*
X120366162Y-93826833D01*
X120224117Y-93483057D01*
X119961327Y-93219808D01*
X119617799Y-93077162D01*
X119245833Y-93076838D01*
X118902057Y-93218883D01*
X118638808Y-93481673D01*
X118535419Y-93730661D01*
X118509033Y-93730638D01*
X118266622Y-93830800D01*
X118008400Y-93830800D01*
X117688859Y-93894361D01*
X117512800Y-94012000D01*
X117417966Y-94075366D01*
X116564526Y-94928806D01*
X116383521Y-95199699D01*
X116351712Y-95359612D01*
X116314650Y-95334289D01*
X116293997Y-95330107D01*
X116259610Y-95295720D01*
X116190451Y-95295720D01*
X116168694Y-95304732D01*
X116124072Y-95295696D01*
X116124162Y-95191833D01*
X115982117Y-94848057D01*
X115719327Y-94584808D01*
X115375799Y-94442162D01*
X115003833Y-94441838D01*
X114660057Y-94583883D01*
X114396808Y-94846673D01*
X114254162Y-95190201D01*
X114254063Y-95303394D01*
X114229298Y-95308054D01*
X114106960Y-95283280D01*
X113700560Y-95283280D01*
X113582064Y-95305577D01*
X113471960Y-95283280D01*
X113065560Y-95283280D01*
X112830243Y-95327558D01*
X112614119Y-95466630D01*
X112469129Y-95678830D01*
X112418120Y-95930720D01*
X112418120Y-97200720D01*
X112462398Y-97436037D01*
X112508760Y-97508086D01*
X112508760Y-97606960D01*
X112157000Y-97606960D01*
X111921683Y-97651238D01*
X111705559Y-97790310D01*
X111625828Y-97907000D01*
X111360686Y-97907000D01*
X111449200Y-97693309D01*
X111449200Y-97452750D01*
X111290450Y-97294000D01*
X110566200Y-97294000D01*
X110566200Y-97314000D01*
X110312200Y-97314000D01*
X110312200Y-97294000D01*
X110292200Y-97294000D01*
X110292200Y-97040000D01*
X110312200Y-97040000D01*
X110312200Y-96290750D01*
X110566200Y-96290750D01*
X110566200Y-97040000D01*
X111290450Y-97040000D01*
X111449200Y-96881250D01*
X111449200Y-96640691D01*
X111352527Y-96407302D01*
X111173899Y-96228673D01*
X110940510Y-96132000D01*
X110724950Y-96132000D01*
X110566200Y-96290750D01*
X110312200Y-96290750D01*
X110153450Y-96132000D01*
X109937890Y-96132000D01*
X109704501Y-96228673D01*
X109525873Y-96407302D01*
X109429200Y-96640691D01*
X109429200Y-96881250D01*
X109452499Y-96904549D01*
X109365710Y-96868600D01*
X109150150Y-96868600D01*
X108991400Y-97027350D01*
X108991400Y-97776600D01*
X109011400Y-97776600D01*
X109011400Y-98030600D01*
X108991400Y-98030600D01*
X108991400Y-98050600D01*
X108737400Y-98050600D01*
X108737400Y-98030600D01*
X108013150Y-98030600D01*
X107854400Y-98189350D01*
X107854400Y-98429909D01*
X107951073Y-98663298D01*
X107952443Y-98664668D01*
X107892969Y-98751710D01*
X107841960Y-99003600D01*
X107841960Y-99803600D01*
X107886238Y-100038917D01*
X108025310Y-100255041D01*
X108237510Y-100400031D01*
X108254634Y-100403499D01*
X108326999Y-100511801D01*
X108682599Y-100867401D01*
X108929160Y-101032148D01*
X109220000Y-101090000D01*
X109540000Y-101090000D01*
X109540000Y-103737711D01*
X109407808Y-103869673D01*
X109296078Y-104138748D01*
X109098090Y-104003469D01*
X109013419Y-103986323D01*
X109248604Y-103634345D01*
X109335000Y-103200000D01*
X109248604Y-102765654D01*
X109002566Y-102397434D01*
X108634346Y-102151396D01*
X108200000Y-102065000D01*
X107948631Y-102115000D01*
X106800000Y-102115000D01*
X106775000Y-102119973D01*
X106750000Y-102115000D01*
X106315655Y-102201396D01*
X105947434Y-102447433D01*
X105738867Y-102656000D01*
X105485192Y-102656000D01*
X105378090Y-102489559D01*
X105165890Y-102344569D01*
X105057893Y-102322699D01*
X105335645Y-102017924D01*
X105505476Y-101607890D01*
X105414632Y-101435750D01*
X105940000Y-101435750D01*
X105940000Y-101576309D01*
X106036673Y-101809698D01*
X106215301Y-101988327D01*
X106448690Y-102085000D01*
X106528750Y-102085000D01*
X106687500Y-101926250D01*
X106687500Y-101277000D01*
X106912500Y-101277000D01*
X106912500Y-101926250D01*
X107071250Y-102085000D01*
X107151310Y-102085000D01*
X107384699Y-101988327D01*
X107563327Y-101809698D01*
X107660000Y-101576309D01*
X107660000Y-101435750D01*
X107501250Y-101277000D01*
X106912500Y-101277000D01*
X106687500Y-101277000D01*
X106098750Y-101277000D01*
X105940000Y-101435750D01*
X105414632Y-101435750D01*
X105384155Y-101378000D01*
X104191000Y-101378000D01*
X104191000Y-101398000D01*
X103937000Y-101398000D01*
X103937000Y-101378000D01*
X102743845Y-101378000D01*
X102622524Y-101607890D01*
X102792355Y-102017924D01*
X103068501Y-102320937D01*
X102978683Y-102337838D01*
X102762559Y-102476910D01*
X102617569Y-102689110D01*
X102566560Y-102941000D01*
X100710000Y-102941000D01*
X100710000Y-100894110D01*
X102622524Y-100894110D01*
X102743845Y-101124000D01*
X103937000Y-101124000D01*
X103937000Y-99930181D01*
X104191000Y-99930181D01*
X104191000Y-101124000D01*
X105384155Y-101124000D01*
X105505476Y-100894110D01*
X105434891Y-100723691D01*
X105940000Y-100723691D01*
X105940000Y-100864250D01*
X106098750Y-101023000D01*
X106687500Y-101023000D01*
X106687500Y-100373750D01*
X106912500Y-100373750D01*
X106912500Y-101023000D01*
X107501250Y-101023000D01*
X107660000Y-100864250D01*
X107660000Y-100723691D01*
X107563327Y-100490302D01*
X107384699Y-100311673D01*
X107151310Y-100215000D01*
X107071250Y-100215000D01*
X106912500Y-100373750D01*
X106687500Y-100373750D01*
X106528750Y-100215000D01*
X106448690Y-100215000D01*
X106215301Y-100311673D01*
X106036673Y-100490302D01*
X105940000Y-100723691D01*
X105434891Y-100723691D01*
X105335645Y-100484076D01*
X104945358Y-100055817D01*
X104420892Y-99809514D01*
X104191000Y-99930181D01*
X103937000Y-99930181D01*
X103707108Y-99809514D01*
X103182642Y-100055817D01*
X102792355Y-100484076D01*
X102622524Y-100894110D01*
X100710000Y-100894110D01*
X100710000Y-97377291D01*
X107854400Y-97377291D01*
X107854400Y-97617850D01*
X108013150Y-97776600D01*
X108737400Y-97776600D01*
X108737400Y-97027350D01*
X108578650Y-96868600D01*
X108363090Y-96868600D01*
X108129701Y-96965273D01*
X107951073Y-97143902D01*
X107854400Y-97377291D01*
X100710000Y-97377291D01*
X100710000Y-94150000D01*
X102502560Y-94150000D01*
X102502560Y-95850000D01*
X102546838Y-96085317D01*
X102685910Y-96301441D01*
X102898110Y-96446431D01*
X103150000Y-96497440D01*
X104850000Y-96497440D01*
X105085317Y-96453162D01*
X105301441Y-96314090D01*
X105446431Y-96101890D01*
X105497440Y-95850000D01*
X105497440Y-94150000D01*
X105453162Y-93914683D01*
X105314090Y-93698559D01*
X105101890Y-93553569D01*
X104850000Y-93502560D01*
X103150000Y-93502560D01*
X102914683Y-93546838D01*
X102698559Y-93685910D01*
X102553569Y-93898110D01*
X102502560Y-94150000D01*
X100710000Y-94150000D01*
X100710000Y-91500000D01*
X102485907Y-91500000D01*
X102598946Y-92068285D01*
X102920853Y-92550054D01*
X103402622Y-92871961D01*
X103970907Y-92985000D01*
X104029093Y-92985000D01*
X104597378Y-92871961D01*
X105079147Y-92550054D01*
X105401054Y-92068285D01*
X105514093Y-91500000D01*
X105401054Y-90931715D01*
X105079147Y-90449946D01*
X104597378Y-90128039D01*
X104029093Y-90015000D01*
X103970907Y-90015000D01*
X103402622Y-90128039D01*
X102920853Y-90449946D01*
X102598946Y-90931715D01*
X102485907Y-91500000D01*
X100710000Y-91500000D01*
X100710000Y-83870402D01*
X101232321Y-84393636D01*
X102053481Y-84734611D01*
X102942619Y-84735387D01*
X103764372Y-84395845D01*
X104393636Y-83767679D01*
X104734611Y-82946519D01*
X104735364Y-82082853D01*
X134262458Y-82082853D01*
X135000000Y-82820395D01*
X135737542Y-82082853D01*
X141762458Y-82082853D01*
X142500000Y-82820395D01*
X143237542Y-82082853D01*
X149262458Y-82082853D01*
X150000000Y-82820395D01*
X150737542Y-82082853D01*
X150678781Y-81849672D01*
X150186900Y-81677478D01*
X149666566Y-81706625D01*
X149321219Y-81849672D01*
X149262458Y-82082853D01*
X143237542Y-82082853D01*
X143178781Y-81849672D01*
X142686900Y-81677478D01*
X142166566Y-81706625D01*
X141821219Y-81849672D01*
X141762458Y-82082853D01*
X135737542Y-82082853D01*
X135678781Y-81849672D01*
X135186900Y-81677478D01*
X134666566Y-81706625D01*
X134321219Y-81849672D01*
X134262458Y-82082853D01*
X104735364Y-82082853D01*
X104735387Y-82057381D01*
X104395845Y-81235628D01*
X103871134Y-80710000D01*
X166129598Y-80710000D01*
X165606364Y-81232321D01*
G36*
X112015000Y-107220132D02*
X112015000Y-108779868D01*
X111897434Y-108897434D01*
X111651397Y-109265654D01*
X111565000Y-109700000D01*
X111565000Y-113200000D01*
X111595648Y-113354076D01*
X111501310Y-113315000D01*
X111285750Y-113315000D01*
X111127000Y-113473750D01*
X111127000Y-114223000D01*
X112227336Y-114223000D01*
X112265654Y-114248603D01*
X112700000Y-114335000D01*
X112747000Y-114325651D01*
X112747000Y-114477000D01*
X112727000Y-114477000D01*
X112727000Y-114497000D01*
X112473000Y-114497000D01*
X112473000Y-114477000D01*
X111127000Y-114477000D01*
X111127000Y-114497000D01*
X110873000Y-114497000D01*
X110873000Y-114477000D01*
X110148750Y-114477000D01*
X109990000Y-114635750D01*
X109990000Y-114715000D01*
X109650000Y-114715000D01*
X109215655Y-114801396D01*
X108847434Y-115047434D01*
X108797434Y-115097434D01*
X108551397Y-115465655D01*
X108465000Y-115900000D01*
X108551397Y-116334345D01*
X108571880Y-116365000D01*
X108545868Y-116365000D01*
X108235000Y-116054132D01*
X108235000Y-113823691D01*
X109990000Y-113823691D01*
X109990000Y-114064250D01*
X110148750Y-114223000D01*
X110873000Y-114223000D01*
X110873000Y-113473750D01*
X110714250Y-113315000D01*
X110498690Y-113315000D01*
X110265301Y-113411673D01*
X110086673Y-113590302D01*
X109990000Y-113823691D01*
X108235000Y-113823691D01*
X108235000Y-109035000D01*
X110100000Y-109035000D01*
X110419541Y-108971439D01*
X110690434Y-108790434D01*
X111690434Y-107790434D01*
X111871440Y-107519540D01*
X111935000Y-107200000D01*
X111935000Y-107140132D01*
X112015000Y-107220132D01*
X112015000Y-107220132D01*
G37*
X112015000Y-107220132D02*
X112015000Y-108779868D01*
X111897434Y-108897434D01*
X111651397Y-109265654D01*
X111565000Y-109700000D01*
X111565000Y-113200000D01*
X111595648Y-113354076D01*
X111501310Y-113315000D01*
X111285750Y-113315000D01*
X111127000Y-113473750D01*
X111127000Y-114223000D01*
X112227336Y-114223000D01*
X112265654Y-114248603D01*
X112700000Y-114335000D01*
X112747000Y-114325651D01*
X112747000Y-114477000D01*
X112727000Y-114477000D01*
X112727000Y-114497000D01*
X112473000Y-114497000D01*
X112473000Y-114477000D01*
X111127000Y-114477000D01*
X111127000Y-114497000D01*
X110873000Y-114497000D01*
X110873000Y-114477000D01*
X110148750Y-114477000D01*
X109990000Y-114635750D01*
X109990000Y-114715000D01*
X109650000Y-114715000D01*
X109215655Y-114801396D01*
X108847434Y-115047434D01*
X108797434Y-115097434D01*
X108551397Y-115465655D01*
X108465000Y-115900000D01*
X108551397Y-116334345D01*
X108571880Y-116365000D01*
X108545868Y-116365000D01*
X108235000Y-116054132D01*
X108235000Y-113823691D01*
X109990000Y-113823691D01*
X109990000Y-114064250D01*
X110148750Y-114223000D01*
X110873000Y-114223000D01*
X110873000Y-113473750D01*
X110714250Y-113315000D01*
X110498690Y-113315000D01*
X110265301Y-113411673D01*
X110086673Y-113590302D01*
X109990000Y-113823691D01*
X108235000Y-113823691D01*
X108235000Y-109035000D01*
X110100000Y-109035000D01*
X110419541Y-108971439D01*
X110690434Y-108790434D01*
X111690434Y-107790434D01*
X111871440Y-107519540D01*
X111935000Y-107200000D01*
X111935000Y-107140132D01*
X112015000Y-107220132D01*
G36*
X114777000Y-101173000D02*
X114797000Y-101173000D01*
X114797000Y-101427000D01*
X114777000Y-101427000D01*
X114777000Y-102773000D01*
X114797000Y-102773000D01*
X114797000Y-103027000D01*
X114777000Y-103027000D01*
X114777000Y-104373000D01*
X114797000Y-104373000D01*
X114797000Y-104627000D01*
X114777000Y-104627000D01*
X114777000Y-105873000D01*
X114797000Y-105873000D01*
X114797000Y-106127000D01*
X114777000Y-106127000D01*
X114777000Y-107273000D01*
X114797000Y-107273000D01*
X114797000Y-107527000D01*
X114777000Y-107527000D01*
X114777000Y-108251250D01*
X114935750Y-108410000D01*
X115176309Y-108410000D01*
X115409698Y-108313327D01*
X115558947Y-108164079D01*
X117197434Y-109802566D01*
X117565654Y-110048603D01*
X118000000Y-110135000D01*
X119529868Y-110135000D01*
X119871000Y-110476132D01*
X119871000Y-110969962D01*
X119770683Y-110988838D01*
X119554559Y-111127910D01*
X119409569Y-111340110D01*
X119358560Y-111592000D01*
X119358560Y-111593000D01*
X116586000Y-111593000D01*
X116341000Y-111641734D01*
X116341000Y-111477750D01*
X116182250Y-111319000D01*
X114833000Y-111319000D01*
X114833000Y-111339000D01*
X114579000Y-111339000D01*
X114579000Y-111319000D01*
X114559000Y-111319000D01*
X114559000Y-111065000D01*
X114579000Y-111065000D01*
X114579000Y-109965750D01*
X114833000Y-109965750D01*
X114833000Y-111065000D01*
X116182250Y-111065000D01*
X116341000Y-110906250D01*
X116341000Y-110315690D01*
X116244327Y-110082301D01*
X116065698Y-109903673D01*
X115832309Y-109807000D01*
X114991750Y-109807000D01*
X114833000Y-109965750D01*
X114579000Y-109965750D01*
X114420250Y-109807000D01*
X114116648Y-109807000D01*
X114198603Y-109684346D01*
X114285000Y-109250000D01*
X114285000Y-108410000D01*
X114364250Y-108410000D01*
X114523000Y-108251250D01*
X114523000Y-107527000D01*
X114503000Y-107527000D01*
X114503000Y-107273000D01*
X114523000Y-107273000D01*
X114523000Y-106127000D01*
X114503000Y-106127000D01*
X114503000Y-105873000D01*
X114523000Y-105873000D01*
X114523000Y-104627000D01*
X114503000Y-104627000D01*
X114503000Y-104373000D01*
X114523000Y-104373000D01*
X114523000Y-103027000D01*
X113773750Y-103027000D01*
X113615000Y-103185750D01*
X113615000Y-103401310D01*
X113711673Y-103634699D01*
X113776974Y-103700000D01*
X113711673Y-103765301D01*
X113615000Y-103998690D01*
X113615000Y-104115364D01*
X113610000Y-104107881D01*
X113610000Y-102103134D01*
X113701938Y-102011196D01*
X113711673Y-102034699D01*
X113776974Y-102100000D01*
X113711673Y-102165301D01*
X113615000Y-102398690D01*
X113615000Y-102614250D01*
X113773750Y-102773000D01*
X114523000Y-102773000D01*
X114523000Y-101427000D01*
X114503000Y-101427000D01*
X114503000Y-101210134D01*
X114560134Y-101153000D01*
X114777000Y-101153000D01*
X114777000Y-101173000D01*
X114777000Y-101173000D01*
G37*
X114777000Y-101173000D02*
X114797000Y-101173000D01*
X114797000Y-101427000D01*
X114777000Y-101427000D01*
X114777000Y-102773000D01*
X114797000Y-102773000D01*
X114797000Y-103027000D01*
X114777000Y-103027000D01*
X114777000Y-104373000D01*
X114797000Y-104373000D01*
X114797000Y-104627000D01*
X114777000Y-104627000D01*
X114777000Y-105873000D01*
X114797000Y-105873000D01*
X114797000Y-106127000D01*
X114777000Y-106127000D01*
X114777000Y-107273000D01*
X114797000Y-107273000D01*
X114797000Y-107527000D01*
X114777000Y-107527000D01*
X114777000Y-108251250D01*
X114935750Y-108410000D01*
X115176309Y-108410000D01*
X115409698Y-108313327D01*
X115558947Y-108164079D01*
X117197434Y-109802566D01*
X117565654Y-110048603D01*
X118000000Y-110135000D01*
X119529868Y-110135000D01*
X119871000Y-110476132D01*
X119871000Y-110969962D01*
X119770683Y-110988838D01*
X119554559Y-111127910D01*
X119409569Y-111340110D01*
X119358560Y-111592000D01*
X119358560Y-111593000D01*
X116586000Y-111593000D01*
X116341000Y-111641734D01*
X116341000Y-111477750D01*
X116182250Y-111319000D01*
X114833000Y-111319000D01*
X114833000Y-111339000D01*
X114579000Y-111339000D01*
X114579000Y-111319000D01*
X114559000Y-111319000D01*
X114559000Y-111065000D01*
X114579000Y-111065000D01*
X114579000Y-109965750D01*
X114833000Y-109965750D01*
X114833000Y-111065000D01*
X116182250Y-111065000D01*
X116341000Y-110906250D01*
X116341000Y-110315690D01*
X116244327Y-110082301D01*
X116065698Y-109903673D01*
X115832309Y-109807000D01*
X114991750Y-109807000D01*
X114833000Y-109965750D01*
X114579000Y-109965750D01*
X114420250Y-109807000D01*
X114116648Y-109807000D01*
X114198603Y-109684346D01*
X114285000Y-109250000D01*
X114285000Y-108410000D01*
X114364250Y-108410000D01*
X114523000Y-108251250D01*
X114523000Y-107527000D01*
X114503000Y-107527000D01*
X114503000Y-107273000D01*
X114523000Y-107273000D01*
X114523000Y-106127000D01*
X114503000Y-106127000D01*
X114503000Y-105873000D01*
X114523000Y-105873000D01*
X114523000Y-104627000D01*
X114503000Y-104627000D01*
X114503000Y-104373000D01*
X114523000Y-104373000D01*
X114523000Y-103027000D01*
X113773750Y-103027000D01*
X113615000Y-103185750D01*
X113615000Y-103401310D01*
X113711673Y-103634699D01*
X113776974Y-103700000D01*
X113711673Y-103765301D01*
X113615000Y-103998690D01*
X113615000Y-104115364D01*
X113610000Y-104107881D01*
X113610000Y-102103134D01*
X113701938Y-102011196D01*
X113711673Y-102034699D01*
X113776974Y-102100000D01*
X113711673Y-102165301D01*
X113615000Y-102398690D01*
X113615000Y-102614250D01*
X113773750Y-102773000D01*
X114523000Y-102773000D01*
X114523000Y-101427000D01*
X114503000Y-101427000D01*
X114503000Y-101210134D01*
X114560134Y-101153000D01*
X114777000Y-101153000D01*
X114777000Y-101173000D01*
G36*
X117473160Y-98445320D02*
X117493160Y-98445320D01*
X117493160Y-98699320D01*
X117473160Y-98699320D01*
X117473160Y-99423570D01*
X117631910Y-99582320D01*
X117872469Y-99582320D01*
X118105858Y-99485647D01*
X118284487Y-99307019D01*
X118381160Y-99073630D01*
X118381160Y-98969278D01*
X118398510Y-98996241D01*
X118610710Y-99141231D01*
X118862600Y-99192240D01*
X119040000Y-99192240D01*
X119040000Y-100142576D01*
X118650000Y-100065001D01*
X118215654Y-100151397D01*
X118195296Y-100165000D01*
X116776620Y-100165000D01*
X116894764Y-99988185D01*
X116975495Y-99582320D01*
X117060410Y-99582320D01*
X117219160Y-99423570D01*
X117219160Y-98699320D01*
X117199160Y-98699320D01*
X117199160Y-98445320D01*
X117219160Y-98445320D01*
X117219160Y-98425320D01*
X117473160Y-98425320D01*
X117473160Y-98445320D01*
X117473160Y-98445320D01*
G37*
X117473160Y-98445320D02*
X117493160Y-98445320D01*
X117493160Y-98699320D01*
X117473160Y-98699320D01*
X117473160Y-99423570D01*
X117631910Y-99582320D01*
X117872469Y-99582320D01*
X118105858Y-99485647D01*
X118284487Y-99307019D01*
X118381160Y-99073630D01*
X118381160Y-98969278D01*
X118398510Y-98996241D01*
X118610710Y-99141231D01*
X118862600Y-99192240D01*
X119040000Y-99192240D01*
X119040000Y-100142576D01*
X118650000Y-100065001D01*
X118215654Y-100151397D01*
X118195296Y-100165000D01*
X116776620Y-100165000D01*
X116894764Y-99988185D01*
X116975495Y-99582320D01*
X117060410Y-99582320D01*
X117219160Y-99423570D01*
X117219160Y-98699320D01*
X117199160Y-98699320D01*
X117199160Y-98445320D01*
X117219160Y-98445320D01*
X117219160Y-98425320D01*
X117473160Y-98425320D01*
X117473160Y-98445320D01*
G36*
X115258200Y-89122250D02*
X115416950Y-89281000D01*
X116166200Y-89281000D01*
X116166200Y-89261000D01*
X116269800Y-89261000D01*
X116269800Y-89555000D01*
X116166200Y-89555000D01*
X116166200Y-89535000D01*
X115416950Y-89535000D01*
X115258200Y-89693750D01*
X115258200Y-89909310D01*
X115274756Y-89949280D01*
X114995960Y-89949280D01*
X114877464Y-89971577D01*
X114767360Y-89949280D01*
X114360960Y-89949280D01*
X114334776Y-89954207D01*
X114356040Y-89849200D01*
X114356040Y-89349200D01*
X114311762Y-89113883D01*
X114196139Y-88934200D01*
X115126200Y-88934200D01*
X115258200Y-88907943D01*
X115258200Y-89122250D01*
X115258200Y-89122250D01*
G37*
X115258200Y-89122250D02*
X115416950Y-89281000D01*
X116166200Y-89281000D01*
X116166200Y-89261000D01*
X116269800Y-89261000D01*
X116269800Y-89555000D01*
X116166200Y-89555000D01*
X116166200Y-89535000D01*
X115416950Y-89535000D01*
X115258200Y-89693750D01*
X115258200Y-89909310D01*
X115274756Y-89949280D01*
X114995960Y-89949280D01*
X114877464Y-89971577D01*
X114767360Y-89949280D01*
X114360960Y-89949280D01*
X114334776Y-89954207D01*
X114356040Y-89849200D01*
X114356040Y-89349200D01*
X114311762Y-89113883D01*
X114196139Y-88934200D01*
X115126200Y-88934200D01*
X115258200Y-88907943D01*
X115258200Y-89122250D01*
M02*
