G04 #@! TF.FileFunction,Legend,Top*
%FSLAX46Y46*%
G04 Gerber Fmt 4.6, Leading zero omitted, Abs format (unit mm)*
G04 Created by KiCad (PCBNEW 4.0.7) date 06/10/18 23:59:59*
%MOMM*%
%LPD*%
G01*
G04 APERTURE LIST*
%ADD10C,0.100000*%
%ADD11C,0.200000*%
%ADD12C,0.150000*%
%ADD13C,0.120000*%
%ADD14C,0.203200*%
%ADD15C,0.127000*%
%ADD16R,1.150000X1.200000*%
%ADD17R,1.299160X1.898600*%
%ADD18R,1.898600X1.299160*%
%ADD19R,4.400000X4.400000*%
%ADD20C,3.600000*%
%ADD21R,1.750000X1.750000*%
%ADD22C,1.750000*%
%ADD23R,2.100000X2.100000*%
%ADD24O,2.100000X2.100000*%
%ADD25R,2.000000X2.800000*%
%ADD26O,2.000000X2.800000*%
%ADD27R,2.580000X2.000000*%
%ADD28R,1.200000X1.150000*%
%ADD29R,1.000000X0.850000*%
%ADD30R,1.200000X1.300000*%
%ADD31R,1.300000X1.200000*%
%ADD32R,1.300000X0.900000*%
%ADD33R,0.900000X1.300000*%
%ADD34R,0.800000X1.750000*%
%ADD35O,1.650000X1.350000*%
%ADD36O,1.400000X1.950000*%
%ADD37R,0.850000X1.000000*%
%ADD38R,1.600000X1.600000*%
%ADD39R,2.400000X4.200000*%
%ADD40R,2.400000X1.900000*%
%ADD41R,0.806400X1.670000*%
%ADD42R,1.568400X2.000200*%
G04 APERTURE END LIST*
D10*
X152700000Y-83157142D02*
X152671429Y-83214285D01*
X152671429Y-83299999D01*
X152700000Y-83385714D01*
X152757143Y-83442856D01*
X152814286Y-83471428D01*
X152928571Y-83499999D01*
X153014286Y-83499999D01*
X153128571Y-83471428D01*
X153185714Y-83442856D01*
X153242857Y-83385714D01*
X153271429Y-83299999D01*
X153271429Y-83242856D01*
X153242857Y-83157142D01*
X153214286Y-83128571D01*
X153014286Y-83128571D01*
X153014286Y-83242856D01*
X153271429Y-82871428D02*
X152671429Y-82871428D01*
X153271429Y-82528571D01*
X152671429Y-82528571D01*
X153271429Y-82242857D02*
X152671429Y-82242857D01*
X152671429Y-82100000D01*
X152700000Y-82014285D01*
X152757143Y-81957143D01*
X152814286Y-81928571D01*
X152928571Y-81900000D01*
X153014286Y-81900000D01*
X153128571Y-81928571D01*
X153185714Y-81957143D01*
X153242857Y-82014285D01*
X153271429Y-82100000D01*
X153271429Y-82242857D01*
X153042857Y-86200000D02*
X153042857Y-85742857D01*
X153271429Y-85971428D02*
X152814286Y-85971428D01*
X152671429Y-85514286D02*
X152671429Y-85142857D01*
X152900000Y-85342857D01*
X152900000Y-85257143D01*
X152928571Y-85200000D01*
X152957143Y-85171429D01*
X153014286Y-85142857D01*
X153157143Y-85142857D01*
X153214286Y-85171429D01*
X153242857Y-85200000D01*
X153271429Y-85257143D01*
X153271429Y-85428571D01*
X153242857Y-85485714D01*
X153214286Y-85514286D01*
X153214286Y-84885714D02*
X153242857Y-84857142D01*
X153271429Y-84885714D01*
X153242857Y-84914285D01*
X153214286Y-84885714D01*
X153271429Y-84885714D01*
X152671429Y-84657143D02*
X152671429Y-84285714D01*
X152900000Y-84485714D01*
X152900000Y-84400000D01*
X152928571Y-84342857D01*
X152957143Y-84314286D01*
X153014286Y-84285714D01*
X153157143Y-84285714D01*
X153214286Y-84314286D01*
X153242857Y-84342857D01*
X153271429Y-84400000D01*
X153271429Y-84571428D01*
X153242857Y-84628571D01*
X153214286Y-84657143D01*
X152671429Y-84114285D02*
X153271429Y-83914285D01*
X152671429Y-83714285D01*
X145200000Y-82957142D02*
X145171429Y-83014285D01*
X145171429Y-83099999D01*
X145200000Y-83185714D01*
X145257143Y-83242856D01*
X145314286Y-83271428D01*
X145428571Y-83299999D01*
X145514286Y-83299999D01*
X145628571Y-83271428D01*
X145685714Y-83242856D01*
X145742857Y-83185714D01*
X145771429Y-83099999D01*
X145771429Y-83042856D01*
X145742857Y-82957142D01*
X145714286Y-82928571D01*
X145514286Y-82928571D01*
X145514286Y-83042856D01*
X145771429Y-82671428D02*
X145171429Y-82671428D01*
X145771429Y-82328571D01*
X145171429Y-82328571D01*
X145771429Y-82042857D02*
X145171429Y-82042857D01*
X145171429Y-81900000D01*
X145200000Y-81814285D01*
X145257143Y-81757143D01*
X145314286Y-81728571D01*
X145428571Y-81700000D01*
X145514286Y-81700000D01*
X145628571Y-81728571D01*
X145685714Y-81757143D01*
X145742857Y-81814285D01*
X145771429Y-81900000D01*
X145771429Y-82042857D01*
X145542857Y-86000000D02*
X145542857Y-85542857D01*
X145771429Y-85771428D02*
X145314286Y-85771428D01*
X145171429Y-85314286D02*
X145171429Y-84942857D01*
X145400000Y-85142857D01*
X145400000Y-85057143D01*
X145428571Y-85000000D01*
X145457143Y-84971429D01*
X145514286Y-84942857D01*
X145657143Y-84942857D01*
X145714286Y-84971429D01*
X145742857Y-85000000D01*
X145771429Y-85057143D01*
X145771429Y-85228571D01*
X145742857Y-85285714D01*
X145714286Y-85314286D01*
X145714286Y-84685714D02*
X145742857Y-84657142D01*
X145771429Y-84685714D01*
X145742857Y-84714285D01*
X145714286Y-84685714D01*
X145771429Y-84685714D01*
X145171429Y-84457143D02*
X145171429Y-84085714D01*
X145400000Y-84285714D01*
X145400000Y-84200000D01*
X145428571Y-84142857D01*
X145457143Y-84114286D01*
X145514286Y-84085714D01*
X145657143Y-84085714D01*
X145714286Y-84114286D01*
X145742857Y-84142857D01*
X145771429Y-84200000D01*
X145771429Y-84371428D01*
X145742857Y-84428571D01*
X145714286Y-84457143D01*
X145171429Y-83914285D02*
X145771429Y-83714285D01*
X145171429Y-83514285D01*
X137700000Y-82957142D02*
X137671429Y-83014285D01*
X137671429Y-83099999D01*
X137700000Y-83185714D01*
X137757143Y-83242856D01*
X137814286Y-83271428D01*
X137928571Y-83299999D01*
X138014286Y-83299999D01*
X138128571Y-83271428D01*
X138185714Y-83242856D01*
X138242857Y-83185714D01*
X138271429Y-83099999D01*
X138271429Y-83042856D01*
X138242857Y-82957142D01*
X138214286Y-82928571D01*
X138014286Y-82928571D01*
X138014286Y-83042856D01*
X138271429Y-82671428D02*
X137671429Y-82671428D01*
X138271429Y-82328571D01*
X137671429Y-82328571D01*
X138271429Y-82042857D02*
X137671429Y-82042857D01*
X137671429Y-81900000D01*
X137700000Y-81814285D01*
X137757143Y-81757143D01*
X137814286Y-81728571D01*
X137928571Y-81700000D01*
X138014286Y-81700000D01*
X138128571Y-81728571D01*
X138185714Y-81757143D01*
X138242857Y-81814285D01*
X138271429Y-81900000D01*
X138271429Y-82042857D01*
X138042857Y-86100000D02*
X138042857Y-85642857D01*
X138271429Y-85871428D02*
X137814286Y-85871428D01*
X137671429Y-85414286D02*
X137671429Y-85042857D01*
X137900000Y-85242857D01*
X137900000Y-85157143D01*
X137928571Y-85100000D01*
X137957143Y-85071429D01*
X138014286Y-85042857D01*
X138157143Y-85042857D01*
X138214286Y-85071429D01*
X138242857Y-85100000D01*
X138271429Y-85157143D01*
X138271429Y-85328571D01*
X138242857Y-85385714D01*
X138214286Y-85414286D01*
X138214286Y-84785714D02*
X138242857Y-84757142D01*
X138271429Y-84785714D01*
X138242857Y-84814285D01*
X138214286Y-84785714D01*
X138271429Y-84785714D01*
X137671429Y-84557143D02*
X137671429Y-84185714D01*
X137900000Y-84385714D01*
X137900000Y-84300000D01*
X137928571Y-84242857D01*
X137957143Y-84214286D01*
X138014286Y-84185714D01*
X138157143Y-84185714D01*
X138214286Y-84214286D01*
X138242857Y-84242857D01*
X138271429Y-84300000D01*
X138271429Y-84471428D01*
X138242857Y-84528571D01*
X138214286Y-84557143D01*
X137671429Y-84014285D02*
X138271429Y-83814285D01*
X137671429Y-83614285D01*
D11*
X116823607Y-83000000D02*
G75*
G03X116823607Y-83000000I-223607J0D01*
G01*
X116723607Y-85400000D02*
G75*
G03X116723607Y-85400000I-223607J0D01*
G01*
D10*
X103090477Y-98900000D02*
X103014286Y-98861905D01*
X102900001Y-98861905D01*
X102785715Y-98900000D01*
X102709524Y-98976190D01*
X102671429Y-99052381D01*
X102633334Y-99204762D01*
X102633334Y-99319048D01*
X102671429Y-99471429D01*
X102709524Y-99547619D01*
X102785715Y-99623810D01*
X102900001Y-99661905D01*
X102976191Y-99661905D01*
X103090477Y-99623810D01*
X103128572Y-99585714D01*
X103128572Y-99319048D01*
X102976191Y-99319048D01*
X103471429Y-99661905D02*
X103471429Y-98861905D01*
X103928572Y-99661905D01*
X103928572Y-98861905D01*
X104309524Y-99661905D02*
X104309524Y-98861905D01*
X104500000Y-98861905D01*
X104614286Y-98900000D01*
X104690477Y-98976190D01*
X104728572Y-99052381D01*
X104766667Y-99204762D01*
X104766667Y-99319048D01*
X104728572Y-99471429D01*
X104690477Y-99547619D01*
X104614286Y-99623810D01*
X104500000Y-99661905D01*
X104309524Y-99661905D01*
X130200000Y-122807142D02*
X130171429Y-122864285D01*
X130171429Y-122949999D01*
X130200000Y-123035714D01*
X130257143Y-123092856D01*
X130314286Y-123121428D01*
X130428571Y-123149999D01*
X130514286Y-123149999D01*
X130628571Y-123121428D01*
X130685714Y-123092856D01*
X130742857Y-123035714D01*
X130771429Y-122949999D01*
X130771429Y-122892856D01*
X130742857Y-122807142D01*
X130714286Y-122778571D01*
X130514286Y-122778571D01*
X130514286Y-122892856D01*
X130771429Y-122521428D02*
X130171429Y-122521428D01*
X130771429Y-122178571D01*
X130171429Y-122178571D01*
X130771429Y-121892857D02*
X130171429Y-121892857D01*
X130171429Y-121750000D01*
X130200000Y-121664285D01*
X130257143Y-121607143D01*
X130314286Y-121578571D01*
X130428571Y-121550000D01*
X130514286Y-121550000D01*
X130628571Y-121578571D01*
X130685714Y-121607143D01*
X130742857Y-121664285D01*
X130771429Y-121750000D01*
X130771429Y-121892857D01*
X130542857Y-121150000D02*
X130542857Y-120692857D01*
X130771429Y-120921428D02*
X130314286Y-120921428D01*
X130171429Y-120464286D02*
X130171429Y-120092857D01*
X130400000Y-120292857D01*
X130400000Y-120207143D01*
X130428571Y-120150000D01*
X130457143Y-120121429D01*
X130514286Y-120092857D01*
X130657143Y-120092857D01*
X130714286Y-120121429D01*
X130742857Y-120150000D01*
X130771429Y-120207143D01*
X130771429Y-120378571D01*
X130742857Y-120435714D01*
X130714286Y-120464286D01*
X130714286Y-119835714D02*
X130742857Y-119807142D01*
X130771429Y-119835714D01*
X130742857Y-119864285D01*
X130714286Y-119835714D01*
X130771429Y-119835714D01*
X130171429Y-119607143D02*
X130171429Y-119235714D01*
X130400000Y-119435714D01*
X130400000Y-119350000D01*
X130428571Y-119292857D01*
X130457143Y-119264286D01*
X130514286Y-119235714D01*
X130657143Y-119235714D01*
X130714286Y-119264286D01*
X130742857Y-119292857D01*
X130771429Y-119350000D01*
X130771429Y-119521428D01*
X130742857Y-119578571D01*
X130714286Y-119607143D01*
X130171429Y-119064285D02*
X130771429Y-118864285D01*
X130171429Y-118664285D01*
X137650000Y-122757142D02*
X137621429Y-122814285D01*
X137621429Y-122899999D01*
X137650000Y-122985714D01*
X137707143Y-123042856D01*
X137764286Y-123071428D01*
X137878571Y-123099999D01*
X137964286Y-123099999D01*
X138078571Y-123071428D01*
X138135714Y-123042856D01*
X138192857Y-122985714D01*
X138221429Y-122899999D01*
X138221429Y-122842856D01*
X138192857Y-122757142D01*
X138164286Y-122728571D01*
X137964286Y-122728571D01*
X137964286Y-122842856D01*
X138221429Y-122471428D02*
X137621429Y-122471428D01*
X138221429Y-122128571D01*
X137621429Y-122128571D01*
X138221429Y-121842857D02*
X137621429Y-121842857D01*
X137621429Y-121700000D01*
X137650000Y-121614285D01*
X137707143Y-121557143D01*
X137764286Y-121528571D01*
X137878571Y-121500000D01*
X137964286Y-121500000D01*
X138078571Y-121528571D01*
X138135714Y-121557143D01*
X138192857Y-121614285D01*
X138221429Y-121700000D01*
X138221429Y-121842857D01*
X138042857Y-121250000D02*
X138042857Y-120792857D01*
X138271429Y-121021428D02*
X137814286Y-121021428D01*
X137671429Y-120564286D02*
X137671429Y-120192857D01*
X137900000Y-120392857D01*
X137900000Y-120307143D01*
X137928571Y-120250000D01*
X137957143Y-120221429D01*
X138014286Y-120192857D01*
X138157143Y-120192857D01*
X138214286Y-120221429D01*
X138242857Y-120250000D01*
X138271429Y-120307143D01*
X138271429Y-120478571D01*
X138242857Y-120535714D01*
X138214286Y-120564286D01*
X138214286Y-119935714D02*
X138242857Y-119907142D01*
X138271429Y-119935714D01*
X138242857Y-119964285D01*
X138214286Y-119935714D01*
X138271429Y-119935714D01*
X137671429Y-119707143D02*
X137671429Y-119335714D01*
X137900000Y-119535714D01*
X137900000Y-119450000D01*
X137928571Y-119392857D01*
X137957143Y-119364286D01*
X138014286Y-119335714D01*
X138157143Y-119335714D01*
X138214286Y-119364286D01*
X138242857Y-119392857D01*
X138271429Y-119450000D01*
X138271429Y-119621428D01*
X138242857Y-119678571D01*
X138214286Y-119707143D01*
X137671429Y-119164285D02*
X138271429Y-118964285D01*
X137671429Y-118764285D01*
D11*
X122623607Y-124000000D02*
G75*
G03X122623607Y-124000000I-223607J0D01*
G01*
X108023607Y-104000000D02*
G75*
G03X108023607Y-104000000I-223607J0D01*
G01*
X116223607Y-118800000D02*
G75*
G03X116223607Y-118800000I-223607J0D01*
G01*
D10*
X148471429Y-120714286D02*
X149071429Y-120514286D01*
X148471429Y-120314286D01*
X149042857Y-119857143D02*
X149071429Y-119914286D01*
X149071429Y-120028572D01*
X149042857Y-120085714D01*
X149014286Y-120114286D01*
X148957143Y-120142857D01*
X148785714Y-120142857D01*
X148728571Y-120114286D01*
X148700000Y-120085714D01*
X148671429Y-120028572D01*
X148671429Y-119914286D01*
X148700000Y-119857143D01*
X149042857Y-119342857D02*
X149071429Y-119400000D01*
X149071429Y-119514286D01*
X149042857Y-119571428D01*
X149014286Y-119600000D01*
X148957143Y-119628571D01*
X148785714Y-119628571D01*
X148728571Y-119600000D01*
X148700000Y-119571428D01*
X148671429Y-119514286D01*
X148671429Y-119400000D01*
X148700000Y-119342857D01*
X148500000Y-122957142D02*
X148471429Y-123014285D01*
X148471429Y-123099999D01*
X148500000Y-123185714D01*
X148557143Y-123242856D01*
X148614286Y-123271428D01*
X148728571Y-123299999D01*
X148814286Y-123299999D01*
X148928571Y-123271428D01*
X148985714Y-123242856D01*
X149042857Y-123185714D01*
X149071429Y-123099999D01*
X149071429Y-123042856D01*
X149042857Y-122957142D01*
X149014286Y-122928571D01*
X148814286Y-122928571D01*
X148814286Y-123042856D01*
X149071429Y-122671428D02*
X148471429Y-122671428D01*
X149071429Y-122328571D01*
X148471429Y-122328571D01*
X149071429Y-122042857D02*
X148471429Y-122042857D01*
X148471429Y-121900000D01*
X148500000Y-121814285D01*
X148557143Y-121757143D01*
X148614286Y-121728571D01*
X148728571Y-121700000D01*
X148814286Y-121700000D01*
X148928571Y-121728571D01*
X148985714Y-121757143D01*
X149042857Y-121814285D01*
X149071429Y-121900000D01*
X149071429Y-122042857D01*
D12*
X114058738Y-86166357D02*
X114668262Y-86509214D01*
X114058738Y-86852071D01*
X113995238Y-83626357D02*
X114604762Y-83969214D01*
X113995238Y-84312071D01*
D10*
X152671429Y-89485715D02*
X152671429Y-89114286D01*
X152900000Y-89314286D01*
X152900000Y-89228572D01*
X152928571Y-89171429D01*
X152957143Y-89142858D01*
X153014286Y-89114286D01*
X153157143Y-89114286D01*
X153214286Y-89142858D01*
X153242857Y-89171429D01*
X153271429Y-89228572D01*
X153271429Y-89400000D01*
X153242857Y-89457143D01*
X153214286Y-89485715D01*
X152671429Y-88571429D02*
X152671429Y-88857143D01*
X152957143Y-88885714D01*
X152928571Y-88857143D01*
X152900000Y-88800000D01*
X152900000Y-88657143D01*
X152928571Y-88600000D01*
X152957143Y-88571429D01*
X153014286Y-88542857D01*
X153157143Y-88542857D01*
X153214286Y-88571429D01*
X153242857Y-88600000D01*
X153271429Y-88657143D01*
X153271429Y-88800000D01*
X153242857Y-88857143D01*
X153214286Y-88885714D01*
X152671429Y-87485715D02*
X152671429Y-87114286D01*
X152900000Y-87314286D01*
X152900000Y-87228572D01*
X152928571Y-87171429D01*
X152957143Y-87142858D01*
X153014286Y-87114286D01*
X153157143Y-87114286D01*
X153214286Y-87142858D01*
X153242857Y-87171429D01*
X153271429Y-87228572D01*
X153271429Y-87400000D01*
X153242857Y-87457143D01*
X153214286Y-87485715D01*
X152871429Y-86600000D02*
X153271429Y-86600000D01*
X152642857Y-86742857D02*
X153071429Y-86885714D01*
X153071429Y-86514286D01*
X145171429Y-87485715D02*
X145171429Y-87114286D01*
X145400000Y-87314286D01*
X145400000Y-87228572D01*
X145428571Y-87171429D01*
X145457143Y-87142858D01*
X145514286Y-87114286D01*
X145657143Y-87114286D01*
X145714286Y-87142858D01*
X145742857Y-87171429D01*
X145771429Y-87228572D01*
X145771429Y-87400000D01*
X145742857Y-87457143D01*
X145714286Y-87485715D01*
X145228571Y-86885714D02*
X145200000Y-86857143D01*
X145171429Y-86800000D01*
X145171429Y-86657143D01*
X145200000Y-86600000D01*
X145228571Y-86571429D01*
X145285714Y-86542857D01*
X145342857Y-86542857D01*
X145428571Y-86571429D01*
X145771429Y-86914286D01*
X145771429Y-86542857D01*
X145171429Y-89485715D02*
X145171429Y-89114286D01*
X145400000Y-89314286D01*
X145400000Y-89228572D01*
X145428571Y-89171429D01*
X145457143Y-89142858D01*
X145514286Y-89114286D01*
X145657143Y-89114286D01*
X145714286Y-89142858D01*
X145742857Y-89171429D01*
X145771429Y-89228572D01*
X145771429Y-89400000D01*
X145742857Y-89457143D01*
X145714286Y-89485715D01*
X145171429Y-88914286D02*
X145171429Y-88542857D01*
X145400000Y-88742857D01*
X145400000Y-88657143D01*
X145428571Y-88600000D01*
X145457143Y-88571429D01*
X145514286Y-88542857D01*
X145657143Y-88542857D01*
X145714286Y-88571429D01*
X145742857Y-88600000D01*
X145771429Y-88657143D01*
X145771429Y-88828571D01*
X145742857Y-88885714D01*
X145714286Y-88914286D01*
X137728571Y-87457143D02*
X137700000Y-87428572D01*
X137671429Y-87371429D01*
X137671429Y-87228572D01*
X137700000Y-87171429D01*
X137728571Y-87142858D01*
X137785714Y-87114286D01*
X137842857Y-87114286D01*
X137928571Y-87142858D01*
X138271429Y-87485715D01*
X138271429Y-87114286D01*
X137671429Y-86600000D02*
X137671429Y-86714286D01*
X137700000Y-86771429D01*
X137728571Y-86800000D01*
X137814286Y-86857143D01*
X137928571Y-86885714D01*
X138157143Y-86885714D01*
X138214286Y-86857143D01*
X138242857Y-86828571D01*
X138271429Y-86771429D01*
X138271429Y-86657143D01*
X138242857Y-86600000D01*
X138214286Y-86571429D01*
X138157143Y-86542857D01*
X138014286Y-86542857D01*
X137957143Y-86571429D01*
X137928571Y-86600000D01*
X137900000Y-86657143D01*
X137900000Y-86771429D01*
X137928571Y-86828571D01*
X137957143Y-86857143D01*
X138014286Y-86885714D01*
X137728571Y-89457143D02*
X137700000Y-89428572D01*
X137671429Y-89371429D01*
X137671429Y-89228572D01*
X137700000Y-89171429D01*
X137728571Y-89142858D01*
X137785714Y-89114286D01*
X137842857Y-89114286D01*
X137928571Y-89142858D01*
X138271429Y-89485715D01*
X138271429Y-89114286D01*
X137671429Y-88571429D02*
X137671429Y-88857143D01*
X137957143Y-88885714D01*
X137928571Y-88857143D01*
X137900000Y-88800000D01*
X137900000Y-88657143D01*
X137928571Y-88600000D01*
X137957143Y-88571429D01*
X138014286Y-88542857D01*
X138157143Y-88542857D01*
X138214286Y-88571429D01*
X138242857Y-88600000D01*
X138271429Y-88657143D01*
X138271429Y-88800000D01*
X138242857Y-88857143D01*
X138214286Y-88885714D01*
X102271429Y-105857143D02*
X102880953Y-105857143D01*
X102576191Y-106161905D02*
X102576191Y-105552381D01*
X103642858Y-105361905D02*
X103261905Y-105361905D01*
X103223810Y-105742857D01*
X103261905Y-105704762D01*
X103338096Y-105666667D01*
X103528572Y-105666667D01*
X103604762Y-105704762D01*
X103642858Y-105742857D01*
X103680953Y-105819048D01*
X103680953Y-106009524D01*
X103642858Y-106085714D01*
X103604762Y-106123810D01*
X103528572Y-106161905D01*
X103338096Y-106161905D01*
X103261905Y-106123810D01*
X103223810Y-106085714D01*
X103909524Y-105361905D02*
X104176191Y-106161905D01*
X104442858Y-105361905D01*
X130228571Y-116357143D02*
X130200000Y-116328572D01*
X130171429Y-116271429D01*
X130171429Y-116128572D01*
X130200000Y-116071429D01*
X130228571Y-116042858D01*
X130285714Y-116014286D01*
X130342857Y-116014286D01*
X130428571Y-116042858D01*
X130771429Y-116385715D01*
X130771429Y-116014286D01*
X130228571Y-115785714D02*
X130200000Y-115757143D01*
X130171429Y-115700000D01*
X130171429Y-115557143D01*
X130200000Y-115500000D01*
X130228571Y-115471429D01*
X130285714Y-115442857D01*
X130342857Y-115442857D01*
X130428571Y-115471429D01*
X130771429Y-115814286D01*
X130771429Y-115442857D01*
X130228571Y-118357143D02*
X130200000Y-118328572D01*
X130171429Y-118271429D01*
X130171429Y-118128572D01*
X130200000Y-118071429D01*
X130228571Y-118042858D01*
X130285714Y-118014286D01*
X130342857Y-118014286D01*
X130428571Y-118042858D01*
X130771429Y-118385715D01*
X130771429Y-118014286D01*
X130771429Y-117442857D02*
X130771429Y-117785714D01*
X130771429Y-117614286D02*
X130171429Y-117614286D01*
X130257143Y-117671429D01*
X130314286Y-117728571D01*
X130342857Y-117785714D01*
X138271429Y-116064286D02*
X138271429Y-116407143D01*
X138271429Y-116235715D02*
X137671429Y-116235715D01*
X137757143Y-116292858D01*
X137814286Y-116350000D01*
X137842857Y-116407143D01*
X137671429Y-115550000D02*
X137671429Y-115664286D01*
X137700000Y-115721429D01*
X137728571Y-115750000D01*
X137814286Y-115807143D01*
X137928571Y-115835714D01*
X138157143Y-115835714D01*
X138214286Y-115807143D01*
X138242857Y-115778571D01*
X138271429Y-115721429D01*
X138271429Y-115607143D01*
X138242857Y-115550000D01*
X138214286Y-115521429D01*
X138157143Y-115492857D01*
X138014286Y-115492857D01*
X137957143Y-115521429D01*
X137928571Y-115550000D01*
X137900000Y-115607143D01*
X137900000Y-115721429D01*
X137928571Y-115778571D01*
X137957143Y-115807143D01*
X138014286Y-115835714D01*
X138271429Y-118014286D02*
X138271429Y-118357143D01*
X138271429Y-118185715D02*
X137671429Y-118185715D01*
X137757143Y-118242858D01*
X137814286Y-118300000D01*
X137842857Y-118357143D01*
X137671429Y-117814286D02*
X137671429Y-117414286D01*
X138271429Y-117671429D01*
X148671429Y-117385714D02*
X149071429Y-117385714D01*
X148442857Y-117528571D02*
X148871429Y-117671428D01*
X148871429Y-117300000D01*
X143392857Y-121250000D02*
X143392857Y-120792857D01*
X143621429Y-121021428D02*
X143164286Y-121021428D01*
X143021429Y-120564286D02*
X143021429Y-120192857D01*
X143250000Y-120392857D01*
X143250000Y-120307143D01*
X143278571Y-120250000D01*
X143307143Y-120221429D01*
X143364286Y-120192857D01*
X143507143Y-120192857D01*
X143564286Y-120221429D01*
X143592857Y-120250000D01*
X143621429Y-120307143D01*
X143621429Y-120478571D01*
X143592857Y-120535714D01*
X143564286Y-120564286D01*
X143564286Y-119935714D02*
X143592857Y-119907142D01*
X143621429Y-119935714D01*
X143592857Y-119964285D01*
X143564286Y-119935714D01*
X143621429Y-119935714D01*
X143021429Y-119707143D02*
X143021429Y-119335714D01*
X143250000Y-119535714D01*
X143250000Y-119450000D01*
X143278571Y-119392857D01*
X143307143Y-119364286D01*
X143364286Y-119335714D01*
X143507143Y-119335714D01*
X143564286Y-119364286D01*
X143592857Y-119392857D01*
X143621429Y-119450000D01*
X143621429Y-119621428D01*
X143592857Y-119678571D01*
X143564286Y-119707143D01*
X143021429Y-119164285D02*
X143621429Y-118964285D01*
X143021429Y-118764285D01*
X143000000Y-122957142D02*
X142971429Y-123014285D01*
X142971429Y-123099999D01*
X143000000Y-123185714D01*
X143057143Y-123242856D01*
X143114286Y-123271428D01*
X143228571Y-123299999D01*
X143314286Y-123299999D01*
X143428571Y-123271428D01*
X143485714Y-123242856D01*
X143542857Y-123185714D01*
X143571429Y-123099999D01*
X143571429Y-123042856D01*
X143542857Y-122957142D01*
X143514286Y-122928571D01*
X143314286Y-122928571D01*
X143314286Y-123042856D01*
X143571429Y-122671428D02*
X142971429Y-122671428D01*
X143571429Y-122328571D01*
X142971429Y-122328571D01*
X143571429Y-122042857D02*
X142971429Y-122042857D01*
X142971429Y-121900000D01*
X143000000Y-121814285D01*
X143057143Y-121757143D01*
X143114286Y-121728571D01*
X143228571Y-121700000D01*
X143314286Y-121700000D01*
X143428571Y-121728571D01*
X143485714Y-121757143D01*
X143542857Y-121814285D01*
X143571429Y-121900000D01*
X143571429Y-122042857D01*
X143078571Y-117957143D02*
X143050000Y-117928572D01*
X143021429Y-117871429D01*
X143021429Y-117728572D01*
X143050000Y-117671429D01*
X143078571Y-117642858D01*
X143135714Y-117614286D01*
X143192857Y-117614286D01*
X143278571Y-117642858D01*
X143621429Y-117985715D01*
X143621429Y-117614286D01*
X143021429Y-117414286D02*
X143021429Y-117014286D01*
X143621429Y-117271429D01*
X154000000Y-122957142D02*
X153971429Y-123014285D01*
X153971429Y-123099999D01*
X154000000Y-123185714D01*
X154057143Y-123242856D01*
X154114286Y-123271428D01*
X154228571Y-123299999D01*
X154314286Y-123299999D01*
X154428571Y-123271428D01*
X154485714Y-123242856D01*
X154542857Y-123185714D01*
X154571429Y-123099999D01*
X154571429Y-123042856D01*
X154542857Y-122957142D01*
X154514286Y-122928571D01*
X154314286Y-122928571D01*
X154314286Y-123042856D01*
X154571429Y-122671428D02*
X153971429Y-122671428D01*
X154571429Y-122328571D01*
X153971429Y-122328571D01*
X154571429Y-122042857D02*
X153971429Y-122042857D01*
X153971429Y-121900000D01*
X154000000Y-121814285D01*
X154057143Y-121757143D01*
X154114286Y-121728571D01*
X154228571Y-121700000D01*
X154314286Y-121700000D01*
X154428571Y-121728571D01*
X154485714Y-121757143D01*
X154542857Y-121814285D01*
X154571429Y-121900000D01*
X154571429Y-122042857D01*
X153971429Y-120714286D02*
X154571429Y-120514286D01*
X153971429Y-120314286D01*
X154542857Y-119857143D02*
X154571429Y-119914286D01*
X154571429Y-120028572D01*
X154542857Y-120085714D01*
X154514286Y-120114286D01*
X154457143Y-120142857D01*
X154285714Y-120142857D01*
X154228571Y-120114286D01*
X154200000Y-120085714D01*
X154171429Y-120028572D01*
X154171429Y-119914286D01*
X154200000Y-119857143D01*
X154542857Y-119342857D02*
X154571429Y-119400000D01*
X154571429Y-119514286D01*
X154542857Y-119571428D01*
X154514286Y-119600000D01*
X154457143Y-119628571D01*
X154285714Y-119628571D01*
X154228571Y-119600000D01*
X154200000Y-119571428D01*
X154171429Y-119514286D01*
X154171429Y-119400000D01*
X154200000Y-119342857D01*
X153928571Y-118057143D02*
X153900000Y-118028572D01*
X153871429Y-117971429D01*
X153871429Y-117828572D01*
X153900000Y-117771429D01*
X153928571Y-117742858D01*
X153985714Y-117714286D01*
X154042857Y-117714286D01*
X154128571Y-117742858D01*
X154471429Y-118085715D01*
X154471429Y-117714286D01*
X153871429Y-117514286D02*
X153871429Y-117142857D01*
X154100000Y-117342857D01*
X154100000Y-117257143D01*
X154128571Y-117200000D01*
X154157143Y-117171429D01*
X154214286Y-117142857D01*
X154357143Y-117142857D01*
X154414286Y-117171429D01*
X154442857Y-117200000D01*
X154471429Y-117257143D01*
X154471429Y-117428571D01*
X154442857Y-117485714D01*
X154414286Y-117514286D01*
D13*
X132100000Y-83650000D02*
X132100000Y-84350000D01*
X130900000Y-84350000D02*
X130900000Y-83650000D01*
D14*
X150573300Y-96150000D02*
X150573300Y-93373780D01*
X150573300Y-93373780D02*
X151602000Y-93373780D01*
X150573300Y-108850000D02*
X150573300Y-111626220D01*
X150573300Y-111626220D02*
X151602000Y-111626220D01*
X169310880Y-93373780D02*
X176326360Y-93373780D01*
X169310880Y-111626220D02*
X176326360Y-111626220D01*
X176326360Y-93373780D02*
X176326360Y-111626220D01*
D12*
X132500000Y-116000000D02*
X133000000Y-116000000D01*
X133000000Y-116000000D02*
X133000000Y-122000000D01*
X133000000Y-122000000D02*
X132500000Y-122000000D01*
X137500000Y-113000000D02*
X132500000Y-113000000D01*
X132500000Y-113000000D02*
X132500000Y-125000000D01*
X132500000Y-125000000D02*
X137500000Y-125000000D01*
X137500000Y-125000000D02*
X137500000Y-113000000D01*
X133988000Y-116000000D02*
X133388000Y-115700000D01*
X133388000Y-115700000D02*
X133388000Y-116300000D01*
X133388000Y-116300000D02*
X133988000Y-116000000D01*
X125000000Y-116000000D02*
X125500000Y-116000000D01*
X125500000Y-116000000D02*
X125500000Y-122000000D01*
X125500000Y-122000000D02*
X125000000Y-122000000D01*
X130000000Y-113000000D02*
X125000000Y-113000000D01*
X125000000Y-113000000D02*
X125000000Y-125000000D01*
X125000000Y-125000000D02*
X130000000Y-125000000D01*
X130000000Y-125000000D02*
X130000000Y-113000000D01*
X126488000Y-116000000D02*
X125888000Y-115700000D01*
X125888000Y-115700000D02*
X125888000Y-116300000D01*
X125888000Y-116300000D02*
X126488000Y-116000000D01*
D13*
X102624000Y-105121000D02*
X102624000Y-99921000D01*
X102624000Y-99921000D02*
X99964000Y-99921000D01*
X99964000Y-99921000D02*
X99964000Y-105121000D01*
X99964000Y-105121000D02*
X102624000Y-105121000D01*
X99964000Y-104171000D02*
X93964000Y-104171000D01*
X93964000Y-104171000D02*
X93964000Y-103411000D01*
X93964000Y-103411000D02*
X99964000Y-103411000D01*
X99964000Y-104111000D02*
X93964000Y-104111000D01*
X99964000Y-103991000D02*
X93964000Y-103991000D01*
X99964000Y-103871000D02*
X93964000Y-103871000D01*
X99964000Y-103751000D02*
X93964000Y-103751000D01*
X99964000Y-103631000D02*
X93964000Y-103631000D01*
X99964000Y-103511000D02*
X93964000Y-103511000D01*
X102954000Y-104171000D02*
X102624000Y-104171000D01*
X102954000Y-103411000D02*
X102624000Y-103411000D01*
X102624000Y-102521000D02*
X99964000Y-102521000D01*
X99964000Y-101631000D02*
X93964000Y-101631000D01*
X93964000Y-101631000D02*
X93964000Y-100871000D01*
X93964000Y-100871000D02*
X99964000Y-100871000D01*
X103021071Y-101631000D02*
X102624000Y-101631000D01*
X103021071Y-100871000D02*
X102624000Y-100871000D01*
X105334000Y-103791000D02*
X105334000Y-105061000D01*
X105334000Y-105061000D02*
X104064000Y-105061000D01*
X127070000Y-101390000D02*
G75*
G02X127070000Y-103390000I0J-1000000D01*
G01*
X127070000Y-103390000D02*
X127070000Y-104640000D01*
X127070000Y-104640000D02*
X147510000Y-104640000D01*
X147510000Y-104640000D02*
X147510000Y-100140000D01*
X147510000Y-100140000D02*
X127070000Y-100140000D01*
X127070000Y-100140000D02*
X127070000Y-101390000D01*
X151170000Y-123910000D02*
X153830000Y-123910000D01*
X151170000Y-118770000D02*
X151170000Y-123910000D01*
X153830000Y-118770000D02*
X153830000Y-123910000D01*
X151170000Y-118770000D02*
X153830000Y-118770000D01*
X151170000Y-117500000D02*
X151170000Y-116170000D01*
X151170000Y-116170000D02*
X152500000Y-116170000D01*
X140170000Y-123910000D02*
X142830000Y-123910000D01*
X140170000Y-118770000D02*
X140170000Y-123910000D01*
X142830000Y-118770000D02*
X142830000Y-123910000D01*
X140170000Y-118770000D02*
X142830000Y-118770000D01*
X140170000Y-117500000D02*
X140170000Y-116170000D01*
X140170000Y-116170000D02*
X141500000Y-116170000D01*
X156440000Y-84190000D02*
X162560000Y-84190000D01*
X162560000Y-84190000D02*
X162560000Y-87810000D01*
X162560000Y-87810000D02*
X156440000Y-87810000D01*
X156440000Y-87810000D02*
X156440000Y-84190000D01*
X110400000Y-115450000D02*
X110400000Y-114750000D01*
X111600000Y-114750000D02*
X111600000Y-115450000D01*
X113550000Y-106800000D02*
X114250000Y-106800000D01*
X114250000Y-108000000D02*
X113550000Y-108000000D01*
X115750000Y-105100000D02*
X115050000Y-105100000D01*
X115050000Y-103900000D02*
X115750000Y-103900000D01*
X116500000Y-117250000D02*
X116500000Y-118950000D01*
X116500000Y-118950000D02*
X119050000Y-118950000D01*
X116500000Y-117250000D02*
X119050000Y-117250000D01*
X126140800Y-85848200D02*
X127070800Y-85848200D01*
X129300800Y-85848200D02*
X128370800Y-85848200D01*
X129300800Y-85848200D02*
X129300800Y-83688200D01*
X126140800Y-85848200D02*
X126140800Y-84388200D01*
X124747000Y-87354000D02*
X124747000Y-86424000D01*
X124747000Y-84194000D02*
X124747000Y-85124000D01*
X124747000Y-84194000D02*
X122587000Y-84194000D01*
X124747000Y-87354000D02*
X123287000Y-87354000D01*
X128350000Y-88322000D02*
X128350000Y-89322000D01*
X126990000Y-89322000D02*
X126990000Y-88322000D01*
X124233000Y-84041000D02*
X123233000Y-84041000D01*
X123233000Y-82681000D02*
X124233000Y-82681000D01*
X124233000Y-88740000D02*
X123233000Y-88740000D01*
X123233000Y-87380000D02*
X124233000Y-87380000D01*
X126699000Y-88322000D02*
X126699000Y-89322000D01*
X125339000Y-89322000D02*
X125339000Y-88322000D01*
X158940000Y-116190000D02*
X165060000Y-116190000D01*
X165060000Y-116190000D02*
X165060000Y-119810000D01*
X165060000Y-119810000D02*
X158940000Y-119810000D01*
X158940000Y-119810000D02*
X158940000Y-116190000D01*
X112000000Y-115450000D02*
X112000000Y-114750000D01*
X113200000Y-114750000D02*
X113200000Y-115450000D01*
X115750000Y-106600000D02*
X115050000Y-106600000D01*
X115050000Y-105400000D02*
X115750000Y-105400000D01*
X167500000Y-89400000D02*
X168200000Y-89400000D01*
X168200000Y-90600000D02*
X167500000Y-90600000D01*
X167550000Y-91100000D02*
X168250000Y-91100000D01*
X168250000Y-92300000D02*
X167550000Y-92300000D01*
X155350000Y-82550000D02*
X156050000Y-82550000D01*
X156050000Y-83750000D02*
X155350000Y-83750000D01*
X139600000Y-121150000D02*
X139600000Y-121850000D01*
X138400000Y-121850000D02*
X138400000Y-121150000D01*
X124680000Y-116100000D02*
X124680000Y-117100000D01*
X123320000Y-117100000D02*
X123320000Y-116100000D01*
X132380000Y-116900000D02*
X132380000Y-117900000D01*
X131020000Y-117900000D02*
X131020000Y-116900000D01*
X150600000Y-121150000D02*
X150600000Y-121850000D01*
X149400000Y-121850000D02*
X149400000Y-121150000D01*
X115050000Y-102300000D02*
X115750000Y-102300000D01*
X115750000Y-103500000D02*
X115050000Y-103500000D01*
X115050000Y-100700000D02*
X115750000Y-100700000D01*
X115750000Y-101900000D02*
X115050000Y-101900000D01*
X126600000Y-97650000D02*
X126600000Y-98350000D01*
X125400000Y-98350000D02*
X125400000Y-97650000D01*
X120720000Y-118800000D02*
X120720000Y-117800000D01*
X122080000Y-117800000D02*
X122080000Y-118800000D01*
D10*
X102250000Y-97250000D02*
X102250000Y-89250000D01*
X107500000Y-97250000D02*
X107500000Y-89250000D01*
X107500000Y-89250000D02*
X100000000Y-89250000D01*
X100000000Y-97250000D02*
X100000000Y-89250000D01*
X107500000Y-97250000D02*
X100000000Y-97250000D01*
D13*
X105330000Y-92730000D02*
X105330000Y-90130000D01*
X105330000Y-90130000D02*
X102670000Y-90130000D01*
X102670000Y-90130000D02*
X102670000Y-92730000D01*
X102670000Y-92730000D02*
X105330000Y-92730000D01*
X105330000Y-95000000D02*
X105330000Y-96330000D01*
X105330000Y-96330000D02*
X104000000Y-96330000D01*
D10*
X102250000Y-115750000D02*
X102250000Y-107750000D01*
X107500000Y-115750000D02*
X107500000Y-107750000D01*
X107500000Y-107750000D02*
X100000000Y-107750000D01*
X100000000Y-115750000D02*
X100000000Y-107750000D01*
X107500000Y-115750000D02*
X100000000Y-115750000D01*
D13*
X105330000Y-111230000D02*
X105330000Y-108630000D01*
X105330000Y-108630000D02*
X102670000Y-108630000D01*
X102670000Y-108630000D02*
X102670000Y-111230000D01*
X102670000Y-111230000D02*
X105330000Y-111230000D01*
X105330000Y-113500000D02*
X105330000Y-114830000D01*
X105330000Y-114830000D02*
X104000000Y-114830000D01*
X106850000Y-125730000D02*
X115550000Y-125730000D01*
X106850000Y-119320000D02*
X115550000Y-119320000D01*
X115550000Y-119320000D02*
X115550000Y-125730000D01*
X115550000Y-124500000D02*
X106850000Y-124500000D01*
X106850000Y-125730000D02*
X106850000Y-119320000D01*
D12*
X152500000Y-89000000D02*
X152000000Y-89000000D01*
X152000000Y-89000000D02*
X152000000Y-83000000D01*
X152000000Y-83000000D02*
X152500000Y-83000000D01*
X147500000Y-92000000D02*
X152500000Y-92000000D01*
X152500000Y-92000000D02*
X152500000Y-80000000D01*
X152500000Y-80000000D02*
X147500000Y-80000000D01*
X147500000Y-80000000D02*
X147500000Y-92000000D01*
X151012000Y-89000000D02*
X151612000Y-89300000D01*
X151612000Y-89300000D02*
X151612000Y-88700000D01*
X151612000Y-88700000D02*
X151012000Y-89000000D01*
X145000000Y-89000000D02*
X144500000Y-89000000D01*
X144500000Y-89000000D02*
X144500000Y-83000000D01*
X144500000Y-83000000D02*
X145000000Y-83000000D01*
X140000000Y-92000000D02*
X145000000Y-92000000D01*
X145000000Y-92000000D02*
X145000000Y-80000000D01*
X145000000Y-80000000D02*
X140000000Y-80000000D01*
X140000000Y-80000000D02*
X140000000Y-92000000D01*
X143512000Y-89000000D02*
X144112000Y-89300000D01*
X144112000Y-89300000D02*
X144112000Y-88700000D01*
X144112000Y-88700000D02*
X143512000Y-89000000D01*
X137500000Y-89000000D02*
X137000000Y-89000000D01*
X137000000Y-89000000D02*
X137000000Y-83000000D01*
X137000000Y-83000000D02*
X137500000Y-83000000D01*
X132500000Y-92000000D02*
X137500000Y-92000000D01*
X137500000Y-92000000D02*
X137500000Y-80000000D01*
X137500000Y-80000000D02*
X132500000Y-80000000D01*
X132500000Y-80000000D02*
X132500000Y-92000000D01*
X136012000Y-89000000D02*
X136612000Y-89300000D01*
X136612000Y-89300000D02*
X136612000Y-88700000D01*
X136612000Y-88700000D02*
X136012000Y-89000000D01*
D13*
X120362600Y-98774800D02*
X119362600Y-98774800D01*
X119362600Y-97414800D02*
X120362600Y-97414800D01*
X118279800Y-87929000D02*
X117279800Y-87929000D01*
X117279800Y-86569000D02*
X118279800Y-86569000D01*
X143500000Y-112830000D02*
X142500000Y-112830000D01*
X142500000Y-111470000D02*
X143500000Y-111470000D01*
X154620000Y-118750000D02*
X154620000Y-117750000D01*
X155980000Y-117750000D02*
X155980000Y-118750000D01*
X109464400Y-98303600D02*
X109464400Y-99003600D01*
X108264400Y-99003600D02*
X108264400Y-98303600D01*
X105950000Y-103700000D02*
X107650000Y-103700000D01*
X107650000Y-103700000D02*
X107650000Y-101150000D01*
X105950000Y-103700000D02*
X105950000Y-101150000D01*
X120700000Y-123700000D02*
X122100000Y-123700000D01*
X122100000Y-123700000D02*
X122100000Y-120900000D01*
X120700000Y-123700000D02*
X120700000Y-120900000D01*
X119766000Y-116902000D02*
X119766000Y-115642000D01*
X119766000Y-110082000D02*
X119766000Y-111342000D01*
X116006000Y-116902000D02*
X119766000Y-116902000D01*
X113756000Y-110082000D02*
X119766000Y-110082000D01*
X116946160Y-99172320D02*
X116246160Y-99172320D01*
X116246160Y-97972320D02*
X116946160Y-97972320D01*
X111039200Y-97567000D02*
X111039200Y-98267000D01*
X109839200Y-98267000D02*
X109839200Y-97567000D01*
X116693200Y-88808000D02*
X117393200Y-88808000D01*
X117393200Y-90008000D02*
X116693200Y-90008000D01*
X116100000Y-84710500D02*
X116100000Y-83310500D01*
X116100000Y-83310500D02*
X113300000Y-83310500D01*
X116100000Y-84710500D02*
X113300000Y-84710500D01*
X116150800Y-87237800D02*
X116150800Y-85837800D01*
X116150800Y-85837800D02*
X113350800Y-85837800D01*
X116150800Y-87237800D02*
X113350800Y-87237800D01*
X112657000Y-98024400D02*
X113657000Y-98024400D01*
X113657000Y-99384400D02*
X112657000Y-99384400D01*
X110625000Y-99650000D02*
X111625000Y-99650000D01*
X111625000Y-101010000D02*
X110625000Y-101010000D01*
X117419500Y-83330500D02*
X118419500Y-83330500D01*
X118419500Y-84690500D02*
X117419500Y-84690500D01*
X113938600Y-88349200D02*
X113938600Y-89349200D01*
X112578600Y-89349200D02*
X112578600Y-88349200D01*
D12*
X112379760Y-95676720D02*
X119999760Y-95676720D01*
X119999760Y-92120720D02*
X112379760Y-92120720D01*
X112379760Y-95676720D02*
X112379760Y-92120720D01*
X119999760Y-92120720D02*
X119999760Y-95676720D01*
X119850970Y-92628720D02*
G75*
G03X119850970Y-92628720I-359210J0D01*
G01*
X119999760Y-94533720D02*
X119237760Y-94533720D01*
X119237760Y-94533720D02*
X119237760Y-93263720D01*
X119237760Y-93263720D02*
X119999760Y-93263720D01*
D13*
X139600000Y-83650000D02*
X139600000Y-84350000D01*
X138400000Y-84350000D02*
X138400000Y-83650000D01*
X147100000Y-83650000D02*
X147100000Y-84350000D01*
X145900000Y-84350000D02*
X145900000Y-83650000D01*
X130900000Y-121350000D02*
X130900000Y-120650000D01*
X132100000Y-120650000D02*
X132100000Y-121350000D01*
X123400000Y-121350000D02*
X123400000Y-120650000D01*
X124600000Y-120650000D02*
X124600000Y-121350000D01*
X143900000Y-121850000D02*
X143900000Y-121150000D01*
X145100000Y-121150000D02*
X145100000Y-121850000D01*
X150480000Y-117700000D02*
X150480000Y-118700000D01*
X149120000Y-118700000D02*
X149120000Y-117700000D01*
X145670000Y-123910000D02*
X148330000Y-123910000D01*
X145670000Y-118770000D02*
X145670000Y-123910000D01*
X148330000Y-118770000D02*
X148330000Y-123910000D01*
X145670000Y-118770000D02*
X148330000Y-118770000D01*
X145670000Y-117500000D02*
X145670000Y-116170000D01*
X145670000Y-116170000D02*
X147000000Y-116170000D01*
D14*
X108897000Y-106416000D02*
X106103000Y-106416000D01*
X109151000Y-106162000D02*
X109151000Y-104638000D01*
X105849000Y-106162000D02*
X105849000Y-104638000D01*
X106103000Y-104384000D02*
X108897000Y-104384000D01*
D10*
X130614286Y-83685715D02*
X130642857Y-83714286D01*
X130671429Y-83800000D01*
X130671429Y-83857143D01*
X130642857Y-83942858D01*
X130585714Y-84000000D01*
X130528571Y-84028572D01*
X130414286Y-84057143D01*
X130328571Y-84057143D01*
X130214286Y-84028572D01*
X130157143Y-84000000D01*
X130100000Y-83942858D01*
X130071429Y-83857143D01*
X130071429Y-83800000D01*
X130100000Y-83714286D01*
X130128571Y-83685715D01*
X130671429Y-83114286D02*
X130671429Y-83457143D01*
X130671429Y-83285715D02*
X130071429Y-83285715D01*
X130157143Y-83342858D01*
X130214286Y-83400000D01*
X130242857Y-83457143D01*
X130071429Y-82600000D02*
X130071429Y-82714286D01*
X130100000Y-82771429D01*
X130128571Y-82800000D01*
X130214286Y-82857143D01*
X130328571Y-82885714D01*
X130557143Y-82885714D01*
X130614286Y-82857143D01*
X130642857Y-82828571D01*
X130671429Y-82771429D01*
X130671429Y-82657143D01*
X130642857Y-82600000D01*
X130614286Y-82571429D01*
X130557143Y-82542857D01*
X130414286Y-82542857D01*
X130357143Y-82571429D01*
X130328571Y-82600000D01*
X130300000Y-82657143D01*
X130300000Y-82771429D01*
X130328571Y-82828571D01*
X130357143Y-82857143D01*
X130414286Y-82885714D01*
D12*
X166452381Y-78352381D02*
X166119047Y-77876190D01*
X165880952Y-78352381D02*
X165880952Y-77352381D01*
X166261905Y-77352381D01*
X166357143Y-77400000D01*
X166404762Y-77447619D01*
X166452381Y-77542857D01*
X166452381Y-77685714D01*
X166404762Y-77780952D01*
X166357143Y-77828571D01*
X166261905Y-77876190D01*
X165880952Y-77876190D01*
X166880952Y-77828571D02*
X167214286Y-77828571D01*
X167357143Y-78352381D02*
X166880952Y-78352381D01*
X166880952Y-77352381D01*
X167357143Y-77352381D01*
X168119048Y-77828571D02*
X167785714Y-77828571D01*
X167785714Y-78352381D02*
X167785714Y-77352381D01*
X168261905Y-77352381D01*
X168547619Y-77352381D02*
X169166667Y-77352381D01*
X168833333Y-77733333D01*
X168976191Y-77733333D01*
X169071429Y-77780952D01*
X169119048Y-77828571D01*
X169166667Y-77923810D01*
X169166667Y-78161905D01*
X169119048Y-78257143D01*
X169071429Y-78304762D01*
X168976191Y-78352381D01*
X168690476Y-78352381D01*
X168595238Y-78304762D01*
X168547619Y-78257143D01*
X101452381Y-78752381D02*
X101119047Y-78276190D01*
X100880952Y-78752381D02*
X100880952Y-77752381D01*
X101261905Y-77752381D01*
X101357143Y-77800000D01*
X101404762Y-77847619D01*
X101452381Y-77942857D01*
X101452381Y-78085714D01*
X101404762Y-78180952D01*
X101357143Y-78228571D01*
X101261905Y-78276190D01*
X100880952Y-78276190D01*
X101880952Y-78228571D02*
X102214286Y-78228571D01*
X102357143Y-78752381D02*
X101880952Y-78752381D01*
X101880952Y-77752381D01*
X102357143Y-77752381D01*
X103119048Y-78228571D02*
X102785714Y-78228571D01*
X102785714Y-78752381D02*
X102785714Y-77752381D01*
X103261905Y-77752381D01*
X104166667Y-78752381D02*
X103595238Y-78752381D01*
X103880952Y-78752381D02*
X103880952Y-77752381D01*
X103785714Y-77895238D01*
X103690476Y-77990476D01*
X103595238Y-78038095D01*
D10*
X132878571Y-111850000D02*
X132821428Y-111821429D01*
X132735714Y-111821429D01*
X132649999Y-111850000D01*
X132592857Y-111907143D01*
X132564285Y-111964286D01*
X132535714Y-112078571D01*
X132535714Y-112164286D01*
X132564285Y-112278571D01*
X132592857Y-112335714D01*
X132649999Y-112392857D01*
X132735714Y-112421429D01*
X132792857Y-112421429D01*
X132878571Y-112392857D01*
X132907142Y-112364286D01*
X132907142Y-112164286D01*
X132792857Y-112164286D01*
X133164285Y-112421429D02*
X133164285Y-112021429D01*
X133164285Y-112135714D02*
X133192857Y-112078571D01*
X133221428Y-112050000D01*
X133278571Y-112021429D01*
X133335714Y-112021429D01*
X133621428Y-112421429D02*
X133564286Y-112392857D01*
X133535714Y-112364286D01*
X133507143Y-112307143D01*
X133507143Y-112135714D01*
X133535714Y-112078571D01*
X133564286Y-112050000D01*
X133621428Y-112021429D01*
X133707143Y-112021429D01*
X133764286Y-112050000D01*
X133792857Y-112078571D01*
X133821428Y-112135714D01*
X133821428Y-112307143D01*
X133792857Y-112364286D01*
X133764286Y-112392857D01*
X133707143Y-112421429D01*
X133621428Y-112421429D01*
X134021428Y-112021429D02*
X134164285Y-112421429D01*
X134307143Y-112021429D01*
X134764286Y-112392857D02*
X134707143Y-112421429D01*
X134592857Y-112421429D01*
X134535714Y-112392857D01*
X134507143Y-112335714D01*
X134507143Y-112107143D01*
X134535714Y-112050000D01*
X134592857Y-112021429D01*
X134707143Y-112021429D01*
X134764286Y-112050000D01*
X134792857Y-112107143D01*
X134792857Y-112164286D01*
X134507143Y-112221429D01*
X135050000Y-111821429D02*
X135050000Y-112307143D01*
X135078572Y-112364286D01*
X135107143Y-112392857D01*
X135164286Y-112421429D01*
X135278572Y-112421429D01*
X135335714Y-112392857D01*
X135364286Y-112364286D01*
X135392857Y-112307143D01*
X135392857Y-111821429D01*
X135650000Y-112250000D02*
X135935714Y-112250000D01*
X135592857Y-112421429D02*
X135792857Y-111821429D01*
X135992857Y-112421429D01*
X136535714Y-112421429D02*
X136335714Y-112135714D01*
X136192857Y-112421429D02*
X136192857Y-111821429D01*
X136421429Y-111821429D01*
X136478571Y-111850000D01*
X136507143Y-111878571D01*
X136535714Y-111935714D01*
X136535714Y-112021429D01*
X136507143Y-112078571D01*
X136478571Y-112107143D01*
X136421429Y-112135714D01*
X136192857Y-112135714D01*
X136707143Y-111821429D02*
X137050000Y-111821429D01*
X136878571Y-112421429D02*
X136878571Y-111821429D01*
X137564286Y-112421429D02*
X137221429Y-112421429D01*
X137392857Y-112421429D02*
X137392857Y-111821429D01*
X137335714Y-111907143D01*
X137278572Y-111964286D01*
X137221429Y-111992857D01*
X125700000Y-111950000D02*
X125642857Y-111921429D01*
X125557143Y-111921429D01*
X125471428Y-111950000D01*
X125414286Y-112007143D01*
X125385714Y-112064286D01*
X125357143Y-112178571D01*
X125357143Y-112264286D01*
X125385714Y-112378571D01*
X125414286Y-112435714D01*
X125471428Y-112492857D01*
X125557143Y-112521429D01*
X125614286Y-112521429D01*
X125700000Y-112492857D01*
X125728571Y-112464286D01*
X125728571Y-112264286D01*
X125614286Y-112264286D01*
X125985714Y-112521429D02*
X125985714Y-112121429D01*
X125985714Y-112235714D02*
X126014286Y-112178571D01*
X126042857Y-112150000D01*
X126100000Y-112121429D01*
X126157143Y-112121429D01*
X126442857Y-112521429D02*
X126385715Y-112492857D01*
X126357143Y-112464286D01*
X126328572Y-112407143D01*
X126328572Y-112235714D01*
X126357143Y-112178571D01*
X126385715Y-112150000D01*
X126442857Y-112121429D01*
X126528572Y-112121429D01*
X126585715Y-112150000D01*
X126614286Y-112178571D01*
X126642857Y-112235714D01*
X126642857Y-112407143D01*
X126614286Y-112464286D01*
X126585715Y-112492857D01*
X126528572Y-112521429D01*
X126442857Y-112521429D01*
X126842857Y-112121429D02*
X126985714Y-112521429D01*
X127128572Y-112121429D01*
X127585715Y-112492857D02*
X127528572Y-112521429D01*
X127414286Y-112521429D01*
X127357143Y-112492857D01*
X127328572Y-112435714D01*
X127328572Y-112207143D01*
X127357143Y-112150000D01*
X127414286Y-112121429D01*
X127528572Y-112121429D01*
X127585715Y-112150000D01*
X127614286Y-112207143D01*
X127614286Y-112264286D01*
X127328572Y-112321429D01*
X127871429Y-112521429D02*
X127871429Y-111921429D01*
X128128572Y-111978571D02*
X128157143Y-111950000D01*
X128214286Y-111921429D01*
X128357143Y-111921429D01*
X128414286Y-111950000D01*
X128442857Y-111978571D01*
X128471429Y-112035714D01*
X128471429Y-112092857D01*
X128442857Y-112178571D01*
X128100000Y-112521429D01*
X128471429Y-112521429D01*
X129071429Y-112464286D02*
X129042858Y-112492857D01*
X128957144Y-112521429D01*
X128900001Y-112521429D01*
X128814286Y-112492857D01*
X128757144Y-112435714D01*
X128728572Y-112378571D01*
X128700001Y-112264286D01*
X128700001Y-112178571D01*
X128728572Y-112064286D01*
X128757144Y-112007143D01*
X128814286Y-111950000D01*
X128900001Y-111921429D01*
X128957144Y-111921429D01*
X129042858Y-111950000D01*
X129071429Y-111978571D01*
X129642858Y-112521429D02*
X129300001Y-112521429D01*
X129471429Y-112521429D02*
X129471429Y-111921429D01*
X129414286Y-112007143D01*
X129357144Y-112064286D01*
X129300001Y-112092857D01*
X100380952Y-107261905D02*
X100380952Y-106461905D01*
X100647619Y-107033333D01*
X100914286Y-106461905D01*
X100914286Y-107261905D01*
X101409524Y-107261905D02*
X101333333Y-107223810D01*
X101295238Y-107185714D01*
X101257143Y-107109524D01*
X101257143Y-106880952D01*
X101295238Y-106804762D01*
X101333333Y-106766667D01*
X101409524Y-106728571D01*
X101523810Y-106728571D01*
X101600000Y-106766667D01*
X101638095Y-106804762D01*
X101676191Y-106880952D01*
X101676191Y-107109524D01*
X101638095Y-107185714D01*
X101600000Y-107223810D01*
X101523810Y-107261905D01*
X101409524Y-107261905D01*
X101904762Y-106728571D02*
X102209524Y-106728571D01*
X102019048Y-106461905D02*
X102019048Y-107147619D01*
X102057143Y-107223810D01*
X102133334Y-107261905D01*
X102209524Y-107261905D01*
X102590477Y-107261905D02*
X102514286Y-107223810D01*
X102476191Y-107185714D01*
X102438096Y-107109524D01*
X102438096Y-106880952D01*
X102476191Y-106804762D01*
X102514286Y-106766667D01*
X102590477Y-106728571D01*
X102704763Y-106728571D01*
X102780953Y-106766667D01*
X102819048Y-106804762D01*
X102857144Y-106880952D01*
X102857144Y-107109524D01*
X102819048Y-107185714D01*
X102780953Y-107223810D01*
X102704763Y-107261905D01*
X102590477Y-107261905D01*
X103200001Y-107261905D02*
X103200001Y-106728571D01*
X103200001Y-106880952D02*
X103238096Y-106804762D01*
X103276192Y-106766667D01*
X103352382Y-106728571D01*
X103428573Y-106728571D01*
X103695239Y-107261905D02*
X103695239Y-106461905D01*
X104000001Y-106461905D01*
X104076192Y-106500000D01*
X104114287Y-106538095D01*
X104152382Y-106614286D01*
X104152382Y-106728571D01*
X104114287Y-106804762D01*
X104076192Y-106842857D01*
X104000001Y-106880952D01*
X103695239Y-106880952D01*
X104609525Y-107261905D02*
X104533334Y-107223810D01*
X104495239Y-107185714D01*
X104457144Y-107109524D01*
X104457144Y-106880952D01*
X104495239Y-106804762D01*
X104533334Y-106766667D01*
X104609525Y-106728571D01*
X104723811Y-106728571D01*
X104800001Y-106766667D01*
X104838096Y-106804762D01*
X104876192Y-106880952D01*
X104876192Y-107109524D01*
X104838096Y-107185714D01*
X104800001Y-107223810D01*
X104723811Y-107261905D01*
X104609525Y-107261905D01*
X105142859Y-106728571D02*
X105295240Y-107261905D01*
X105447621Y-106880952D01*
X105600002Y-107261905D01*
X105752383Y-106728571D01*
X106361906Y-107223810D02*
X106285716Y-107261905D01*
X106133335Y-107261905D01*
X106057144Y-107223810D01*
X106019049Y-107147619D01*
X106019049Y-106842857D01*
X106057144Y-106766667D01*
X106133335Y-106728571D01*
X106285716Y-106728571D01*
X106361906Y-106766667D01*
X106400001Y-106842857D01*
X106400001Y-106919048D01*
X106019049Y-106995238D01*
X106742858Y-107261905D02*
X106742858Y-106728571D01*
X106742858Y-106880952D02*
X106780953Y-106804762D01*
X106819049Y-106766667D01*
X106895239Y-106728571D01*
X106971430Y-106728571D01*
X107657144Y-107261905D02*
X107200001Y-107261905D01*
X107428572Y-107261905D02*
X107428572Y-106461905D01*
X107352382Y-106576190D01*
X107276191Y-106652381D01*
X107200001Y-106690476D01*
D12*
X126352381Y-107176190D02*
X125352381Y-107176190D01*
X126257143Y-106128571D02*
X126304762Y-106176190D01*
X126352381Y-106319047D01*
X126352381Y-106414285D01*
X126304762Y-106557143D01*
X126209524Y-106652381D01*
X126114286Y-106700000D01*
X125923810Y-106747619D01*
X125780952Y-106747619D01*
X125590476Y-106700000D01*
X125495238Y-106652381D01*
X125400000Y-106557143D01*
X125352381Y-106414285D01*
X125352381Y-106319047D01*
X125400000Y-106176190D01*
X125447619Y-106128571D01*
X126352381Y-105176190D02*
X126352381Y-105747619D01*
X126352381Y-105461905D02*
X125352381Y-105461905D01*
X125495238Y-105557143D01*
X125590476Y-105652381D01*
X125638095Y-105747619D01*
D10*
X152642857Y-116000000D02*
X152671429Y-115914286D01*
X152671429Y-115771429D01*
X152642857Y-115714286D01*
X152614286Y-115685715D01*
X152557143Y-115657143D01*
X152500000Y-115657143D01*
X152442857Y-115685715D01*
X152414286Y-115714286D01*
X152385714Y-115771429D01*
X152357143Y-115885715D01*
X152328571Y-115942857D01*
X152300000Y-115971429D01*
X152242857Y-116000000D01*
X152185714Y-116000000D01*
X152128571Y-115971429D01*
X152100000Y-115942857D01*
X152071429Y-115885715D01*
X152071429Y-115742857D01*
X152100000Y-115657143D01*
X152642857Y-115171428D02*
X152671429Y-115228571D01*
X152671429Y-115342857D01*
X152642857Y-115400000D01*
X152585714Y-115428571D01*
X152357143Y-115428571D01*
X152300000Y-115400000D01*
X152271429Y-115342857D01*
X152271429Y-115228571D01*
X152300000Y-115171428D01*
X152357143Y-115142857D01*
X152414286Y-115142857D01*
X152471429Y-115428571D01*
X152671429Y-114885714D02*
X152271429Y-114885714D01*
X152385714Y-114885714D02*
X152328571Y-114857142D01*
X152300000Y-114828571D01*
X152271429Y-114771428D01*
X152271429Y-114714285D01*
X152271429Y-114571428D02*
X152671429Y-114428571D01*
X152271429Y-114285713D01*
X152671429Y-113971428D02*
X152642857Y-114028570D01*
X152614286Y-114057142D01*
X152557143Y-114085713D01*
X152385714Y-114085713D01*
X152328571Y-114057142D01*
X152300000Y-114028570D01*
X152271429Y-113971428D01*
X152271429Y-113885713D01*
X152300000Y-113828570D01*
X152328571Y-113799999D01*
X152385714Y-113771428D01*
X152557143Y-113771428D01*
X152614286Y-113799999D01*
X152642857Y-113828570D01*
X152671429Y-113885713D01*
X152671429Y-113971428D01*
X152671429Y-113199999D02*
X152671429Y-113542856D01*
X152671429Y-113371428D02*
X152071429Y-113371428D01*
X152157143Y-113428571D01*
X152214286Y-113485713D01*
X152242857Y-113542856D01*
X140921429Y-115807143D02*
X140321429Y-115807143D01*
X140921429Y-115464286D01*
X140321429Y-115464286D01*
X140892857Y-114950000D02*
X140921429Y-115007143D01*
X140921429Y-115121429D01*
X140892857Y-115178572D01*
X140835714Y-115207143D01*
X140607143Y-115207143D01*
X140550000Y-115178572D01*
X140521429Y-115121429D01*
X140521429Y-115007143D01*
X140550000Y-114950000D01*
X140607143Y-114921429D01*
X140664286Y-114921429D01*
X140721429Y-115207143D01*
X140921429Y-114578572D02*
X140892857Y-114635714D01*
X140864286Y-114664286D01*
X140807143Y-114692857D01*
X140635714Y-114692857D01*
X140578571Y-114664286D01*
X140550000Y-114635714D01*
X140521429Y-114578572D01*
X140521429Y-114492857D01*
X140550000Y-114435714D01*
X140578571Y-114407143D01*
X140635714Y-114378572D01*
X140807143Y-114378572D01*
X140864286Y-114407143D01*
X140892857Y-114435714D01*
X140921429Y-114492857D01*
X140921429Y-114578572D01*
X140521429Y-114121429D02*
X141121429Y-114121429D01*
X140550000Y-114121429D02*
X140521429Y-114064286D01*
X140521429Y-113950000D01*
X140550000Y-113892857D01*
X140578571Y-113864286D01*
X140635714Y-113835715D01*
X140807143Y-113835715D01*
X140864286Y-113864286D01*
X140892857Y-113892857D01*
X140921429Y-113950000D01*
X140921429Y-114064286D01*
X140892857Y-114121429D01*
X140921429Y-113578572D02*
X140521429Y-113578572D01*
X140321429Y-113578572D02*
X140350000Y-113607143D01*
X140378571Y-113578572D01*
X140350000Y-113550000D01*
X140321429Y-113578572D01*
X140378571Y-113578572D01*
X140921429Y-113350001D02*
X140521429Y-113035715D01*
X140521429Y-113350001D02*
X140921429Y-113035715D01*
X140892857Y-112578572D02*
X140921429Y-112635715D01*
X140921429Y-112750001D01*
X140892857Y-112807144D01*
X140835714Y-112835715D01*
X140607143Y-112835715D01*
X140550000Y-112807144D01*
X140521429Y-112750001D01*
X140521429Y-112635715D01*
X140550000Y-112578572D01*
X140607143Y-112550001D01*
X140664286Y-112550001D01*
X140721429Y-112835715D01*
X140921429Y-112207144D02*
X140892857Y-112264286D01*
X140835714Y-112292858D01*
X140321429Y-112292858D01*
X140921429Y-111664286D02*
X140921429Y-112007143D01*
X140921429Y-111835715D02*
X140321429Y-111835715D01*
X140407143Y-111892858D01*
X140464286Y-111950000D01*
X140492857Y-112007143D01*
X157957142Y-83661905D02*
X157690475Y-83280952D01*
X157499999Y-83661905D02*
X157499999Y-82861905D01*
X157804761Y-82861905D01*
X157880952Y-82900000D01*
X157919047Y-82938095D01*
X157957142Y-83014286D01*
X157957142Y-83128571D01*
X157919047Y-83204762D01*
X157880952Y-83242857D01*
X157804761Y-83280952D01*
X157499999Y-83280952D01*
X158299999Y-83242857D02*
X158566666Y-83242857D01*
X158680952Y-83661905D02*
X158299999Y-83661905D01*
X158299999Y-82861905D01*
X158680952Y-82861905D01*
X158985714Y-83623810D02*
X159100000Y-83661905D01*
X159290476Y-83661905D01*
X159366666Y-83623810D01*
X159404762Y-83585714D01*
X159442857Y-83509524D01*
X159442857Y-83433333D01*
X159404762Y-83357143D01*
X159366666Y-83319048D01*
X159290476Y-83280952D01*
X159138095Y-83242857D01*
X159061904Y-83204762D01*
X159023809Y-83166667D01*
X158985714Y-83090476D01*
X158985714Y-83014286D01*
X159023809Y-82938095D01*
X159061904Y-82900000D01*
X159138095Y-82861905D01*
X159328571Y-82861905D01*
X159442857Y-82900000D01*
X159785714Y-83242857D02*
X160052381Y-83242857D01*
X160166667Y-83661905D02*
X159785714Y-83661905D01*
X159785714Y-82861905D01*
X160166667Y-82861905D01*
X160395238Y-82861905D02*
X160852381Y-82861905D01*
X160623810Y-83661905D02*
X160623810Y-82861905D01*
X161538096Y-83661905D02*
X161080953Y-83661905D01*
X161309524Y-83661905D02*
X161309524Y-82861905D01*
X161233334Y-82976190D01*
X161157143Y-83052381D01*
X161080953Y-83090476D01*
X111285714Y-113033333D02*
X111323810Y-113071428D01*
X111361905Y-113185714D01*
X111361905Y-113261904D01*
X111323810Y-113376190D01*
X111247619Y-113452381D01*
X111171429Y-113490476D01*
X111019048Y-113528571D01*
X110904762Y-113528571D01*
X110752381Y-113490476D01*
X110676190Y-113452381D01*
X110600000Y-113376190D01*
X110561905Y-113261904D01*
X110561905Y-113185714D01*
X110600000Y-113071428D01*
X110638095Y-113033333D01*
X111361905Y-112271428D02*
X111361905Y-112728571D01*
X111361905Y-112500000D02*
X110561905Y-112500000D01*
X110676190Y-112576190D01*
X110752381Y-112652381D01*
X110790476Y-112728571D01*
X115832000Y-107614286D02*
X115803429Y-107642857D01*
X115717715Y-107671429D01*
X115660572Y-107671429D01*
X115574857Y-107642857D01*
X115517715Y-107585714D01*
X115489143Y-107528571D01*
X115460572Y-107414286D01*
X115460572Y-107328571D01*
X115489143Y-107214286D01*
X115517715Y-107157143D01*
X115574857Y-107100000D01*
X115660572Y-107071429D01*
X115717715Y-107071429D01*
X115803429Y-107100000D01*
X115832000Y-107128571D01*
X116060572Y-107128571D02*
X116089143Y-107100000D01*
X116146286Y-107071429D01*
X116289143Y-107071429D01*
X116346286Y-107100000D01*
X116374857Y-107128571D01*
X116403429Y-107185714D01*
X116403429Y-107242857D01*
X116374857Y-107328571D01*
X116032000Y-107671429D01*
X116403429Y-107671429D01*
X117459000Y-104714286D02*
X117430429Y-104742857D01*
X117344715Y-104771429D01*
X117287572Y-104771429D01*
X117201857Y-104742857D01*
X117144715Y-104685714D01*
X117116143Y-104628571D01*
X117087572Y-104514286D01*
X117087572Y-104428571D01*
X117116143Y-104314286D01*
X117144715Y-104257143D01*
X117201857Y-104200000D01*
X117287572Y-104171429D01*
X117344715Y-104171429D01*
X117430429Y-104200000D01*
X117459000Y-104228571D01*
X118001857Y-104171429D02*
X117716143Y-104171429D01*
X117687572Y-104457143D01*
X117716143Y-104428571D01*
X117773286Y-104400000D01*
X117916143Y-104400000D01*
X117973286Y-104428571D01*
X118001857Y-104457143D01*
X118030429Y-104514286D01*
X118030429Y-104657143D01*
X118001857Y-104714286D01*
X117973286Y-104742857D01*
X117916143Y-104771429D01*
X117773286Y-104771429D01*
X117716143Y-104742857D01*
X117687572Y-104714286D01*
X115271143Y-118371429D02*
X115271143Y-117771429D01*
X115414000Y-117771429D01*
X115499715Y-117800000D01*
X115556857Y-117857143D01*
X115585429Y-117914286D01*
X115614000Y-118028571D01*
X115614000Y-118114286D01*
X115585429Y-118228571D01*
X115556857Y-118285714D01*
X115499715Y-118342857D01*
X115414000Y-118371429D01*
X115271143Y-118371429D01*
X115842572Y-117828571D02*
X115871143Y-117800000D01*
X115928286Y-117771429D01*
X116071143Y-117771429D01*
X116128286Y-117800000D01*
X116156857Y-117828571D01*
X116185429Y-117885714D01*
X116185429Y-117942857D01*
X116156857Y-118028571D01*
X115814000Y-118371429D01*
X116185429Y-118371429D01*
X127642857Y-83228571D02*
X127585714Y-83200000D01*
X127528571Y-83142857D01*
X127442857Y-83057143D01*
X127385714Y-83028571D01*
X127328571Y-83028571D01*
X127357143Y-83171429D02*
X127300000Y-83142857D01*
X127242857Y-83085714D01*
X127214286Y-82971429D01*
X127214286Y-82771429D01*
X127242857Y-82657143D01*
X127300000Y-82600000D01*
X127357143Y-82571429D01*
X127471429Y-82571429D01*
X127528571Y-82600000D01*
X127585714Y-82657143D01*
X127614286Y-82771429D01*
X127614286Y-82971429D01*
X127585714Y-83085714D01*
X127528571Y-83142857D01*
X127471429Y-83171429D01*
X127357143Y-83171429D01*
X128185714Y-83171429D02*
X127842857Y-83171429D01*
X128014285Y-83171429D02*
X128014285Y-82571429D01*
X127957142Y-82657143D01*
X127900000Y-82714286D01*
X127842857Y-82742857D01*
X122128571Y-85757143D02*
X122100000Y-85814286D01*
X122042857Y-85871429D01*
X121957143Y-85957143D01*
X121928571Y-86014286D01*
X121928571Y-86071429D01*
X122071429Y-86042857D02*
X122042857Y-86100000D01*
X121985714Y-86157143D01*
X121871429Y-86185714D01*
X121671429Y-86185714D01*
X121557143Y-86157143D01*
X121500000Y-86100000D01*
X121471429Y-86042857D01*
X121471429Y-85928571D01*
X121500000Y-85871429D01*
X121557143Y-85814286D01*
X121671429Y-85785714D01*
X121871429Y-85785714D01*
X121985714Y-85814286D01*
X122042857Y-85871429D01*
X122071429Y-85928571D01*
X122071429Y-86042857D01*
X121528571Y-85557143D02*
X121500000Y-85528572D01*
X121471429Y-85471429D01*
X121471429Y-85328572D01*
X121500000Y-85271429D01*
X121528571Y-85242858D01*
X121585714Y-85214286D01*
X121642857Y-85214286D01*
X121728571Y-85242858D01*
X122071429Y-85585715D01*
X122071429Y-85214286D01*
X127971429Y-91485715D02*
X127685714Y-91685715D01*
X127971429Y-91828572D02*
X127371429Y-91828572D01*
X127371429Y-91600000D01*
X127400000Y-91542858D01*
X127428571Y-91514286D01*
X127485714Y-91485715D01*
X127571429Y-91485715D01*
X127628571Y-91514286D01*
X127657143Y-91542858D01*
X127685714Y-91600000D01*
X127685714Y-91828572D01*
X127971429Y-90914286D02*
X127971429Y-91257143D01*
X127971429Y-91085715D02*
X127371429Y-91085715D01*
X127457143Y-91142858D01*
X127514286Y-91200000D01*
X127542857Y-91257143D01*
X127428571Y-90685714D02*
X127400000Y-90657143D01*
X127371429Y-90600000D01*
X127371429Y-90457143D01*
X127400000Y-90400000D01*
X127428571Y-90371429D01*
X127485714Y-90342857D01*
X127542857Y-90342857D01*
X127628571Y-90371429D01*
X127971429Y-90714286D01*
X127971429Y-90342857D01*
X123314285Y-82471429D02*
X123114285Y-82185714D01*
X122971428Y-82471429D02*
X122971428Y-81871429D01*
X123200000Y-81871429D01*
X123257142Y-81900000D01*
X123285714Y-81928571D01*
X123314285Y-81985714D01*
X123314285Y-82071429D01*
X123285714Y-82128571D01*
X123257142Y-82157143D01*
X123200000Y-82185714D01*
X122971428Y-82185714D01*
X123885714Y-82471429D02*
X123542857Y-82471429D01*
X123714285Y-82471429D02*
X123714285Y-81871429D01*
X123657142Y-81957143D01*
X123600000Y-82014286D01*
X123542857Y-82042857D01*
X124400000Y-82071429D02*
X124400000Y-82471429D01*
X124257143Y-81842857D02*
X124114286Y-82271429D01*
X124485714Y-82271429D01*
X123314285Y-89571429D02*
X123114285Y-89285714D01*
X122971428Y-89571429D02*
X122971428Y-88971429D01*
X123200000Y-88971429D01*
X123257142Y-89000000D01*
X123285714Y-89028571D01*
X123314285Y-89085714D01*
X123314285Y-89171429D01*
X123285714Y-89228571D01*
X123257142Y-89257143D01*
X123200000Y-89285714D01*
X122971428Y-89285714D01*
X123885714Y-89571429D02*
X123542857Y-89571429D01*
X123714285Y-89571429D02*
X123714285Y-88971429D01*
X123657142Y-89057143D01*
X123600000Y-89114286D01*
X123542857Y-89142857D01*
X124428571Y-88971429D02*
X124142857Y-88971429D01*
X124114286Y-89257143D01*
X124142857Y-89228571D01*
X124200000Y-89200000D01*
X124342857Y-89200000D01*
X124400000Y-89228571D01*
X124428571Y-89257143D01*
X124457143Y-89314286D01*
X124457143Y-89457143D01*
X124428571Y-89514286D01*
X124400000Y-89542857D01*
X124342857Y-89571429D01*
X124200000Y-89571429D01*
X124142857Y-89542857D01*
X124114286Y-89514286D01*
X126271429Y-91485715D02*
X125985714Y-91685715D01*
X126271429Y-91828572D02*
X125671429Y-91828572D01*
X125671429Y-91600000D01*
X125700000Y-91542858D01*
X125728571Y-91514286D01*
X125785714Y-91485715D01*
X125871429Y-91485715D01*
X125928571Y-91514286D01*
X125957143Y-91542858D01*
X125985714Y-91600000D01*
X125985714Y-91828572D01*
X126271429Y-90914286D02*
X126271429Y-91257143D01*
X126271429Y-91085715D02*
X125671429Y-91085715D01*
X125757143Y-91142858D01*
X125814286Y-91200000D01*
X125842857Y-91257143D01*
X125671429Y-90400000D02*
X125671429Y-90514286D01*
X125700000Y-90571429D01*
X125728571Y-90600000D01*
X125814286Y-90657143D01*
X125928571Y-90685714D01*
X126157143Y-90685714D01*
X126214286Y-90657143D01*
X126242857Y-90628571D01*
X126271429Y-90571429D01*
X126271429Y-90457143D01*
X126242857Y-90400000D01*
X126214286Y-90371429D01*
X126157143Y-90342857D01*
X126014286Y-90342857D01*
X125957143Y-90371429D01*
X125928571Y-90400000D01*
X125900000Y-90457143D01*
X125900000Y-90571429D01*
X125928571Y-90628571D01*
X125957143Y-90657143D01*
X126014286Y-90685714D01*
X160371428Y-120961905D02*
X160371428Y-120161905D01*
X160638095Y-120733333D01*
X160904762Y-120161905D01*
X160904762Y-120961905D01*
X161438095Y-120161905D02*
X161590476Y-120161905D01*
X161666667Y-120200000D01*
X161742857Y-120276190D01*
X161780952Y-120428571D01*
X161780952Y-120695238D01*
X161742857Y-120847619D01*
X161666667Y-120923810D01*
X161590476Y-120961905D01*
X161438095Y-120961905D01*
X161361905Y-120923810D01*
X161285714Y-120847619D01*
X161247619Y-120695238D01*
X161247619Y-120428571D01*
X161285714Y-120276190D01*
X161361905Y-120200000D01*
X161438095Y-120161905D01*
X162123809Y-120961905D02*
X162123809Y-120161905D01*
X162314285Y-120161905D01*
X162428571Y-120200000D01*
X162504762Y-120276190D01*
X162542857Y-120352381D01*
X162580952Y-120504762D01*
X162580952Y-120619048D01*
X162542857Y-120771429D01*
X162504762Y-120847619D01*
X162428571Y-120923810D01*
X162314285Y-120961905D01*
X162123809Y-120961905D01*
X162923809Y-120542857D02*
X163190476Y-120542857D01*
X163304762Y-120961905D02*
X162923809Y-120961905D01*
X162923809Y-120161905D01*
X163304762Y-120161905D01*
X164066667Y-120961905D02*
X163609524Y-120961905D01*
X163838095Y-120961905D02*
X163838095Y-120161905D01*
X163761905Y-120276190D01*
X163685714Y-120352381D01*
X163609524Y-120390476D01*
X112814286Y-117200000D02*
X112842857Y-117228571D01*
X112871429Y-117314285D01*
X112871429Y-117371428D01*
X112842857Y-117457143D01*
X112785714Y-117514285D01*
X112728571Y-117542857D01*
X112614286Y-117571428D01*
X112528571Y-117571428D01*
X112414286Y-117542857D01*
X112357143Y-117514285D01*
X112300000Y-117457143D01*
X112271429Y-117371428D01*
X112271429Y-117314285D01*
X112300000Y-117228571D01*
X112328571Y-117200000D01*
X112271429Y-117000000D02*
X112271429Y-116628571D01*
X112500000Y-116828571D01*
X112500000Y-116742857D01*
X112528571Y-116685714D01*
X112557143Y-116657143D01*
X112614286Y-116628571D01*
X112757143Y-116628571D01*
X112814286Y-116657143D01*
X112842857Y-116685714D01*
X112871429Y-116742857D01*
X112871429Y-116914285D01*
X112842857Y-116971428D01*
X112814286Y-117000000D01*
X117459000Y-106214286D02*
X117430429Y-106242857D01*
X117344715Y-106271429D01*
X117287572Y-106271429D01*
X117201857Y-106242857D01*
X117144715Y-106185714D01*
X117116143Y-106128571D01*
X117087572Y-106014286D01*
X117087572Y-105928571D01*
X117116143Y-105814286D01*
X117144715Y-105757143D01*
X117201857Y-105700000D01*
X117287572Y-105671429D01*
X117344715Y-105671429D01*
X117430429Y-105700000D01*
X117459000Y-105728571D01*
X117973286Y-105871429D02*
X117973286Y-106271429D01*
X117830429Y-105642857D02*
X117687572Y-106071429D01*
X118059000Y-106071429D01*
X165600000Y-90314286D02*
X165571429Y-90342857D01*
X165485715Y-90371429D01*
X165428572Y-90371429D01*
X165342857Y-90342857D01*
X165285715Y-90285714D01*
X165257143Y-90228571D01*
X165228572Y-90114286D01*
X165228572Y-90028571D01*
X165257143Y-89914286D01*
X165285715Y-89857143D01*
X165342857Y-89800000D01*
X165428572Y-89771429D01*
X165485715Y-89771429D01*
X165571429Y-89800000D01*
X165600000Y-89828571D01*
X165885715Y-90371429D02*
X166000000Y-90371429D01*
X166057143Y-90342857D01*
X166085715Y-90314286D01*
X166142857Y-90228571D01*
X166171429Y-90114286D01*
X166171429Y-89885714D01*
X166142857Y-89828571D01*
X166114286Y-89800000D01*
X166057143Y-89771429D01*
X165942857Y-89771429D01*
X165885715Y-89800000D01*
X165857143Y-89828571D01*
X165828572Y-89885714D01*
X165828572Y-90028571D01*
X165857143Y-90085714D01*
X165885715Y-90114286D01*
X165942857Y-90142857D01*
X166057143Y-90142857D01*
X166114286Y-90114286D01*
X166142857Y-90085714D01*
X166171429Y-90028571D01*
X165014285Y-91714286D02*
X164985714Y-91742857D01*
X164900000Y-91771429D01*
X164842857Y-91771429D01*
X164757142Y-91742857D01*
X164700000Y-91685714D01*
X164671428Y-91628571D01*
X164642857Y-91514286D01*
X164642857Y-91428571D01*
X164671428Y-91314286D01*
X164700000Y-91257143D01*
X164757142Y-91200000D01*
X164842857Y-91171429D01*
X164900000Y-91171429D01*
X164985714Y-91200000D01*
X165014285Y-91228571D01*
X165585714Y-91771429D02*
X165242857Y-91771429D01*
X165414285Y-91771429D02*
X165414285Y-91171429D01*
X165357142Y-91257143D01*
X165300000Y-91314286D01*
X165242857Y-91342857D01*
X165957143Y-91171429D02*
X166014286Y-91171429D01*
X166071429Y-91200000D01*
X166100000Y-91228571D01*
X166128571Y-91285714D01*
X166157143Y-91400000D01*
X166157143Y-91542857D01*
X166128571Y-91657143D01*
X166100000Y-91714286D01*
X166071429Y-91742857D01*
X166014286Y-91771429D01*
X165957143Y-91771429D01*
X165900000Y-91742857D01*
X165871429Y-91714286D01*
X165842857Y-91657143D01*
X165814286Y-91542857D01*
X165814286Y-91400000D01*
X165842857Y-91285714D01*
X165871429Y-91228571D01*
X165900000Y-91200000D01*
X165957143Y-91171429D01*
X155314285Y-82014286D02*
X155285714Y-82042857D01*
X155200000Y-82071429D01*
X155142857Y-82071429D01*
X155057142Y-82042857D01*
X155000000Y-81985714D01*
X154971428Y-81928571D01*
X154942857Y-81814286D01*
X154942857Y-81728571D01*
X154971428Y-81614286D01*
X155000000Y-81557143D01*
X155057142Y-81500000D01*
X155142857Y-81471429D01*
X155200000Y-81471429D01*
X155285714Y-81500000D01*
X155314285Y-81528571D01*
X155885714Y-82071429D02*
X155542857Y-82071429D01*
X155714285Y-82071429D02*
X155714285Y-81471429D01*
X155657142Y-81557143D01*
X155600000Y-81614286D01*
X155542857Y-81642857D01*
X156457143Y-82071429D02*
X156114286Y-82071429D01*
X156285714Y-82071429D02*
X156285714Y-81471429D01*
X156228571Y-81557143D01*
X156171429Y-81614286D01*
X156114286Y-81642857D01*
X139164286Y-124385715D02*
X139192857Y-124414286D01*
X139221429Y-124500000D01*
X139221429Y-124557143D01*
X139192857Y-124642858D01*
X139135714Y-124700000D01*
X139078571Y-124728572D01*
X138964286Y-124757143D01*
X138878571Y-124757143D01*
X138764286Y-124728572D01*
X138707143Y-124700000D01*
X138650000Y-124642858D01*
X138621429Y-124557143D01*
X138621429Y-124500000D01*
X138650000Y-124414286D01*
X138678571Y-124385715D01*
X139221429Y-123814286D02*
X139221429Y-124157143D01*
X139221429Y-123985715D02*
X138621429Y-123985715D01*
X138707143Y-124042858D01*
X138764286Y-124100000D01*
X138792857Y-124157143D01*
X138678571Y-123585714D02*
X138650000Y-123557143D01*
X138621429Y-123500000D01*
X138621429Y-123357143D01*
X138650000Y-123300000D01*
X138678571Y-123271429D01*
X138735714Y-123242857D01*
X138792857Y-123242857D01*
X138878571Y-123271429D01*
X139221429Y-123614286D01*
X139221429Y-123242857D01*
D12*
X101452381Y-128032381D02*
X101119047Y-127556190D01*
X100880952Y-128032381D02*
X100880952Y-127032381D01*
X101261905Y-127032381D01*
X101357143Y-127080000D01*
X101404762Y-127127619D01*
X101452381Y-127222857D01*
X101452381Y-127365714D01*
X101404762Y-127460952D01*
X101357143Y-127508571D01*
X101261905Y-127556190D01*
X100880952Y-127556190D01*
X101880952Y-127508571D02*
X102214286Y-127508571D01*
X102357143Y-128032381D02*
X101880952Y-128032381D01*
X101880952Y-127032381D01*
X102357143Y-127032381D01*
X103119048Y-127508571D02*
X102785714Y-127508571D01*
X102785714Y-128032381D02*
X102785714Y-127032381D01*
X103261905Y-127032381D01*
X103595238Y-127127619D02*
X103642857Y-127080000D01*
X103738095Y-127032381D01*
X103976191Y-127032381D01*
X104071429Y-127080000D01*
X104119048Y-127127619D01*
X104166667Y-127222857D01*
X104166667Y-127318095D01*
X104119048Y-127460952D01*
X103547619Y-128032381D01*
X104166667Y-128032381D01*
X166452381Y-127452381D02*
X166119047Y-126976190D01*
X165880952Y-127452381D02*
X165880952Y-126452381D01*
X166261905Y-126452381D01*
X166357143Y-126500000D01*
X166404762Y-126547619D01*
X166452381Y-126642857D01*
X166452381Y-126785714D01*
X166404762Y-126880952D01*
X166357143Y-126928571D01*
X166261905Y-126976190D01*
X165880952Y-126976190D01*
X166880952Y-126928571D02*
X167214286Y-126928571D01*
X167357143Y-127452381D02*
X166880952Y-127452381D01*
X166880952Y-126452381D01*
X167357143Y-126452381D01*
X168119048Y-126928571D02*
X167785714Y-126928571D01*
X167785714Y-127452381D02*
X167785714Y-126452381D01*
X168261905Y-126452381D01*
X169071429Y-126785714D02*
X169071429Y-127452381D01*
X168833333Y-126404762D02*
X168595238Y-127119048D01*
X169214286Y-127119048D01*
D10*
X124321429Y-114750000D02*
X124035714Y-114950000D01*
X124321429Y-115092857D02*
X123721429Y-115092857D01*
X123721429Y-114864285D01*
X123750000Y-114807143D01*
X123778571Y-114778571D01*
X123835714Y-114750000D01*
X123921429Y-114750000D01*
X123978571Y-114778571D01*
X124007143Y-114807143D01*
X124035714Y-114864285D01*
X124035714Y-115092857D01*
X123921429Y-114235714D02*
X124321429Y-114235714D01*
X123692857Y-114378571D02*
X124121429Y-114521428D01*
X124121429Y-114150000D01*
X132021429Y-115500000D02*
X131735714Y-115700000D01*
X132021429Y-115842857D02*
X131421429Y-115842857D01*
X131421429Y-115614285D01*
X131450000Y-115557143D01*
X131478571Y-115528571D01*
X131535714Y-115500000D01*
X131621429Y-115500000D01*
X131678571Y-115528571D01*
X131707143Y-115557143D01*
X131735714Y-115614285D01*
X131735714Y-115842857D01*
X131421429Y-114957143D02*
X131421429Y-115242857D01*
X131707143Y-115271428D01*
X131678571Y-115242857D01*
X131650000Y-115185714D01*
X131650000Y-115042857D01*
X131678571Y-114985714D01*
X131707143Y-114957143D01*
X131764286Y-114928571D01*
X131907143Y-114928571D01*
X131964286Y-114957143D01*
X131992857Y-114985714D01*
X132021429Y-115042857D01*
X132021429Y-115185714D01*
X131992857Y-115242857D01*
X131964286Y-115271428D01*
X150214286Y-124171715D02*
X150242857Y-124200286D01*
X150271429Y-124286000D01*
X150271429Y-124343143D01*
X150242857Y-124428858D01*
X150185714Y-124486000D01*
X150128571Y-124514572D01*
X150014286Y-124543143D01*
X149928571Y-124543143D01*
X149814286Y-124514572D01*
X149757143Y-124486000D01*
X149700000Y-124428858D01*
X149671429Y-124343143D01*
X149671429Y-124286000D01*
X149700000Y-124200286D01*
X149728571Y-124171715D01*
X150271429Y-123600286D02*
X150271429Y-123943143D01*
X150271429Y-123771715D02*
X149671429Y-123771715D01*
X149757143Y-123828858D01*
X149814286Y-123886000D01*
X149842857Y-123943143D01*
X149671429Y-123400286D02*
X149671429Y-123028857D01*
X149900000Y-123228857D01*
X149900000Y-123143143D01*
X149928571Y-123086000D01*
X149957143Y-123057429D01*
X150014286Y-123028857D01*
X150157143Y-123028857D01*
X150214286Y-123057429D01*
X150242857Y-123086000D01*
X150271429Y-123143143D01*
X150271429Y-123314571D01*
X150242857Y-123371714D01*
X150214286Y-123400286D01*
X117459000Y-103114286D02*
X117430429Y-103142857D01*
X117344715Y-103171429D01*
X117287572Y-103171429D01*
X117201857Y-103142857D01*
X117144715Y-103085714D01*
X117116143Y-103028571D01*
X117087572Y-102914286D01*
X117087572Y-102828571D01*
X117116143Y-102714286D01*
X117144715Y-102657143D01*
X117201857Y-102600000D01*
X117287572Y-102571429D01*
X117344715Y-102571429D01*
X117430429Y-102600000D01*
X117459000Y-102628571D01*
X117973286Y-102571429D02*
X117859000Y-102571429D01*
X117801857Y-102600000D01*
X117773286Y-102628571D01*
X117716143Y-102714286D01*
X117687572Y-102828571D01*
X117687572Y-103057143D01*
X117716143Y-103114286D01*
X117744715Y-103142857D01*
X117801857Y-103171429D01*
X117916143Y-103171429D01*
X117973286Y-103142857D01*
X118001857Y-103114286D01*
X118030429Y-103057143D01*
X118030429Y-102914286D01*
X118001857Y-102857143D01*
X117973286Y-102828571D01*
X117916143Y-102800000D01*
X117801857Y-102800000D01*
X117744715Y-102828571D01*
X117716143Y-102857143D01*
X117687572Y-102914286D01*
X117332000Y-101387286D02*
X117303429Y-101415857D01*
X117217715Y-101444429D01*
X117160572Y-101444429D01*
X117074857Y-101415857D01*
X117017715Y-101358714D01*
X116989143Y-101301571D01*
X116960572Y-101187286D01*
X116960572Y-101101571D01*
X116989143Y-100987286D01*
X117017715Y-100930143D01*
X117074857Y-100873000D01*
X117160572Y-100844429D01*
X117217715Y-100844429D01*
X117303429Y-100873000D01*
X117332000Y-100901571D01*
X117532000Y-100844429D02*
X117932000Y-100844429D01*
X117674857Y-101444429D01*
X126214286Y-100685715D02*
X126242857Y-100714286D01*
X126271429Y-100800000D01*
X126271429Y-100857143D01*
X126242857Y-100942858D01*
X126185714Y-101000000D01*
X126128571Y-101028572D01*
X126014286Y-101057143D01*
X125928571Y-101057143D01*
X125814286Y-101028572D01*
X125757143Y-101000000D01*
X125700000Y-100942858D01*
X125671429Y-100857143D01*
X125671429Y-100800000D01*
X125700000Y-100714286D01*
X125728571Y-100685715D01*
X126271429Y-100114286D02*
X126271429Y-100457143D01*
X126271429Y-100285715D02*
X125671429Y-100285715D01*
X125757143Y-100342858D01*
X125814286Y-100400000D01*
X125842857Y-100457143D01*
X125871429Y-99600000D02*
X126271429Y-99600000D01*
X125642857Y-99742857D02*
X126071429Y-99885714D01*
X126071429Y-99514286D01*
X121761905Y-116210833D02*
X121380952Y-116477500D01*
X121761905Y-116667976D02*
X120961905Y-116667976D01*
X120961905Y-116363214D01*
X121000000Y-116287023D01*
X121038095Y-116248928D01*
X121114286Y-116210833D01*
X121228571Y-116210833D01*
X121304762Y-116248928D01*
X121342857Y-116287023D01*
X121380952Y-116363214D01*
X121380952Y-116667976D01*
X121761905Y-115448928D02*
X121761905Y-115906071D01*
X121761905Y-115677500D02*
X120961905Y-115677500D01*
X121076190Y-115753690D01*
X121152381Y-115829881D01*
X121190476Y-115906071D01*
X101028571Y-88861905D02*
X101028571Y-88061905D01*
X101295238Y-88633333D01*
X101561905Y-88061905D01*
X101561905Y-88861905D01*
X102057143Y-88861905D02*
X101980952Y-88823810D01*
X101942857Y-88785714D01*
X101904762Y-88709524D01*
X101904762Y-88480952D01*
X101942857Y-88404762D01*
X101980952Y-88366667D01*
X102057143Y-88328571D01*
X102171429Y-88328571D01*
X102247619Y-88366667D01*
X102285714Y-88404762D01*
X102323810Y-88480952D01*
X102323810Y-88709524D01*
X102285714Y-88785714D01*
X102247619Y-88823810D01*
X102171429Y-88861905D01*
X102057143Y-88861905D01*
X102552381Y-88328571D02*
X102857143Y-88328571D01*
X102666667Y-88061905D02*
X102666667Y-88747619D01*
X102704762Y-88823810D01*
X102780953Y-88861905D01*
X102857143Y-88861905D01*
X103238096Y-88861905D02*
X103161905Y-88823810D01*
X103123810Y-88785714D01*
X103085715Y-88709524D01*
X103085715Y-88480952D01*
X103123810Y-88404762D01*
X103161905Y-88366667D01*
X103238096Y-88328571D01*
X103352382Y-88328571D01*
X103428572Y-88366667D01*
X103466667Y-88404762D01*
X103504763Y-88480952D01*
X103504763Y-88709524D01*
X103466667Y-88785714D01*
X103428572Y-88823810D01*
X103352382Y-88861905D01*
X103238096Y-88861905D01*
X103847620Y-88861905D02*
X103847620Y-88328571D01*
X103847620Y-88480952D02*
X103885715Y-88404762D01*
X103923811Y-88366667D01*
X104000001Y-88328571D01*
X104076192Y-88328571D01*
X104723811Y-88861905D02*
X104342858Y-88861905D01*
X104342858Y-88061905D01*
X105295239Y-88823810D02*
X105219049Y-88861905D01*
X105066668Y-88861905D01*
X104990477Y-88823810D01*
X104952382Y-88747619D01*
X104952382Y-88442857D01*
X104990477Y-88366667D01*
X105066668Y-88328571D01*
X105219049Y-88328571D01*
X105295239Y-88366667D01*
X105333334Y-88442857D01*
X105333334Y-88519048D01*
X104952382Y-88595238D01*
X105561905Y-88328571D02*
X105866667Y-88328571D01*
X105676191Y-88861905D02*
X105676191Y-88176190D01*
X105714286Y-88100000D01*
X105790477Y-88061905D01*
X105866667Y-88061905D01*
X106019048Y-88328571D02*
X106323810Y-88328571D01*
X106133334Y-88061905D02*
X106133334Y-88747619D01*
X106171429Y-88823810D01*
X106247620Y-88861905D01*
X106323810Y-88861905D01*
X107009525Y-88861905D02*
X106552382Y-88861905D01*
X106780953Y-88861905D02*
X106780953Y-88061905D01*
X106704763Y-88176190D01*
X106628572Y-88252381D01*
X106552382Y-88290476D01*
X100509523Y-116861905D02*
X100509523Y-116061905D01*
X100776190Y-116633333D01*
X101042857Y-116061905D01*
X101042857Y-116861905D01*
X101538095Y-116861905D02*
X101461904Y-116823810D01*
X101423809Y-116785714D01*
X101385714Y-116709524D01*
X101385714Y-116480952D01*
X101423809Y-116404762D01*
X101461904Y-116366667D01*
X101538095Y-116328571D01*
X101652381Y-116328571D01*
X101728571Y-116366667D01*
X101766666Y-116404762D01*
X101804762Y-116480952D01*
X101804762Y-116709524D01*
X101766666Y-116785714D01*
X101728571Y-116823810D01*
X101652381Y-116861905D01*
X101538095Y-116861905D01*
X102033333Y-116328571D02*
X102338095Y-116328571D01*
X102147619Y-116061905D02*
X102147619Y-116747619D01*
X102185714Y-116823810D01*
X102261905Y-116861905D01*
X102338095Y-116861905D01*
X102719048Y-116861905D02*
X102642857Y-116823810D01*
X102604762Y-116785714D01*
X102566667Y-116709524D01*
X102566667Y-116480952D01*
X102604762Y-116404762D01*
X102642857Y-116366667D01*
X102719048Y-116328571D01*
X102833334Y-116328571D01*
X102909524Y-116366667D01*
X102947619Y-116404762D01*
X102985715Y-116480952D01*
X102985715Y-116709524D01*
X102947619Y-116785714D01*
X102909524Y-116823810D01*
X102833334Y-116861905D01*
X102719048Y-116861905D01*
X103328572Y-116861905D02*
X103328572Y-116328571D01*
X103328572Y-116480952D02*
X103366667Y-116404762D01*
X103404763Y-116366667D01*
X103480953Y-116328571D01*
X103557144Y-116328571D01*
X104280953Y-116861905D02*
X104014286Y-116480952D01*
X103823810Y-116861905D02*
X103823810Y-116061905D01*
X104128572Y-116061905D01*
X104204763Y-116100000D01*
X104242858Y-116138095D01*
X104280953Y-116214286D01*
X104280953Y-116328571D01*
X104242858Y-116404762D01*
X104204763Y-116442857D01*
X104128572Y-116480952D01*
X103823810Y-116480952D01*
X104623810Y-116861905D02*
X104623810Y-116328571D01*
X104623810Y-116061905D02*
X104585715Y-116100000D01*
X104623810Y-116138095D01*
X104661905Y-116100000D01*
X104623810Y-116061905D01*
X104623810Y-116138095D01*
X105347619Y-116328571D02*
X105347619Y-116976190D01*
X105309524Y-117052381D01*
X105271429Y-117090476D01*
X105195238Y-117128571D01*
X105080953Y-117128571D01*
X105004762Y-117090476D01*
X105347619Y-116823810D02*
X105271429Y-116861905D01*
X105119048Y-116861905D01*
X105042857Y-116823810D01*
X105004762Y-116785714D01*
X104966667Y-116709524D01*
X104966667Y-116480952D01*
X105004762Y-116404762D01*
X105042857Y-116366667D01*
X105119048Y-116328571D01*
X105271429Y-116328571D01*
X105347619Y-116366667D01*
X105728572Y-116861905D02*
X105728572Y-116061905D01*
X106071429Y-116861905D02*
X106071429Y-116442857D01*
X106033334Y-116366667D01*
X105957144Y-116328571D01*
X105842858Y-116328571D01*
X105766667Y-116366667D01*
X105728572Y-116404762D01*
X106338096Y-116328571D02*
X106642858Y-116328571D01*
X106452382Y-116061905D02*
X106452382Y-116747619D01*
X106490477Y-116823810D01*
X106566668Y-116861905D01*
X106642858Y-116861905D01*
X107328573Y-116861905D02*
X106871430Y-116861905D01*
X107100001Y-116861905D02*
X107100001Y-116061905D01*
X107023811Y-116176190D01*
X106947620Y-116252381D01*
X106871430Y-116290476D01*
D12*
X107842905Y-127867381D02*
X107842905Y-126867381D01*
X108176239Y-127581667D01*
X108509572Y-126867381D01*
X108509572Y-127867381D01*
X108985762Y-127867381D02*
X108985762Y-127200714D01*
X108985762Y-126867381D02*
X108938143Y-126915000D01*
X108985762Y-126962619D01*
X109033381Y-126915000D01*
X108985762Y-126867381D01*
X108985762Y-126962619D01*
X109890524Y-127819762D02*
X109795286Y-127867381D01*
X109604809Y-127867381D01*
X109509571Y-127819762D01*
X109461952Y-127772143D01*
X109414333Y-127676905D01*
X109414333Y-127391190D01*
X109461952Y-127295952D01*
X109509571Y-127248333D01*
X109604809Y-127200714D01*
X109795286Y-127200714D01*
X109890524Y-127248333D01*
X110319095Y-127867381D02*
X110319095Y-127200714D01*
X110319095Y-127391190D02*
X110366714Y-127295952D01*
X110414333Y-127248333D01*
X110509571Y-127200714D01*
X110604810Y-127200714D01*
X111081000Y-127867381D02*
X110985762Y-127819762D01*
X110938143Y-127772143D01*
X110890524Y-127676905D01*
X110890524Y-127391190D01*
X110938143Y-127295952D01*
X110985762Y-127248333D01*
X111081000Y-127200714D01*
X111223858Y-127200714D01*
X111319096Y-127248333D01*
X111366715Y-127295952D01*
X111414334Y-127391190D01*
X111414334Y-127676905D01*
X111366715Y-127772143D01*
X111319096Y-127819762D01*
X111223858Y-127867381D01*
X111081000Y-127867381D01*
X111842905Y-126867381D02*
X111842905Y-127676905D01*
X111890524Y-127772143D01*
X111938143Y-127819762D01*
X112033381Y-127867381D01*
X112223858Y-127867381D01*
X112319096Y-127819762D01*
X112366715Y-127772143D01*
X112414334Y-127676905D01*
X112414334Y-126867381D01*
X112842905Y-127819762D02*
X112985762Y-127867381D01*
X113223858Y-127867381D01*
X113319096Y-127819762D01*
X113366715Y-127772143D01*
X113414334Y-127676905D01*
X113414334Y-127581667D01*
X113366715Y-127486429D01*
X113319096Y-127438810D01*
X113223858Y-127391190D01*
X113033381Y-127343571D01*
X112938143Y-127295952D01*
X112890524Y-127248333D01*
X112842905Y-127153095D01*
X112842905Y-127057857D01*
X112890524Y-126962619D01*
X112938143Y-126915000D01*
X113033381Y-126867381D01*
X113271477Y-126867381D01*
X113414334Y-126915000D01*
X114176239Y-127343571D02*
X114319096Y-127391190D01*
X114366715Y-127438810D01*
X114414334Y-127534048D01*
X114414334Y-127676905D01*
X114366715Y-127772143D01*
X114319096Y-127819762D01*
X114223858Y-127867381D01*
X113842905Y-127867381D01*
X113842905Y-126867381D01*
X114176239Y-126867381D01*
X114271477Y-126915000D01*
X114319096Y-126962619D01*
X114366715Y-127057857D01*
X114366715Y-127153095D01*
X114319096Y-127248333D01*
X114271477Y-127295952D01*
X114176239Y-127343571D01*
X113842905Y-127343571D01*
X115366715Y-127867381D02*
X114795286Y-127867381D01*
X115081000Y-127867381D02*
X115081000Y-126867381D01*
X114985762Y-127010238D01*
X114890524Y-127105476D01*
X114795286Y-127153095D01*
X146500000Y-91133333D02*
X146461905Y-91209524D01*
X146461905Y-91323809D01*
X146500000Y-91438095D01*
X146576190Y-91514286D01*
X146652381Y-91552381D01*
X146804762Y-91590476D01*
X146919048Y-91590476D01*
X147071429Y-91552381D01*
X147147619Y-91514286D01*
X147223810Y-91438095D01*
X147261905Y-91323809D01*
X147261905Y-91247619D01*
X147223810Y-91133333D01*
X147185714Y-91095238D01*
X146919048Y-91095238D01*
X146919048Y-91247619D01*
X147261905Y-90752381D02*
X146728571Y-90752381D01*
X146880952Y-90752381D02*
X146804762Y-90714286D01*
X146766667Y-90676190D01*
X146728571Y-90600000D01*
X146728571Y-90523809D01*
X147261905Y-90142857D02*
X147223810Y-90219048D01*
X147185714Y-90257143D01*
X147109524Y-90295238D01*
X146880952Y-90295238D01*
X146804762Y-90257143D01*
X146766667Y-90219048D01*
X146728571Y-90142857D01*
X146728571Y-90028571D01*
X146766667Y-89952381D01*
X146804762Y-89914286D01*
X146880952Y-89876190D01*
X147109524Y-89876190D01*
X147185714Y-89914286D01*
X147223810Y-89952381D01*
X147261905Y-90028571D01*
X147261905Y-90142857D01*
X146728571Y-89609523D02*
X147261905Y-89419047D01*
X146728571Y-89228571D01*
X147223810Y-88619047D02*
X147261905Y-88695237D01*
X147261905Y-88847618D01*
X147223810Y-88923809D01*
X147147619Y-88961904D01*
X146842857Y-88961904D01*
X146766667Y-88923809D01*
X146728571Y-88847618D01*
X146728571Y-88695237D01*
X146766667Y-88619047D01*
X146842857Y-88580952D01*
X146919048Y-88580952D01*
X146995238Y-88961904D01*
X147033333Y-88276190D02*
X147033333Y-87895238D01*
X147261905Y-88352381D02*
X146461905Y-88085714D01*
X147261905Y-87819047D01*
X147261905Y-87552381D02*
X146461905Y-87552381D01*
X147261905Y-87095238D01*
X146461905Y-87095238D01*
X147033333Y-86752381D02*
X147033333Y-86371429D01*
X147261905Y-86828572D02*
X146461905Y-86561905D01*
X147261905Y-86295238D01*
X147261905Y-85609524D02*
X147261905Y-86066667D01*
X147261905Y-85838096D02*
X146461905Y-85838096D01*
X146576190Y-85914286D01*
X146652381Y-85990477D01*
X146690476Y-86066667D01*
D10*
X138900000Y-91309523D02*
X138861905Y-91385714D01*
X138861905Y-91499999D01*
X138900000Y-91614285D01*
X138976190Y-91690476D01*
X139052381Y-91728571D01*
X139204762Y-91766666D01*
X139319048Y-91766666D01*
X139471429Y-91728571D01*
X139547619Y-91690476D01*
X139623810Y-91614285D01*
X139661905Y-91499999D01*
X139661905Y-91423809D01*
X139623810Y-91309523D01*
X139585714Y-91271428D01*
X139319048Y-91271428D01*
X139319048Y-91423809D01*
X139661905Y-90928571D02*
X139128571Y-90928571D01*
X139280952Y-90928571D02*
X139204762Y-90890476D01*
X139166667Y-90852380D01*
X139128571Y-90776190D01*
X139128571Y-90699999D01*
X139661905Y-90319047D02*
X139623810Y-90395238D01*
X139585714Y-90433333D01*
X139509524Y-90471428D01*
X139280952Y-90471428D01*
X139204762Y-90433333D01*
X139166667Y-90395238D01*
X139128571Y-90319047D01*
X139128571Y-90204761D01*
X139166667Y-90128571D01*
X139204762Y-90090476D01*
X139280952Y-90052380D01*
X139509524Y-90052380D01*
X139585714Y-90090476D01*
X139623810Y-90128571D01*
X139661905Y-90204761D01*
X139661905Y-90319047D01*
X139128571Y-89785713D02*
X139661905Y-89595237D01*
X139128571Y-89404761D01*
X139623810Y-88795237D02*
X139661905Y-88871427D01*
X139661905Y-89023808D01*
X139623810Y-89099999D01*
X139547619Y-89138094D01*
X139242857Y-89138094D01*
X139166667Y-89099999D01*
X139128571Y-89023808D01*
X139128571Y-88871427D01*
X139166667Y-88795237D01*
X139242857Y-88757142D01*
X139319048Y-88757142D01*
X139395238Y-89138094D01*
X139661905Y-88414285D02*
X138861905Y-88414285D01*
X138861905Y-88223809D01*
X138900000Y-88109523D01*
X138976190Y-88033332D01*
X139052381Y-87995237D01*
X139204762Y-87957142D01*
X139319048Y-87957142D01*
X139471429Y-87995237D01*
X139547619Y-88033332D01*
X139623810Y-88109523D01*
X139661905Y-88223809D01*
X139661905Y-88414285D01*
X139661905Y-87614285D02*
X138861905Y-87614285D01*
X138900000Y-86814285D02*
X138861905Y-86890476D01*
X138861905Y-87004761D01*
X138900000Y-87119047D01*
X138976190Y-87195238D01*
X139052381Y-87233333D01*
X139204762Y-87271428D01*
X139319048Y-87271428D01*
X139471429Y-87233333D01*
X139547619Y-87195238D01*
X139623810Y-87119047D01*
X139661905Y-87004761D01*
X139661905Y-86928571D01*
X139623810Y-86814285D01*
X139585714Y-86776190D01*
X139319048Y-86776190D01*
X139319048Y-86928571D01*
X139661905Y-86433333D02*
X138861905Y-86433333D01*
X138861905Y-85900000D02*
X138861905Y-85823809D01*
X138900000Y-85747619D01*
X138938095Y-85709524D01*
X139014286Y-85671428D01*
X139166667Y-85633333D01*
X139357143Y-85633333D01*
X139509524Y-85671428D01*
X139585714Y-85709524D01*
X139623810Y-85747619D01*
X139661905Y-85823809D01*
X139661905Y-85900000D01*
X139623810Y-85976190D01*
X139585714Y-86014286D01*
X139509524Y-86052381D01*
X139357143Y-86090476D01*
X139166667Y-86090476D01*
X139014286Y-86052381D01*
X138938095Y-86014286D01*
X138900000Y-85976190D01*
X138861905Y-85900000D01*
X131500000Y-91309523D02*
X131461905Y-91385714D01*
X131461905Y-91499999D01*
X131500000Y-91614285D01*
X131576190Y-91690476D01*
X131652381Y-91728571D01*
X131804762Y-91766666D01*
X131919048Y-91766666D01*
X132071429Y-91728571D01*
X132147619Y-91690476D01*
X132223810Y-91614285D01*
X132261905Y-91499999D01*
X132261905Y-91423809D01*
X132223810Y-91309523D01*
X132185714Y-91271428D01*
X131919048Y-91271428D01*
X131919048Y-91423809D01*
X132261905Y-90928571D02*
X131728571Y-90928571D01*
X131880952Y-90928571D02*
X131804762Y-90890476D01*
X131766667Y-90852380D01*
X131728571Y-90776190D01*
X131728571Y-90699999D01*
X132261905Y-90319047D02*
X132223810Y-90395238D01*
X132185714Y-90433333D01*
X132109524Y-90471428D01*
X131880952Y-90471428D01*
X131804762Y-90433333D01*
X131766667Y-90395238D01*
X131728571Y-90319047D01*
X131728571Y-90204761D01*
X131766667Y-90128571D01*
X131804762Y-90090476D01*
X131880952Y-90052380D01*
X132109524Y-90052380D01*
X132185714Y-90090476D01*
X132223810Y-90128571D01*
X132261905Y-90204761D01*
X132261905Y-90319047D01*
X131728571Y-89785713D02*
X132261905Y-89595237D01*
X131728571Y-89404761D01*
X132223810Y-88795237D02*
X132261905Y-88871427D01*
X132261905Y-89023808D01*
X132223810Y-89099999D01*
X132147619Y-89138094D01*
X131842857Y-89138094D01*
X131766667Y-89099999D01*
X131728571Y-89023808D01*
X131728571Y-88871427D01*
X131766667Y-88795237D01*
X131842857Y-88757142D01*
X131919048Y-88757142D01*
X131995238Y-89138094D01*
X132261905Y-88414285D02*
X131461905Y-88414285D01*
X131461905Y-88223809D01*
X131500000Y-88109523D01*
X131576190Y-88033332D01*
X131652381Y-87995237D01*
X131804762Y-87957142D01*
X131919048Y-87957142D01*
X132071429Y-87995237D01*
X132147619Y-88033332D01*
X132223810Y-88109523D01*
X132261905Y-88223809D01*
X132261905Y-88414285D01*
X132261905Y-87614285D02*
X131461905Y-87614285D01*
X131500000Y-86814285D02*
X131461905Y-86890476D01*
X131461905Y-87004761D01*
X131500000Y-87119047D01*
X131576190Y-87195238D01*
X131652381Y-87233333D01*
X131804762Y-87271428D01*
X131919048Y-87271428D01*
X132071429Y-87233333D01*
X132147619Y-87195238D01*
X132223810Y-87119047D01*
X132261905Y-87004761D01*
X132261905Y-86928571D01*
X132223810Y-86814285D01*
X132185714Y-86776190D01*
X131919048Y-86776190D01*
X131919048Y-86928571D01*
X132261905Y-86433333D02*
X131461905Y-86433333D01*
X132261905Y-85633333D02*
X132261905Y-86090476D01*
X132261905Y-85861905D02*
X131461905Y-85861905D01*
X131576190Y-85938095D01*
X131652381Y-86014286D01*
X131690476Y-86090476D01*
X119414285Y-99571429D02*
X119214285Y-99285714D01*
X119071428Y-99571429D02*
X119071428Y-98971429D01*
X119300000Y-98971429D01*
X119357142Y-99000000D01*
X119385714Y-99028571D01*
X119414285Y-99085714D01*
X119414285Y-99171429D01*
X119385714Y-99228571D01*
X119357142Y-99257143D01*
X119300000Y-99285714D01*
X119071428Y-99285714D01*
X119985714Y-99571429D02*
X119642857Y-99571429D01*
X119814285Y-99571429D02*
X119814285Y-98971429D01*
X119757142Y-99057143D01*
X119700000Y-99114286D01*
X119642857Y-99142857D01*
X120357143Y-98971429D02*
X120414286Y-98971429D01*
X120471429Y-99000000D01*
X120500000Y-99028571D01*
X120528571Y-99085714D01*
X120557143Y-99200000D01*
X120557143Y-99342857D01*
X120528571Y-99457143D01*
X120500000Y-99514286D01*
X120471429Y-99542857D01*
X120414286Y-99571429D01*
X120357143Y-99571429D01*
X120300000Y-99542857D01*
X120271429Y-99514286D01*
X120242857Y-99457143D01*
X120214286Y-99342857D01*
X120214286Y-99200000D01*
X120242857Y-99085714D01*
X120271429Y-99028571D01*
X120300000Y-99000000D01*
X120357143Y-98971429D01*
X117414285Y-86271429D02*
X117214285Y-85985714D01*
X117071428Y-86271429D02*
X117071428Y-85671429D01*
X117300000Y-85671429D01*
X117357142Y-85700000D01*
X117385714Y-85728571D01*
X117414285Y-85785714D01*
X117414285Y-85871429D01*
X117385714Y-85928571D01*
X117357142Y-85957143D01*
X117300000Y-85985714D01*
X117071428Y-85985714D01*
X117985714Y-86271429D02*
X117642857Y-86271429D01*
X117814285Y-86271429D02*
X117814285Y-85671429D01*
X117757142Y-85757143D01*
X117700000Y-85814286D01*
X117642857Y-85842857D01*
X118557143Y-86271429D02*
X118214286Y-86271429D01*
X118385714Y-86271429D02*
X118385714Y-85671429D01*
X118328571Y-85757143D01*
X118271429Y-85814286D01*
X118214286Y-85842857D01*
X142614285Y-111071429D02*
X142414285Y-110785714D01*
X142271428Y-111071429D02*
X142271428Y-110471429D01*
X142500000Y-110471429D01*
X142557142Y-110500000D01*
X142585714Y-110528571D01*
X142614285Y-110585714D01*
X142614285Y-110671429D01*
X142585714Y-110728571D01*
X142557142Y-110757143D01*
X142500000Y-110785714D01*
X142271428Y-110785714D01*
X143185714Y-111071429D02*
X142842857Y-111071429D01*
X143014285Y-111071429D02*
X143014285Y-110471429D01*
X142957142Y-110557143D01*
X142900000Y-110614286D01*
X142842857Y-110642857D01*
X143528571Y-110728571D02*
X143471429Y-110700000D01*
X143442857Y-110671429D01*
X143414286Y-110614286D01*
X143414286Y-110585714D01*
X143442857Y-110528571D01*
X143471429Y-110500000D01*
X143528571Y-110471429D01*
X143642857Y-110471429D01*
X143700000Y-110500000D01*
X143728571Y-110528571D01*
X143757143Y-110585714D01*
X143757143Y-110614286D01*
X143728571Y-110671429D01*
X143700000Y-110700000D01*
X143642857Y-110728571D01*
X143528571Y-110728571D01*
X143471429Y-110757143D01*
X143442857Y-110785714D01*
X143414286Y-110842857D01*
X143414286Y-110957143D01*
X143442857Y-111014286D01*
X143471429Y-111042857D01*
X143528571Y-111071429D01*
X143642857Y-111071429D01*
X143700000Y-111042857D01*
X143728571Y-111014286D01*
X143757143Y-110957143D01*
X143757143Y-110842857D01*
X143728571Y-110785714D01*
X143700000Y-110757143D01*
X143642857Y-110728571D01*
X155521429Y-120685715D02*
X155235714Y-120885715D01*
X155521429Y-121028572D02*
X154921429Y-121028572D01*
X154921429Y-120800000D01*
X154950000Y-120742858D01*
X154978571Y-120714286D01*
X155035714Y-120685715D01*
X155121429Y-120685715D01*
X155178571Y-120714286D01*
X155207143Y-120742858D01*
X155235714Y-120800000D01*
X155235714Y-121028572D01*
X154978571Y-120457143D02*
X154950000Y-120428572D01*
X154921429Y-120371429D01*
X154921429Y-120228572D01*
X154950000Y-120171429D01*
X154978571Y-120142858D01*
X155035714Y-120114286D01*
X155092857Y-120114286D01*
X155178571Y-120142858D01*
X155521429Y-120485715D01*
X155521429Y-120114286D01*
X155521429Y-119542857D02*
X155521429Y-119885714D01*
X155521429Y-119714286D02*
X154921429Y-119714286D01*
X155007143Y-119771429D01*
X155064286Y-119828571D01*
X155092857Y-119885714D01*
X107914286Y-99271429D02*
X107942857Y-99300000D01*
X107971429Y-99385714D01*
X107971429Y-99442857D01*
X107942857Y-99528572D01*
X107885714Y-99585714D01*
X107828571Y-99614286D01*
X107714286Y-99642857D01*
X107628571Y-99642857D01*
X107514286Y-99614286D01*
X107457143Y-99585714D01*
X107400000Y-99528572D01*
X107371429Y-99442857D01*
X107371429Y-99385714D01*
X107400000Y-99300000D01*
X107428571Y-99271429D01*
X107428571Y-99042857D02*
X107400000Y-99014286D01*
X107371429Y-98957143D01*
X107371429Y-98814286D01*
X107400000Y-98757143D01*
X107428571Y-98728572D01*
X107485714Y-98700000D01*
X107542857Y-98700000D01*
X107628571Y-98728572D01*
X107971429Y-99071429D01*
X107971429Y-98700000D01*
X107371429Y-98328571D02*
X107371429Y-98271428D01*
X107400000Y-98214285D01*
X107428571Y-98185714D01*
X107485714Y-98157143D01*
X107600000Y-98128571D01*
X107742857Y-98128571D01*
X107857143Y-98157143D01*
X107914286Y-98185714D01*
X107942857Y-98214285D01*
X107971429Y-98271428D01*
X107971429Y-98328571D01*
X107942857Y-98385714D01*
X107914286Y-98414285D01*
X107857143Y-98442857D01*
X107742857Y-98471428D01*
X107600000Y-98471428D01*
X107485714Y-98442857D01*
X107428571Y-98414285D01*
X107400000Y-98385714D01*
X107371429Y-98328571D01*
X107971429Y-97557142D02*
X107971429Y-97899999D01*
X107971429Y-97728571D02*
X107371429Y-97728571D01*
X107457143Y-97785714D01*
X107514286Y-97842856D01*
X107542857Y-97899999D01*
X108471429Y-102442857D02*
X107871429Y-102442857D01*
X107871429Y-102300000D01*
X107900000Y-102214285D01*
X107957143Y-102157143D01*
X108014286Y-102128571D01*
X108128571Y-102100000D01*
X108214286Y-102100000D01*
X108328571Y-102128571D01*
X108385714Y-102157143D01*
X108442857Y-102214285D01*
X108471429Y-102300000D01*
X108471429Y-102442857D01*
X108471429Y-101528571D02*
X108471429Y-101871428D01*
X108471429Y-101700000D02*
X107871429Y-101700000D01*
X107957143Y-101757143D01*
X108014286Y-101814285D01*
X108042857Y-101871428D01*
X120237905Y-122363476D02*
X119437905Y-122363476D01*
X119437905Y-122173000D01*
X119476000Y-122058714D01*
X119552190Y-121982523D01*
X119628381Y-121944428D01*
X119780762Y-121906333D01*
X119895048Y-121906333D01*
X120047429Y-121944428D01*
X120123619Y-121982523D01*
X120199810Y-122058714D01*
X120237905Y-122173000D01*
X120237905Y-122363476D01*
X119437905Y-121639666D02*
X119437905Y-121144428D01*
X119742667Y-121411095D01*
X119742667Y-121296809D01*
X119780762Y-121220619D01*
X119818857Y-121182523D01*
X119895048Y-121144428D01*
X120085524Y-121144428D01*
X120161714Y-121182523D01*
X120199810Y-121220619D01*
X120237905Y-121296809D01*
X120237905Y-121525381D01*
X120199810Y-121601571D01*
X120161714Y-121639666D01*
D12*
X120452381Y-111161905D02*
X121261905Y-111161905D01*
X121357143Y-111114286D01*
X121404762Y-111066667D01*
X121452381Y-110971429D01*
X121452381Y-110780952D01*
X121404762Y-110685714D01*
X121357143Y-110638095D01*
X121261905Y-110590476D01*
X120452381Y-110590476D01*
X121452381Y-109590476D02*
X121452381Y-110161905D01*
X121452381Y-109876191D02*
X120452381Y-109876191D01*
X120595238Y-109971429D01*
X120690476Y-110066667D01*
X120738095Y-110161905D01*
D10*
X115228571Y-100114286D02*
X115200000Y-100142857D01*
X115114286Y-100171429D01*
X115057143Y-100171429D01*
X114971428Y-100142857D01*
X114914286Y-100085714D01*
X114885714Y-100028571D01*
X114857143Y-99914286D01*
X114857143Y-99828571D01*
X114885714Y-99714286D01*
X114914286Y-99657143D01*
X114971428Y-99600000D01*
X115057143Y-99571429D01*
X115114286Y-99571429D01*
X115200000Y-99600000D01*
X115228571Y-99628571D01*
X115457143Y-99628571D02*
X115485714Y-99600000D01*
X115542857Y-99571429D01*
X115685714Y-99571429D01*
X115742857Y-99600000D01*
X115771428Y-99628571D01*
X115800000Y-99685714D01*
X115800000Y-99742857D01*
X115771428Y-99828571D01*
X115428571Y-100171429D01*
X115800000Y-100171429D01*
X116171429Y-99571429D02*
X116228572Y-99571429D01*
X116285715Y-99600000D01*
X116314286Y-99628571D01*
X116342857Y-99685714D01*
X116371429Y-99800000D01*
X116371429Y-99942857D01*
X116342857Y-100057143D01*
X116314286Y-100114286D01*
X116285715Y-100142857D01*
X116228572Y-100171429D01*
X116171429Y-100171429D01*
X116114286Y-100142857D01*
X116085715Y-100114286D01*
X116057143Y-100057143D01*
X116028572Y-99942857D01*
X116028572Y-99800000D01*
X116057143Y-99685714D01*
X116085715Y-99628571D01*
X116114286Y-99600000D01*
X116171429Y-99571429D01*
X116742858Y-99571429D02*
X116800001Y-99571429D01*
X116857144Y-99600000D01*
X116885715Y-99628571D01*
X116914286Y-99685714D01*
X116942858Y-99800000D01*
X116942858Y-99942857D01*
X116914286Y-100057143D01*
X116885715Y-100114286D01*
X116857144Y-100142857D01*
X116800001Y-100171429D01*
X116742858Y-100171429D01*
X116685715Y-100142857D01*
X116657144Y-100114286D01*
X116628572Y-100057143D01*
X116600001Y-99942857D01*
X116600001Y-99800000D01*
X116628572Y-99685714D01*
X116657144Y-99628571D01*
X116685715Y-99600000D01*
X116742858Y-99571429D01*
X110714286Y-96071429D02*
X110742857Y-96100000D01*
X110771429Y-96185714D01*
X110771429Y-96242857D01*
X110742857Y-96328572D01*
X110685714Y-96385714D01*
X110628571Y-96414286D01*
X110514286Y-96442857D01*
X110428571Y-96442857D01*
X110314286Y-96414286D01*
X110257143Y-96385714D01*
X110200000Y-96328572D01*
X110171429Y-96242857D01*
X110171429Y-96185714D01*
X110200000Y-96100000D01*
X110228571Y-96071429D01*
X110228571Y-95842857D02*
X110200000Y-95814286D01*
X110171429Y-95757143D01*
X110171429Y-95614286D01*
X110200000Y-95557143D01*
X110228571Y-95528572D01*
X110285714Y-95500000D01*
X110342857Y-95500000D01*
X110428571Y-95528572D01*
X110771429Y-95871429D01*
X110771429Y-95500000D01*
X110171429Y-95128571D02*
X110171429Y-95071428D01*
X110200000Y-95014285D01*
X110228571Y-94985714D01*
X110285714Y-94957143D01*
X110400000Y-94928571D01*
X110542857Y-94928571D01*
X110657143Y-94957143D01*
X110714286Y-94985714D01*
X110742857Y-95014285D01*
X110771429Y-95071428D01*
X110771429Y-95128571D01*
X110742857Y-95185714D01*
X110714286Y-95214285D01*
X110657143Y-95242857D01*
X110542857Y-95271428D01*
X110400000Y-95271428D01*
X110285714Y-95242857D01*
X110228571Y-95214285D01*
X110200000Y-95185714D01*
X110171429Y-95128571D01*
X110228571Y-94699999D02*
X110200000Y-94671428D01*
X110171429Y-94614285D01*
X110171429Y-94471428D01*
X110200000Y-94414285D01*
X110228571Y-94385714D01*
X110285714Y-94357142D01*
X110342857Y-94357142D01*
X110428571Y-94385714D01*
X110771429Y-94728571D01*
X110771429Y-94357142D01*
X119028571Y-89514286D02*
X119000000Y-89542857D01*
X118914286Y-89571429D01*
X118857143Y-89571429D01*
X118771428Y-89542857D01*
X118714286Y-89485714D01*
X118685714Y-89428571D01*
X118657143Y-89314286D01*
X118657143Y-89228571D01*
X118685714Y-89114286D01*
X118714286Y-89057143D01*
X118771428Y-89000000D01*
X118857143Y-88971429D01*
X118914286Y-88971429D01*
X119000000Y-89000000D01*
X119028571Y-89028571D01*
X119257143Y-89028571D02*
X119285714Y-89000000D01*
X119342857Y-88971429D01*
X119485714Y-88971429D01*
X119542857Y-89000000D01*
X119571428Y-89028571D01*
X119600000Y-89085714D01*
X119600000Y-89142857D01*
X119571428Y-89228571D01*
X119228571Y-89571429D01*
X119600000Y-89571429D01*
X119971429Y-88971429D02*
X120028572Y-88971429D01*
X120085715Y-89000000D01*
X120114286Y-89028571D01*
X120142857Y-89085714D01*
X120171429Y-89200000D01*
X120171429Y-89342857D01*
X120142857Y-89457143D01*
X120114286Y-89514286D01*
X120085715Y-89542857D01*
X120028572Y-89571429D01*
X119971429Y-89571429D01*
X119914286Y-89542857D01*
X119885715Y-89514286D01*
X119857143Y-89457143D01*
X119828572Y-89342857D01*
X119828572Y-89200000D01*
X119857143Y-89085714D01*
X119885715Y-89028571D01*
X119914286Y-89000000D01*
X119971429Y-88971429D01*
X120371429Y-88971429D02*
X120742858Y-88971429D01*
X120542858Y-89200000D01*
X120628572Y-89200000D01*
X120685715Y-89228571D01*
X120714286Y-89257143D01*
X120742858Y-89314286D01*
X120742858Y-89457143D01*
X120714286Y-89514286D01*
X120685715Y-89542857D01*
X120628572Y-89571429D01*
X120457144Y-89571429D01*
X120400001Y-89542857D01*
X120371429Y-89514286D01*
X113285714Y-82771429D02*
X113285714Y-82171429D01*
X113428571Y-82171429D01*
X113514286Y-82200000D01*
X113571428Y-82257143D01*
X113600000Y-82314286D01*
X113628571Y-82428571D01*
X113628571Y-82514286D01*
X113600000Y-82628571D01*
X113571428Y-82685714D01*
X113514286Y-82742857D01*
X113428571Y-82771429D01*
X113285714Y-82771429D01*
X113857143Y-82228571D02*
X113885714Y-82200000D01*
X113942857Y-82171429D01*
X114085714Y-82171429D01*
X114142857Y-82200000D01*
X114171428Y-82228571D01*
X114200000Y-82285714D01*
X114200000Y-82342857D01*
X114171428Y-82428571D01*
X113828571Y-82771429D01*
X114200000Y-82771429D01*
X114571429Y-82171429D02*
X114628572Y-82171429D01*
X114685715Y-82200000D01*
X114714286Y-82228571D01*
X114742857Y-82285714D01*
X114771429Y-82400000D01*
X114771429Y-82542857D01*
X114742857Y-82657143D01*
X114714286Y-82714286D01*
X114685715Y-82742857D01*
X114628572Y-82771429D01*
X114571429Y-82771429D01*
X114514286Y-82742857D01*
X114485715Y-82714286D01*
X114457143Y-82657143D01*
X114428572Y-82542857D01*
X114428572Y-82400000D01*
X114457143Y-82285714D01*
X114485715Y-82228571D01*
X114514286Y-82200000D01*
X114571429Y-82171429D01*
X115142858Y-82171429D02*
X115200001Y-82171429D01*
X115257144Y-82200000D01*
X115285715Y-82228571D01*
X115314286Y-82285714D01*
X115342858Y-82400000D01*
X115342858Y-82542857D01*
X115314286Y-82657143D01*
X115285715Y-82714286D01*
X115257144Y-82742857D01*
X115200001Y-82771429D01*
X115142858Y-82771429D01*
X115085715Y-82742857D01*
X115057144Y-82714286D01*
X115028572Y-82657143D01*
X115000001Y-82542857D01*
X115000001Y-82400000D01*
X115028572Y-82285714D01*
X115057144Y-82228571D01*
X115085715Y-82200000D01*
X115142858Y-82171429D01*
X110085714Y-86771429D02*
X110085714Y-86171429D01*
X110228571Y-86171429D01*
X110314286Y-86200000D01*
X110371428Y-86257143D01*
X110400000Y-86314286D01*
X110428571Y-86428571D01*
X110428571Y-86514286D01*
X110400000Y-86628571D01*
X110371428Y-86685714D01*
X110314286Y-86742857D01*
X110228571Y-86771429D01*
X110085714Y-86771429D01*
X110657143Y-86228571D02*
X110685714Y-86200000D01*
X110742857Y-86171429D01*
X110885714Y-86171429D01*
X110942857Y-86200000D01*
X110971428Y-86228571D01*
X111000000Y-86285714D01*
X111000000Y-86342857D01*
X110971428Y-86428571D01*
X110628571Y-86771429D01*
X111000000Y-86771429D01*
X111371429Y-86171429D02*
X111428572Y-86171429D01*
X111485715Y-86200000D01*
X111514286Y-86228571D01*
X111542857Y-86285714D01*
X111571429Y-86400000D01*
X111571429Y-86542857D01*
X111542857Y-86657143D01*
X111514286Y-86714286D01*
X111485715Y-86742857D01*
X111428572Y-86771429D01*
X111371429Y-86771429D01*
X111314286Y-86742857D01*
X111285715Y-86714286D01*
X111257143Y-86657143D01*
X111228572Y-86542857D01*
X111228572Y-86400000D01*
X111257143Y-86285714D01*
X111285715Y-86228571D01*
X111314286Y-86200000D01*
X111371429Y-86171429D01*
X112142858Y-86771429D02*
X111800001Y-86771429D01*
X111971429Y-86771429D02*
X111971429Y-86171429D01*
X111914286Y-86257143D01*
X111857144Y-86314286D01*
X111800001Y-86342857D01*
X112728571Y-100171429D02*
X112528571Y-99885714D01*
X112385714Y-100171429D02*
X112385714Y-99571429D01*
X112614286Y-99571429D01*
X112671428Y-99600000D01*
X112700000Y-99628571D01*
X112728571Y-99685714D01*
X112728571Y-99771429D01*
X112700000Y-99828571D01*
X112671428Y-99857143D01*
X112614286Y-99885714D01*
X112385714Y-99885714D01*
X112957143Y-99628571D02*
X112985714Y-99600000D01*
X113042857Y-99571429D01*
X113185714Y-99571429D01*
X113242857Y-99600000D01*
X113271428Y-99628571D01*
X113300000Y-99685714D01*
X113300000Y-99742857D01*
X113271428Y-99828571D01*
X112928571Y-100171429D01*
X113300000Y-100171429D01*
X113671429Y-99571429D02*
X113728572Y-99571429D01*
X113785715Y-99600000D01*
X113814286Y-99628571D01*
X113842857Y-99685714D01*
X113871429Y-99800000D01*
X113871429Y-99942857D01*
X113842857Y-100057143D01*
X113814286Y-100114286D01*
X113785715Y-100142857D01*
X113728572Y-100171429D01*
X113671429Y-100171429D01*
X113614286Y-100142857D01*
X113585715Y-100114286D01*
X113557143Y-100057143D01*
X113528572Y-99942857D01*
X113528572Y-99800000D01*
X113557143Y-99685714D01*
X113585715Y-99628571D01*
X113614286Y-99600000D01*
X113671429Y-99571429D01*
X114242858Y-99571429D02*
X114300001Y-99571429D01*
X114357144Y-99600000D01*
X114385715Y-99628571D01*
X114414286Y-99685714D01*
X114442858Y-99800000D01*
X114442858Y-99942857D01*
X114414286Y-100057143D01*
X114385715Y-100114286D01*
X114357144Y-100142857D01*
X114300001Y-100171429D01*
X114242858Y-100171429D01*
X114185715Y-100142857D01*
X114157144Y-100114286D01*
X114128572Y-100057143D01*
X114100001Y-99942857D01*
X114100001Y-99800000D01*
X114128572Y-99685714D01*
X114157144Y-99628571D01*
X114185715Y-99600000D01*
X114242858Y-99571429D01*
X110528571Y-101771429D02*
X110328571Y-101485714D01*
X110185714Y-101771429D02*
X110185714Y-101171429D01*
X110414286Y-101171429D01*
X110471428Y-101200000D01*
X110500000Y-101228571D01*
X110528571Y-101285714D01*
X110528571Y-101371429D01*
X110500000Y-101428571D01*
X110471428Y-101457143D01*
X110414286Y-101485714D01*
X110185714Y-101485714D01*
X110757143Y-101228571D02*
X110785714Y-101200000D01*
X110842857Y-101171429D01*
X110985714Y-101171429D01*
X111042857Y-101200000D01*
X111071428Y-101228571D01*
X111100000Y-101285714D01*
X111100000Y-101342857D01*
X111071428Y-101428571D01*
X110728571Y-101771429D01*
X111100000Y-101771429D01*
X111471429Y-101171429D02*
X111528572Y-101171429D01*
X111585715Y-101200000D01*
X111614286Y-101228571D01*
X111642857Y-101285714D01*
X111671429Y-101400000D01*
X111671429Y-101542857D01*
X111642857Y-101657143D01*
X111614286Y-101714286D01*
X111585715Y-101742857D01*
X111528572Y-101771429D01*
X111471429Y-101771429D01*
X111414286Y-101742857D01*
X111385715Y-101714286D01*
X111357143Y-101657143D01*
X111328572Y-101542857D01*
X111328572Y-101400000D01*
X111357143Y-101285714D01*
X111385715Y-101228571D01*
X111414286Y-101200000D01*
X111471429Y-101171429D01*
X112242858Y-101771429D02*
X111900001Y-101771429D01*
X112071429Y-101771429D02*
X112071429Y-101171429D01*
X112014286Y-101257143D01*
X111957144Y-101314286D01*
X111900001Y-101342857D01*
X117728571Y-82971429D02*
X117528571Y-82685714D01*
X117385714Y-82971429D02*
X117385714Y-82371429D01*
X117614286Y-82371429D01*
X117671428Y-82400000D01*
X117700000Y-82428571D01*
X117728571Y-82485714D01*
X117728571Y-82571429D01*
X117700000Y-82628571D01*
X117671428Y-82657143D01*
X117614286Y-82685714D01*
X117385714Y-82685714D01*
X117957143Y-82428571D02*
X117985714Y-82400000D01*
X118042857Y-82371429D01*
X118185714Y-82371429D01*
X118242857Y-82400000D01*
X118271428Y-82428571D01*
X118300000Y-82485714D01*
X118300000Y-82542857D01*
X118271428Y-82628571D01*
X117928571Y-82971429D01*
X118300000Y-82971429D01*
X118671429Y-82371429D02*
X118728572Y-82371429D01*
X118785715Y-82400000D01*
X118814286Y-82428571D01*
X118842857Y-82485714D01*
X118871429Y-82600000D01*
X118871429Y-82742857D01*
X118842857Y-82857143D01*
X118814286Y-82914286D01*
X118785715Y-82942857D01*
X118728572Y-82971429D01*
X118671429Y-82971429D01*
X118614286Y-82942857D01*
X118585715Y-82914286D01*
X118557143Y-82857143D01*
X118528572Y-82742857D01*
X118528572Y-82600000D01*
X118557143Y-82485714D01*
X118585715Y-82428571D01*
X118614286Y-82400000D01*
X118671429Y-82371429D01*
X119100001Y-82428571D02*
X119128572Y-82400000D01*
X119185715Y-82371429D01*
X119328572Y-82371429D01*
X119385715Y-82400000D01*
X119414286Y-82428571D01*
X119442858Y-82485714D01*
X119442858Y-82542857D01*
X119414286Y-82628571D01*
X119071429Y-82971429D01*
X119442858Y-82971429D01*
X112271429Y-89571429D02*
X111985714Y-89771429D01*
X112271429Y-89914286D02*
X111671429Y-89914286D01*
X111671429Y-89685714D01*
X111700000Y-89628572D01*
X111728571Y-89600000D01*
X111785714Y-89571429D01*
X111871429Y-89571429D01*
X111928571Y-89600000D01*
X111957143Y-89628572D01*
X111985714Y-89685714D01*
X111985714Y-89914286D01*
X111728571Y-89342857D02*
X111700000Y-89314286D01*
X111671429Y-89257143D01*
X111671429Y-89114286D01*
X111700000Y-89057143D01*
X111728571Y-89028572D01*
X111785714Y-89000000D01*
X111842857Y-89000000D01*
X111928571Y-89028572D01*
X112271429Y-89371429D01*
X112271429Y-89000000D01*
X111671429Y-88628571D02*
X111671429Y-88571428D01*
X111700000Y-88514285D01*
X111728571Y-88485714D01*
X111785714Y-88457143D01*
X111900000Y-88428571D01*
X112042857Y-88428571D01*
X112157143Y-88457143D01*
X112214286Y-88485714D01*
X112242857Y-88514285D01*
X112271429Y-88571428D01*
X112271429Y-88628571D01*
X112242857Y-88685714D01*
X112214286Y-88714285D01*
X112157143Y-88742857D01*
X112042857Y-88771428D01*
X111900000Y-88771428D01*
X111785714Y-88742857D01*
X111728571Y-88714285D01*
X111700000Y-88685714D01*
X111671429Y-88628571D01*
X111671429Y-88228571D02*
X111671429Y-87857142D01*
X111900000Y-88057142D01*
X111900000Y-87971428D01*
X111928571Y-87914285D01*
X111957143Y-87885714D01*
X112014286Y-87857142D01*
X112157143Y-87857142D01*
X112214286Y-87885714D01*
X112242857Y-87914285D01*
X112271429Y-87971428D01*
X112271429Y-88142856D01*
X112242857Y-88199999D01*
X112214286Y-88228571D01*
X119828571Y-91061905D02*
X119828571Y-91709524D01*
X119866666Y-91785714D01*
X119904762Y-91823810D01*
X119980952Y-91861905D01*
X120133333Y-91861905D01*
X120209524Y-91823810D01*
X120247619Y-91785714D01*
X120285714Y-91709524D01*
X120285714Y-91061905D01*
X120628571Y-91138095D02*
X120666666Y-91100000D01*
X120742857Y-91061905D01*
X120933333Y-91061905D01*
X121009523Y-91100000D01*
X121047619Y-91138095D01*
X121085714Y-91214286D01*
X121085714Y-91290476D01*
X121047619Y-91404762D01*
X120590476Y-91861905D01*
X121085714Y-91861905D01*
X121580952Y-91061905D02*
X121657143Y-91061905D01*
X121733333Y-91100000D01*
X121771428Y-91138095D01*
X121809524Y-91214286D01*
X121847619Y-91366667D01*
X121847619Y-91557143D01*
X121809524Y-91709524D01*
X121771428Y-91785714D01*
X121733333Y-91823810D01*
X121657143Y-91861905D01*
X121580952Y-91861905D01*
X121504762Y-91823810D01*
X121466666Y-91785714D01*
X121428571Y-91709524D01*
X121390476Y-91557143D01*
X121390476Y-91366667D01*
X121428571Y-91214286D01*
X121466666Y-91138095D01*
X121504762Y-91100000D01*
X121580952Y-91061905D01*
X122609524Y-91861905D02*
X122152381Y-91861905D01*
X122380952Y-91861905D02*
X122380952Y-91061905D01*
X122304762Y-91176190D01*
X122228571Y-91252381D01*
X122152381Y-91290476D01*
X139214286Y-81785715D02*
X139242857Y-81814286D01*
X139271429Y-81900000D01*
X139271429Y-81957143D01*
X139242857Y-82042858D01*
X139185714Y-82100000D01*
X139128571Y-82128572D01*
X139014286Y-82157143D01*
X138928571Y-82157143D01*
X138814286Y-82128572D01*
X138757143Y-82100000D01*
X138700000Y-82042858D01*
X138671429Y-81957143D01*
X138671429Y-81900000D01*
X138700000Y-81814286D01*
X138728571Y-81785715D01*
X139271429Y-81214286D02*
X139271429Y-81557143D01*
X139271429Y-81385715D02*
X138671429Y-81385715D01*
X138757143Y-81442858D01*
X138814286Y-81500000D01*
X138842857Y-81557143D01*
X138671429Y-80671429D02*
X138671429Y-80957143D01*
X138957143Y-80985714D01*
X138928571Y-80957143D01*
X138900000Y-80900000D01*
X138900000Y-80757143D01*
X138928571Y-80700000D01*
X138957143Y-80671429D01*
X139014286Y-80642857D01*
X139157143Y-80642857D01*
X139214286Y-80671429D01*
X139242857Y-80700000D01*
X139271429Y-80757143D01*
X139271429Y-80900000D01*
X139242857Y-80957143D01*
X139214286Y-80985714D01*
X146714286Y-81785715D02*
X146742857Y-81814286D01*
X146771429Y-81900000D01*
X146771429Y-81957143D01*
X146742857Y-82042858D01*
X146685714Y-82100000D01*
X146628571Y-82128572D01*
X146514286Y-82157143D01*
X146428571Y-82157143D01*
X146314286Y-82128572D01*
X146257143Y-82100000D01*
X146200000Y-82042858D01*
X146171429Y-81957143D01*
X146171429Y-81900000D01*
X146200000Y-81814286D01*
X146228571Y-81785715D01*
X146771429Y-81214286D02*
X146771429Y-81557143D01*
X146771429Y-81385715D02*
X146171429Y-81385715D01*
X146257143Y-81442858D01*
X146314286Y-81500000D01*
X146342857Y-81557143D01*
X146171429Y-81014286D02*
X146171429Y-80614286D01*
X146771429Y-80871429D01*
X131714286Y-123985715D02*
X131742857Y-124014286D01*
X131771429Y-124100000D01*
X131771429Y-124157143D01*
X131742857Y-124242858D01*
X131685714Y-124300000D01*
X131628571Y-124328572D01*
X131514286Y-124357143D01*
X131428571Y-124357143D01*
X131314286Y-124328572D01*
X131257143Y-124300000D01*
X131200000Y-124242858D01*
X131171429Y-124157143D01*
X131171429Y-124100000D01*
X131200000Y-124014286D01*
X131228571Y-123985715D01*
X131228571Y-123757143D02*
X131200000Y-123728572D01*
X131171429Y-123671429D01*
X131171429Y-123528572D01*
X131200000Y-123471429D01*
X131228571Y-123442858D01*
X131285714Y-123414286D01*
X131342857Y-123414286D01*
X131428571Y-123442858D01*
X131771429Y-123785715D01*
X131771429Y-123414286D01*
X131171429Y-123042857D02*
X131171429Y-122985714D01*
X131200000Y-122928571D01*
X131228571Y-122900000D01*
X131285714Y-122871429D01*
X131400000Y-122842857D01*
X131542857Y-122842857D01*
X131657143Y-122871429D01*
X131714286Y-122900000D01*
X131742857Y-122928571D01*
X131771429Y-122985714D01*
X131771429Y-123042857D01*
X131742857Y-123100000D01*
X131714286Y-123128571D01*
X131657143Y-123157143D01*
X131542857Y-123185714D01*
X131400000Y-123185714D01*
X131285714Y-123157143D01*
X131228571Y-123128571D01*
X131200000Y-123100000D01*
X131171429Y-123042857D01*
X124064286Y-123835715D02*
X124092857Y-123864286D01*
X124121429Y-123950000D01*
X124121429Y-124007143D01*
X124092857Y-124092858D01*
X124035714Y-124150000D01*
X123978571Y-124178572D01*
X123864286Y-124207143D01*
X123778571Y-124207143D01*
X123664286Y-124178572D01*
X123607143Y-124150000D01*
X123550000Y-124092858D01*
X123521429Y-124007143D01*
X123521429Y-123950000D01*
X123550000Y-123864286D01*
X123578571Y-123835715D01*
X123578571Y-123607143D02*
X123550000Y-123578572D01*
X123521429Y-123521429D01*
X123521429Y-123378572D01*
X123550000Y-123321429D01*
X123578571Y-123292858D01*
X123635714Y-123264286D01*
X123692857Y-123264286D01*
X123778571Y-123292858D01*
X124121429Y-123635715D01*
X124121429Y-123264286D01*
X123578571Y-123035714D02*
X123550000Y-123007143D01*
X123521429Y-122950000D01*
X123521429Y-122807143D01*
X123550000Y-122750000D01*
X123578571Y-122721429D01*
X123635714Y-122692857D01*
X123692857Y-122692857D01*
X123778571Y-122721429D01*
X124121429Y-123064286D01*
X124121429Y-122692857D01*
X144714286Y-123800000D02*
X144742857Y-123828571D01*
X144771429Y-123914285D01*
X144771429Y-123971428D01*
X144742857Y-124057143D01*
X144685714Y-124114285D01*
X144628571Y-124142857D01*
X144514286Y-124171428D01*
X144428571Y-124171428D01*
X144314286Y-124142857D01*
X144257143Y-124114285D01*
X144200000Y-124057143D01*
X144171429Y-123971428D01*
X144171429Y-123914285D01*
X144200000Y-123828571D01*
X144228571Y-123800000D01*
X144428571Y-123457143D02*
X144400000Y-123514285D01*
X144371429Y-123542857D01*
X144314286Y-123571428D01*
X144285714Y-123571428D01*
X144228571Y-123542857D01*
X144200000Y-123514285D01*
X144171429Y-123457143D01*
X144171429Y-123342857D01*
X144200000Y-123285714D01*
X144228571Y-123257143D01*
X144285714Y-123228571D01*
X144314286Y-123228571D01*
X144371429Y-123257143D01*
X144400000Y-123285714D01*
X144428571Y-123342857D01*
X144428571Y-123457143D01*
X144457143Y-123514285D01*
X144485714Y-123542857D01*
X144542857Y-123571428D01*
X144657143Y-123571428D01*
X144714286Y-123542857D01*
X144742857Y-123514285D01*
X144771429Y-123457143D01*
X144771429Y-123342857D01*
X144742857Y-123285714D01*
X144714286Y-123257143D01*
X144657143Y-123228571D01*
X144542857Y-123228571D01*
X144485714Y-123257143D01*
X144457143Y-123285714D01*
X144428571Y-123342857D01*
X150071429Y-116400000D02*
X149785714Y-116600000D01*
X150071429Y-116742857D02*
X149471429Y-116742857D01*
X149471429Y-116514285D01*
X149500000Y-116457143D01*
X149528571Y-116428571D01*
X149585714Y-116400000D01*
X149671429Y-116400000D01*
X149728571Y-116428571D01*
X149757143Y-116457143D01*
X149785714Y-116514285D01*
X149785714Y-116742857D01*
X149528571Y-116171428D02*
X149500000Y-116142857D01*
X149471429Y-116085714D01*
X149471429Y-115942857D01*
X149500000Y-115885714D01*
X149528571Y-115857143D01*
X149585714Y-115828571D01*
X149642857Y-115828571D01*
X149728571Y-115857143D01*
X150071429Y-116200000D01*
X150071429Y-115828571D01*
X147142857Y-115850000D02*
X147171429Y-115764286D01*
X147171429Y-115621429D01*
X147142857Y-115564286D01*
X147114286Y-115535715D01*
X147057143Y-115507143D01*
X147000000Y-115507143D01*
X146942857Y-115535715D01*
X146914286Y-115564286D01*
X146885714Y-115621429D01*
X146857143Y-115735715D01*
X146828571Y-115792857D01*
X146800000Y-115821429D01*
X146742857Y-115850000D01*
X146685714Y-115850000D01*
X146628571Y-115821429D01*
X146600000Y-115792857D01*
X146571429Y-115735715D01*
X146571429Y-115592857D01*
X146600000Y-115507143D01*
X147142857Y-115021428D02*
X147171429Y-115078571D01*
X147171429Y-115192857D01*
X147142857Y-115250000D01*
X147085714Y-115278571D01*
X146857143Y-115278571D01*
X146800000Y-115250000D01*
X146771429Y-115192857D01*
X146771429Y-115078571D01*
X146800000Y-115021428D01*
X146857143Y-114992857D01*
X146914286Y-114992857D01*
X146971429Y-115278571D01*
X147171429Y-114735714D02*
X146771429Y-114735714D01*
X146885714Y-114735714D02*
X146828571Y-114707142D01*
X146800000Y-114678571D01*
X146771429Y-114621428D01*
X146771429Y-114564285D01*
X146771429Y-114421428D02*
X147171429Y-114278571D01*
X146771429Y-114135713D01*
X147171429Y-113821428D02*
X147142857Y-113878570D01*
X147114286Y-113907142D01*
X147057143Y-113935713D01*
X146885714Y-113935713D01*
X146828571Y-113907142D01*
X146800000Y-113878570D01*
X146771429Y-113821428D01*
X146771429Y-113735713D01*
X146800000Y-113678570D01*
X146828571Y-113649999D01*
X146885714Y-113621428D01*
X147057143Y-113621428D01*
X147114286Y-113649999D01*
X147142857Y-113678570D01*
X147171429Y-113735713D01*
X147171429Y-113821428D01*
X146628571Y-113392856D02*
X146600000Y-113364285D01*
X146571429Y-113307142D01*
X146571429Y-113164285D01*
X146600000Y-113107142D01*
X146628571Y-113078571D01*
X146685714Y-113049999D01*
X146742857Y-113049999D01*
X146828571Y-113078571D01*
X147171429Y-113421428D01*
X147171429Y-113049999D01*
X109714285Y-105671429D02*
X109514285Y-105385714D01*
X109371428Y-105671429D02*
X109371428Y-105071429D01*
X109600000Y-105071429D01*
X109657142Y-105100000D01*
X109685714Y-105128571D01*
X109714285Y-105185714D01*
X109714285Y-105271429D01*
X109685714Y-105328571D01*
X109657142Y-105357143D01*
X109600000Y-105385714D01*
X109371428Y-105385714D01*
X110285714Y-105671429D02*
X109942857Y-105671429D01*
X110114285Y-105671429D02*
X110114285Y-105071429D01*
X110057142Y-105157143D01*
X110000000Y-105214286D01*
X109942857Y-105242857D01*
X110571429Y-105671429D02*
X110685714Y-105671429D01*
X110742857Y-105642857D01*
X110771429Y-105614286D01*
X110828571Y-105528571D01*
X110857143Y-105414286D01*
X110857143Y-105185714D01*
X110828571Y-105128571D01*
X110800000Y-105100000D01*
X110742857Y-105071429D01*
X110628571Y-105071429D01*
X110571429Y-105100000D01*
X110542857Y-105128571D01*
X110514286Y-105185714D01*
X110514286Y-105328571D01*
X110542857Y-105385714D01*
X110571429Y-105414286D01*
X110628571Y-105442857D01*
X110742857Y-105442857D01*
X110800000Y-105414286D01*
X110828571Y-105385714D01*
X110857143Y-105328571D01*
%LPC*%
D15*
X107423800Y-106314400D02*
X107576200Y-106314400D01*
X107576200Y-106314400D02*
X107576200Y-104485600D01*
X107576200Y-104485600D02*
X107423800Y-104485600D01*
X107423800Y-104485600D02*
X107423800Y-106314400D01*
D16*
X131500000Y-83250000D03*
X131500000Y-84750000D03*
D17*
X168698740Y-93500780D03*
X167428740Y-93500780D03*
X166158740Y-93500780D03*
X164888740Y-93500780D03*
X163618740Y-93500780D03*
X162348740Y-93500780D03*
X161078740Y-93500780D03*
X159811280Y-93500780D03*
X158541280Y-93500780D03*
X157271280Y-93500780D03*
X156001280Y-93500780D03*
X154731280Y-93500780D03*
X153461280Y-93500780D03*
X152191280Y-93500780D03*
D18*
X150700300Y-96785000D03*
X150700300Y-98055000D03*
X150700300Y-99325000D03*
X150700300Y-100595000D03*
X150700300Y-101865000D03*
X150700300Y-103135000D03*
X150700300Y-104405000D03*
X150700300Y-105675000D03*
X150700300Y-106945000D03*
X150700300Y-108215000D03*
D17*
X152191280Y-111499220D03*
X153461280Y-111499220D03*
X154731280Y-111499220D03*
X156001280Y-111499220D03*
X157271280Y-111499220D03*
X158541280Y-111499220D03*
X159811280Y-111499220D03*
X161078740Y-111499220D03*
X162348740Y-111499220D03*
X163618740Y-111499220D03*
X164888740Y-111499220D03*
X166158740Y-111499220D03*
X167428740Y-111499220D03*
X168698740Y-111499220D03*
D19*
X161500000Y-101865000D03*
D20*
X167500000Y-82500000D03*
X102500000Y-82500000D03*
D21*
X135000000Y-116000000D03*
D22*
X135000000Y-118000000D03*
X135000000Y-120000000D03*
X135000000Y-122000000D03*
D21*
X127500000Y-116000000D03*
D22*
X127500000Y-118000000D03*
X127500000Y-120000000D03*
X127500000Y-122000000D03*
D23*
X104064000Y-103791000D03*
D24*
X104064000Y-101251000D03*
D25*
X128400000Y-106200000D03*
D26*
X146180000Y-98580000D03*
X130940000Y-106200000D03*
X143640000Y-98580000D03*
X133480000Y-106200000D03*
X141100000Y-98580000D03*
X136020000Y-106200000D03*
X138560000Y-98580000D03*
X138560000Y-106200000D03*
X136020000Y-98580000D03*
X141100000Y-106200000D03*
X133480000Y-98580000D03*
X143640000Y-106200000D03*
X130940000Y-98580000D03*
X146180000Y-106200000D03*
X128400000Y-98580000D03*
D23*
X152500000Y-117500000D03*
D24*
X152500000Y-120040000D03*
X152500000Y-122580000D03*
D23*
X141500000Y-117500000D03*
D24*
X141500000Y-120040000D03*
X141500000Y-122580000D03*
D27*
X154910000Y-86000000D03*
X164090000Y-86000000D03*
D16*
X111000000Y-115850000D03*
X111000000Y-114350000D03*
D28*
X113150000Y-107400000D03*
X114650000Y-107400000D03*
X116150000Y-104500000D03*
X114650000Y-104500000D03*
D29*
X116950000Y-118100000D03*
X119050000Y-118100000D03*
D30*
X128670800Y-84088200D03*
X126770800Y-84088200D03*
X127720800Y-86088200D03*
D31*
X122987000Y-84824000D03*
X122987000Y-86724000D03*
X124987000Y-85774000D03*
D32*
X127670000Y-89572000D03*
X127670000Y-88072000D03*
D33*
X122983000Y-83361000D03*
X124483000Y-83361000D03*
X122983000Y-88060000D03*
X124483000Y-88060000D03*
D32*
X126019000Y-89572000D03*
X126019000Y-88072000D03*
D27*
X157410000Y-118000000D03*
X166590000Y-118000000D03*
D16*
X112600000Y-115850000D03*
X112600000Y-114350000D03*
D28*
X116150000Y-106000000D03*
X114650000Y-106000000D03*
X167100000Y-90000000D03*
X168600000Y-90000000D03*
X167150000Y-91700000D03*
X168650000Y-91700000D03*
X154950000Y-83150000D03*
X156450000Y-83150000D03*
D16*
X139000000Y-120750000D03*
X139000000Y-122250000D03*
D20*
X102500000Y-122500000D03*
X167500000Y-122500000D03*
D32*
X124000000Y-117350000D03*
X124000000Y-115850000D03*
X131700000Y-118150000D03*
X131700000Y-116650000D03*
D16*
X150000000Y-120750000D03*
X150000000Y-122250000D03*
D28*
X114650000Y-102900000D03*
X116150000Y-102900000D03*
X114650000Y-101300000D03*
X116150000Y-101300000D03*
D16*
X126000000Y-97250000D03*
X126000000Y-98750000D03*
D32*
X121400000Y-117550000D03*
X121400000Y-119050000D03*
D23*
X104000000Y-95000000D03*
D24*
X104000000Y-91500000D03*
D23*
X104000000Y-113500000D03*
D24*
X104000000Y-110000000D03*
D34*
X109900000Y-120350000D03*
X110550000Y-120350000D03*
X111200000Y-120350000D03*
X111850000Y-120350000D03*
X112500000Y-120350000D03*
D35*
X108700000Y-120350000D03*
X113700000Y-120350000D03*
D36*
X107700000Y-123050000D03*
X114700000Y-123050000D03*
D21*
X150000000Y-89000000D03*
D22*
X150000000Y-87000000D03*
X150000000Y-85000000D03*
X150000000Y-83000000D03*
D21*
X142500000Y-89000000D03*
D22*
X142500000Y-87000000D03*
X142500000Y-85000000D03*
X142500000Y-83000000D03*
D21*
X135000000Y-89000000D03*
D22*
X135000000Y-87000000D03*
X135000000Y-85000000D03*
X135000000Y-83000000D03*
D33*
X119112600Y-98094800D03*
X120612600Y-98094800D03*
X117029800Y-87249000D03*
X118529800Y-87249000D03*
X142250000Y-112150000D03*
X143750000Y-112150000D03*
D32*
X155300000Y-117500000D03*
X155300000Y-119000000D03*
D16*
X108864400Y-97903600D03*
X108864400Y-99403600D03*
D37*
X106800000Y-103250000D03*
X106800000Y-101150000D03*
D38*
X121400000Y-120800000D03*
X121400000Y-123000000D03*
D39*
X121006000Y-113492000D03*
D40*
X114706000Y-113492000D03*
X114706000Y-115792000D03*
X114706000Y-111192000D03*
D28*
X117346160Y-98572320D03*
X115846160Y-98572320D03*
D16*
X110439200Y-97167000D03*
X110439200Y-98667000D03*
D28*
X116293200Y-89408000D03*
X117793200Y-89408000D03*
D38*
X113200000Y-84010500D03*
X115400000Y-84010500D03*
X113250800Y-86537800D03*
X115450800Y-86537800D03*
D33*
X113907000Y-98704400D03*
X112407000Y-98704400D03*
X111875000Y-100330000D03*
X110375000Y-100330000D03*
X118669500Y-84010500D03*
X117169500Y-84010500D03*
D32*
X113258600Y-89599200D03*
X113258600Y-88099200D03*
D41*
X119110760Y-91231720D03*
X118475760Y-91231720D03*
X117815360Y-91231720D03*
X117154960Y-91231720D03*
X116519960Y-91231720D03*
X115859560Y-91231720D03*
X115199160Y-91231720D03*
X114564160Y-91231720D03*
X113903760Y-91231720D03*
X113268760Y-91231720D03*
X113268760Y-96565720D03*
X113903760Y-96565720D03*
X114564160Y-96565720D03*
X115199160Y-96565720D03*
X115859560Y-96565720D03*
X116519960Y-96565720D03*
X117154960Y-96565720D03*
X117815360Y-96565720D03*
X118475760Y-96565720D03*
X119110760Y-96565720D03*
D16*
X139000000Y-83250000D03*
X139000000Y-84750000D03*
X146500000Y-83250000D03*
X146500000Y-84750000D03*
X131500000Y-121750000D03*
X131500000Y-120250000D03*
X124000000Y-121750000D03*
X124000000Y-120250000D03*
X144500000Y-122250000D03*
X144500000Y-120750000D03*
D32*
X149800000Y-118950000D03*
X149800000Y-117450000D03*
D23*
X147000000Y-117500000D03*
D24*
X147000000Y-120040000D03*
X147000000Y-122580000D03*
D42*
X106738000Y-105400000D03*
X108262000Y-105400000D03*
M02*
