M48
;DRILL file {KiCad 4.0.7} date 06/11/18 00:02:30
;FORMAT={3:3/ absolute / metric / suppress leading zeros}
FMAT,2
METRIC,TZ
T1C0.400
T2C0.500
T3C0.550
T4C0.800
T5C1.000
%
G90
G05
M71
T1
X108200Y-103200
X108800Y-96600
X109300Y-118700
X109600Y-115900
X110200Y-104400
X110200Y-106400
X110500Y-117200
X110500Y-118900
X111000Y-113100
X111100Y-104400
X111100Y-106400
X111785Y-97206
X111938Y-84233
X112500Y-118600
X112700Y-113200
X113600Y-102000
X115100Y-89350
X115189Y-95377
X115824Y-93345
X116600Y-111200
X117348Y-99822
X117831Y-88290
X118650Y-101200
X118694Y-94666
X118720Y-88272
X119368Y-87599
X119431Y-94012
X124300Y-97400
X124800Y-98800
X126000Y-95900
X126150Y-85850
X128650Y-90600
X128700Y-88100
X128900Y-113250
X129718Y-84741
X141500Y-112150
X142350Y-103200
X142400Y-93500
X142400Y-95300
X144450Y-119600
X145000Y-95850
X145000Y-104000
X145000Y-112150
X146400Y-91900
X148800Y-104000
X148800Y-105300
X149450Y-106950
X150750Y-117450
X151150Y-112850
X152200Y-112750
X152400Y-96800
X153450Y-112750
X153461Y-92261
X154750Y-92250
X154750Y-112750
X154750Y-115500
X156000Y-112750
X156000Y-116150
X156400Y-119750
X157277Y-92298
X157400Y-116550
X158250Y-115850
X158550Y-112750
X159800Y-112750
X161600Y-101750
X166167Y-87218
X166167Y-92298
X168400Y-95350
X168700Y-109900
T4
X127500Y-116000
X127500Y-118000
X127500Y-120000
X127500Y-122000
X128400Y-98580
X128400Y-106200
X130940Y-98580
X130940Y-106200
X133480Y-98580
X133480Y-106200
X135000Y-83000
X135000Y-85000
X135000Y-87000
X135000Y-89000
X135000Y-116000
X135000Y-118000
X135000Y-120000
X135000Y-122000
X136020Y-98580
X136020Y-106200
X138560Y-98580
X138560Y-106200
X141100Y-98580
X141100Y-106200
X142500Y-83000
X142500Y-85000
X142500Y-87000
X142500Y-89000
X143640Y-98580
X143640Y-106200
X146180Y-98580
X146180Y-106200
X150000Y-83000
X150000Y-85000
X150000Y-87000
X150000Y-89000
T5
X104000Y-91500
X104000Y-95000
X104000Y-110000
X104000Y-113500
X104064Y-101251
X104064Y-103791
X141500Y-117500
X141500Y-120040
X141500Y-122580
X147000Y-117500
X147000Y-120040
X147000Y-122580
X152500Y-117500
X152500Y-120040
X152500Y-122580
T2
X107700Y-123375G85X107700Y-122725
G05
X114700Y-123375G85X114700Y-122725
G05
T3
X108550Y-120350G85X108850Y-120350
G05
X113550Y-120350G85X113850Y-120350
G05
T0
M30
